<svg width="181" height="80" viewBox="0 0 181 80" fill="none" xmlns="http://www.w3.org/2000/svg">
<path d="M162.094 1.03711C171.826 1.03725 179.716 8.92673 179.716 18.6592V60.9736C179.716 70.7059 171.826 78.5956 162.094 78.5957H18.6592C8.92677 78.5957 1.03731 70.706 1.03711 60.9736V18.6592C1.03711 8.92664 8.92664 1.03711 18.6592 1.03711H162.094Z" fill="#9178E6"/>
<path d="M162.094 1.03711C171.826 1.03725 179.716 8.92673 179.716 18.6592V60.9736C179.716 70.7059 171.826 78.5956 162.094 78.5957H18.6592C8.92677 78.5957 1.03731 70.706 1.03711 60.9736V18.6592C1.03711 8.92664 8.92664 1.03711 18.6592 1.03711H162.094Z" stroke="#9178E6" stroke-width="2.07321"/>
<path d="M58.6357 17.0732V6.81083H62.5696C63.1605 6.81083 63.6943 6.86266 64.1712 6.96632C64.648 7.06998 65.0575 7.23066 65.3996 7.44835C65.7416 7.66603 66.0008 7.94592 66.177 8.288C66.3636 8.63008 66.4569 9.03954 66.4569 9.51638C66.4569 9.91029 66.374 10.2576 66.2081 10.5582C66.0526 10.8588 65.8038 11.1076 65.4618 11.3045C65.1197 11.4911 64.6688 11.6259 64.109 11.7088V11.9109C65.073 11.9835 65.7727 12.2375 66.2081 12.6728C66.6539 13.0979 66.8767 13.6628 66.8767 14.3677C66.8767 14.9586 66.7316 15.4561 66.4413 15.8604C66.1615 16.2543 65.7313 16.5549 65.1508 16.7623C64.5703 16.9696 63.8343 17.0732 62.9428 17.0732H58.6357ZM60.2684 15.6583H63.0205C63.7565 15.6583 64.3059 15.5391 64.6688 15.3006C65.0316 15.0519 65.213 14.6735 65.213 14.1656C65.213 13.5851 64.9694 13.1497 64.4822 12.8594C64.0053 12.5692 63.2745 12.4241 62.2897 12.4241H60.2684V15.6583ZM60.2684 11.2423H61.9943C62.948 11.2423 63.6529 11.1179 64.109 10.8691C64.5651 10.61 64.7931 10.2213 64.7931 9.70297C64.7931 9.19503 64.591 8.82185 64.1867 8.58343C63.7928 8.33465 63.1864 8.21025 62.3675 8.21025H60.2684V11.2423ZM69.1168 17.0732V6.81083H70.8116V17.0732H69.1168ZM69.5832 17.0732V15.6116H75.4453V17.0732H69.5832ZM76.6772 17.0732L80.2534 6.81083H82.7413L86.3176 17.0732H84.4828L81.6062 8.1947H81.4041L78.5275 17.0732H76.6772ZM78.4808 14.8653V13.6369H84.7471V14.8653H78.4808ZM87.693 17.0732V15.4406L93.244 8.45904V8.27245H87.8951V6.81083H95.1565V8.55233L89.6833 15.4406V15.6116H95.3276V17.0732H87.693ZM97.2649 17.0732V6.81083H98.9908V17.0732H97.2649ZM101.672 17.0732V6.81083H103.911L109.058 14.8186H109.198L109.089 6.81083H110.737V17.0732H108.7L103.367 8.81667H103.211L103.336 17.0732H101.672ZM117.425 17.2754C116.586 17.2754 115.834 17.0836 115.171 16.7001C114.507 16.3062 113.984 15.7205 113.6 14.943C113.227 14.1656 113.04 13.1911 113.04 12.0198C113.04 11.1698 113.144 10.413 113.351 9.74961C113.569 9.08619 113.88 8.52123 114.284 8.05476C114.699 7.58829 115.207 7.23066 115.808 6.98187C116.409 6.73309 117.104 6.60869 117.892 6.60869C118.472 6.60869 119.001 6.68126 119.478 6.82638C119.954 6.97151 120.369 7.17883 120.722 7.44835C121.074 7.71786 121.354 8.04958 121.561 8.44349C121.779 8.82703 121.908 9.26759 121.95 9.76516L120.333 10.2316C120.302 9.71333 120.167 9.29351 119.929 8.97216C119.69 8.65081 119.384 8.41757 119.011 8.27245C118.648 8.12732 118.254 8.05476 117.829 8.05476C117.228 8.05476 116.7 8.18952 116.243 8.45904C115.798 8.72856 115.445 9.15357 115.186 9.73406C114.937 10.3042 114.813 11.0454 114.813 11.9576C114.813 12.6625 114.891 13.2637 115.046 13.7613C115.202 14.2485 115.409 14.6476 115.668 14.9586C115.938 15.2592 116.254 15.4821 116.617 15.6272C116.979 15.7619 117.373 15.8293 117.798 15.8293C118.317 15.8293 118.762 15.736 119.136 15.5494C119.519 15.3628 119.825 15.0778 120.053 14.6942C120.281 14.3107 120.416 13.8235 120.457 13.2326H118.265V11.942H122.137V13.5902V17.0732H120.846L121.048 14.3366H120.799C120.654 14.9897 120.442 15.5339 120.162 15.9693C119.882 16.4046 119.514 16.7312 119.058 16.9488C118.612 17.1665 118.068 17.2754 117.425 17.2754Z" fill="#0E0A18"/>
<rect x="2.07324" y="23.0732" width="176.606" height="54.7536" rx="16.5857" fill="#090C18"/>
<path d="M64.7664 36.0311C72.7299 36.0311 79.1853 42.4866 79.1853 50.4501C79.1853 58.4136 72.7299 64.869 64.7664 64.869C56.8029 64.869 50.3474 58.4136 50.3474 50.4501C50.3474 42.4866 56.8029 36.0311 64.7664 36.0311Z" fill="#9178E6" stroke="#0E0A18" stroke-width="1.03661"/>
<path d="M64.766 61.7386C71.0005 61.7386 76.0546 56.6845 76.0546 50.45C76.0546 44.2154 71.0005 39.1614 64.766 39.1614C58.5314 39.1614 53.4773 44.2154 53.4773 50.45C53.4773 56.6845 58.5314 61.7386 64.766 61.7386Z" stroke="#0E0A18" stroke-width="1.58601" stroke-linecap="round" stroke-linejoin="round"/>
<path d="M64.7666 50.45L69.224 45.1945" stroke="#0E0A18" stroke-width="1.58601" stroke-linecap="round" stroke-linejoin="round"/>
<path d="M64.7666 50.45L68.5709 54.1922" stroke="#0E0A18" stroke-width="1.58601" stroke-linecap="round" stroke-linejoin="round"/>
<path d="M64.7666 39.4205V41.67" stroke="#0E0A18" stroke-width="1.58601" stroke-linecap="round" stroke-linejoin="round"/>
<path d="M64.7666 58.7325V60.9716" stroke="#0E0A18" stroke-width="1.58601" stroke-linecap="round" stroke-linejoin="round"/>
<path d="M75.806 50.45H73.5565" stroke="#0E0A18" stroke-width="1.58601" stroke-linecap="round" stroke-linejoin="round"/>
<path d="M56.494 50.45H54.2446" stroke="#0E0A18" stroke-width="1.58601" stroke-linecap="round" stroke-linejoin="round"/>
<path d="M92.7652 57.9501V54.9149H86.3216V51.5563C87.1509 49.5826 87.9222 47.7167 88.6353 45.9586C89.3485 44.2005 89.9456 42.4093 90.4266 40.5848H94.5564C94.175 42.3761 93.6359 44.2088 92.9393 46.083C92.2593 47.9406 91.571 49.765 90.8744 51.5563H92.7652V48.3718H96.9945V51.5563H98.3877V54.9149H96.9945V57.9501H92.7652ZM99.4985 57.9501V53.87H103.703V57.9501H99.4985ZM99.4985 49.9392V45.8591H103.703V49.9392H99.4985ZM111.153 58.2237C109.925 58.2237 108.856 57.8589 107.943 57.1291C107.048 56.3993 106.351 55.3627 105.854 54.0193C105.356 52.6758 105.107 51.0919 105.107 49.2675C105.107 47.443 105.356 45.8591 105.854 44.5156C106.351 43.1722 107.048 42.1356 107.943 41.4058C108.856 40.6761 109.925 40.3112 111.153 40.3112C112.364 40.3112 113.408 40.6761 114.287 41.4058C115.183 42.1356 115.88 43.1722 116.377 44.5156C116.875 45.8425 117.124 47.4264 117.124 49.2675C117.124 51.1085 116.875 52.7007 116.377 54.0441C115.88 55.371 115.183 56.3993 114.287 57.1291C113.408 57.8589 112.364 58.2237 111.153 58.2237ZM111.153 54.8651C111.717 54.8651 112.14 54.3841 112.422 53.4222C112.72 52.4602 112.869 51.0753 112.869 49.2675C112.869 47.4596 112.72 46.0747 112.422 45.1127C112.14 44.1508 111.717 43.6698 111.153 43.6698C110.589 43.6698 110.149 44.1508 109.834 45.1127C109.519 46.0581 109.362 47.443 109.362 49.2675C109.362 51.0753 109.519 52.4602 109.834 53.4222C110.149 54.3841 110.589 54.8651 111.153 54.8651ZM123.97 40.2863C125.164 40.2863 126.201 40.6263 127.08 41.3063C127.976 41.9863 128.664 42.9566 129.145 44.2171C129.626 45.4776 129.867 46.9703 129.867 48.6952C129.867 50.5363 129.601 52.17 129.07 53.5963C128.54 55.0227 127.785 56.1505 126.806 56.9798C125.844 57.7925 124.725 58.1989 123.448 58.1989C122.536 58.1989 121.698 57.9998 120.935 57.6018C120.189 57.1871 119.575 56.6066 119.094 55.8603C118.63 55.1139 118.373 54.2432 118.323 53.248L122.154 52.6012C122.171 53.331 122.32 53.8866 122.602 54.268C122.901 54.6495 123.224 54.8403 123.572 54.8403C124.103 54.8403 124.551 54.4339 124.916 53.6212C125.297 52.8085 125.529 51.689 125.612 50.2626C125.33 50.7602 124.907 51.1665 124.343 51.4816C123.78 51.7802 123.207 51.9295 122.627 51.9295C121.98 51.9295 121.325 51.7304 120.661 51.3324C120.015 50.9343 119.467 50.3372 119.019 49.5411C118.588 48.745 118.373 47.7416 118.373 46.5308C118.373 45.3201 118.613 44.2503 119.094 43.3215C119.575 42.3761 120.23 41.638 121.06 41.1073C121.905 40.56 122.876 40.2863 123.97 40.2863ZM123.995 43.6449C123.614 43.6449 123.29 43.8854 123.025 44.3664C122.76 44.8474 122.627 45.4444 122.627 46.1576C122.627 46.9372 122.76 47.5757 123.025 48.0733C123.29 48.5709 123.622 48.8196 124.02 48.8196C124.418 48.8196 124.742 48.5791 124.99 48.0982C125.239 47.6172 125.363 47.0118 125.363 46.282C125.363 45.5191 125.231 44.8888 124.965 44.3913C124.7 43.8937 124.377 43.6449 123.995 43.6449Z" fill="#9178E6"/>
</svg>
