<svg width="117" height="81" viewBox="0 0 117 81" fill="none" xmlns="http://www.w3.org/2000/svg">
<path d="M97.6963 1.03711C107.429 1.03712 115.318 8.92665 115.318 18.6592V61.4463C115.318 71.1786 107.429 79.0683 97.6963 79.0684H18.6592C8.92679 79.0684 1.03736 71.1786 1.03711 61.4463V18.6592C1.03711 8.92664 8.92664 1.03711 18.6592 1.03711H97.6963Z" fill="#9178E6"/>
<path d="M97.6963 1.03711C107.429 1.03712 115.318 8.92665 115.318 18.6592V61.4463C115.318 71.1786 107.429 79.0683 97.6963 79.0684H18.6592C8.92679 79.0684 1.03736 71.1786 1.03711 61.4463V18.6592C1.03711 8.92664 8.92664 1.03711 18.6592 1.03711H97.6963Z" stroke="#9178E6" stroke-width="2.07321"/>
<path d="M26.437 17.0732V6.81083H30.3709C30.9618 6.81083 31.4956 6.86266 31.9724 6.96632C32.4493 7.06998 32.8587 7.23066 33.2008 7.44835C33.5429 7.66603 33.8021 7.94592 33.9783 8.288C34.1649 8.63008 34.2582 9.03954 34.2582 9.51638C34.2582 9.91029 34.1752 10.2576 34.0094 10.5582C33.8539 10.8588 33.6051 11.1076 33.263 11.3045C32.9209 11.4911 32.47 11.6259 31.9103 11.7088V11.9109C32.8743 11.9835 33.574 12.2375 34.0094 12.6728C34.4551 13.0979 34.678 13.6628 34.678 14.3677C34.678 14.9586 34.5329 15.4561 34.2426 15.8604C33.9627 16.2543 33.5325 16.5549 32.952 16.7623C32.3715 16.9696 31.6356 17.0732 30.7441 17.0732H26.437ZM28.0696 15.6583H30.8218C31.5578 15.6583 32.1072 15.5391 32.47 15.3006C32.8328 15.0519 33.0142 14.6735 33.0142 14.1656C33.0142 13.5851 32.7706 13.1497 32.2834 12.8594C31.8066 12.5692 31.0758 12.4241 30.091 12.4241H28.0696V15.6583ZM28.0696 11.2423H29.7956C30.7493 11.2423 31.4541 11.1179 31.9103 10.8691C32.3664 10.61 32.5944 10.2213 32.5944 9.70297C32.5944 9.19503 32.3923 8.82185 31.988 8.58343C31.5941 8.33465 30.9877 8.21025 30.1688 8.21025H28.0696V11.2423ZM36.918 17.0732V6.81083H38.6129V17.0732H36.918ZM37.3845 17.0732V15.6116H43.2465V17.0732H37.3845ZM44.4784 17.0732L48.0547 6.81083H50.5426L54.1189 17.0732H52.2841L49.4075 8.1947H49.2054L46.3288 17.0732H44.4784ZM46.2821 14.8653V13.6369H52.5484V14.8653H46.2821ZM55.4942 17.0732V15.4406L61.0453 8.45904V8.27245H55.6964V6.81083H62.9578V8.55233L57.4845 15.4406V15.6116H63.1288V17.0732H55.4942ZM65.0662 17.0732V6.81083H66.7921V17.0732H65.0662ZM69.4734 17.0732V6.81083H71.7124L76.8592 14.8186H76.9991L76.8903 6.81083H78.5385V17.0732H76.5016L71.1682 8.81667H71.0127L71.1371 17.0732H69.4734ZM85.2264 17.2754C84.3868 17.2754 83.6352 17.0836 82.9718 16.7001C82.3084 16.3062 81.7849 15.7205 81.4013 14.943C81.0282 14.1656 80.8416 13.1911 80.8416 12.0198C80.8416 11.1698 80.9452 10.413 81.1526 9.74961C81.3702 9.08619 81.6812 8.52123 82.0855 8.05476C82.5002 7.58829 83.0081 7.23066 83.6093 6.98187C84.2106 6.73309 84.9051 6.60869 85.6929 6.60869C86.2734 6.60869 86.8021 6.68126 87.2789 6.82638C87.7557 6.97151 88.1704 7.17883 88.5228 7.44835C88.8753 7.71786 89.1552 8.04958 89.3625 8.44349C89.5802 8.82703 89.7098 9.26759 89.7512 9.76516L88.1341 10.2316C88.103 9.71333 87.9683 9.29351 87.7298 8.97216C87.4914 8.65081 87.1856 8.41757 86.8124 8.27245C86.4496 8.12732 86.0557 8.05476 85.6307 8.05476C85.0295 8.05476 84.5008 8.18952 84.0447 8.45904C83.599 8.72856 83.2465 9.15357 82.9874 9.73406C82.7386 10.3042 82.6142 11.0454 82.6142 11.9576C82.6142 12.6625 82.6919 13.2637 82.8474 13.7613C83.0029 14.2485 83.2102 14.6476 83.4694 14.9586C83.7389 15.2592 84.0551 15.4821 84.4179 15.6272C84.7807 15.7619 85.1746 15.8293 85.5996 15.8293C86.1179 15.8293 86.5636 15.736 86.9368 15.5494C87.3204 15.3628 87.6262 15.0778 87.8542 14.6942C88.0823 14.3107 88.217 13.8235 88.2585 13.2326H86.0661V11.942H89.9378V13.5902V17.0732H88.6472L88.8494 14.3366H88.6006C88.4555 14.9897 88.243 15.5339 87.9631 15.9693C87.6832 16.4046 87.3152 16.7312 86.8591 16.9488C86.4133 17.1665 85.8691 17.2754 85.2264 17.2754Z" fill="#0E0A18"/>
<rect x="2.07324" y="23.0732" width="112.209" height="54.7536" rx="16.5857" fill="#090C18"/>
<path d="M33.0679 36.031C41.0314 36.031 47.4868 42.4864 47.4868 50.45C47.4868 58.4134 41.0314 64.8689 33.0679 64.8689C25.1044 64.8689 18.6489 58.4134 18.6489 50.45C18.6489 42.4865 25.1044 36.031 33.0679 36.031Z" fill="#9178E6" stroke="#0E0A18" stroke-width="1.03661"/>
<path d="M33.0675 61.7384C39.302 61.7384 44.3561 56.6843 44.3561 50.4497C44.3561 44.2152 39.302 39.1611 33.0675 39.1611C26.8329 39.1611 21.7788 44.2152 21.7788 50.4497C21.7788 56.6843 26.8329 61.7384 33.0675 61.7384Z" stroke="#0E0A18" stroke-width="1.58601" stroke-linecap="round" stroke-linejoin="round"/>
<path d="M33.0681 50.4499L37.5255 45.1943" stroke="#0E0A18" stroke-width="1.58601" stroke-linecap="round" stroke-linejoin="round"/>
<path d="M33.0681 50.4497L36.8724 54.1919" stroke="#0E0A18" stroke-width="1.58601" stroke-linecap="round" stroke-linejoin="round"/>
<path d="M33.0681 39.4204V41.6698" stroke="#0E0A18" stroke-width="1.58601" stroke-linecap="round" stroke-linejoin="round"/>
<path d="M33.0681 58.7322V60.9712" stroke="#0E0A18" stroke-width="1.58601" stroke-linecap="round" stroke-linejoin="round"/>
<path d="M44.1074 50.4497H41.8579" stroke="#0E0A18" stroke-width="1.58601" stroke-linecap="round" stroke-linejoin="round"/>
<path d="M24.7956 50.4497H22.5461" stroke="#0E0A18" stroke-width="1.58601" stroke-linecap="round" stroke-linejoin="round"/>
<path d="M54.7722 57.95V55.5865C55.9 54.326 56.8786 53.2645 57.7079 52.402C58.5537 51.5396 59.2503 50.7683 59.7977 50.0883C60.3616 49.4083 60.7845 48.7449 61.0665 48.098C61.3484 47.4346 61.4894 46.6883 61.4894 45.859C61.4894 44.3994 61.0913 43.6697 60.2952 43.6697C59.7977 43.6697 59.4079 43.9765 59.1259 44.5902C58.844 45.1872 58.8025 46.0082 59.0015 47.0531L54.7473 46.7795C54.7473 45.436 54.9712 44.2833 55.419 43.3214C55.8834 42.3428 56.5303 41.5964 57.3596 41.0823C58.1888 40.5515 59.1591 40.2862 60.2703 40.2862C61.3152 40.2862 62.244 40.5101 63.0567 40.9579C63.8694 41.4057 64.508 42.0443 64.9724 42.8735C65.4368 43.6862 65.669 44.6565 65.669 45.7843C65.669 46.8292 65.4783 47.7912 65.0968 48.6702C64.7153 49.5493 64.2426 50.3537 63.6787 51.0835C63.1314 51.8132 62.5758 52.4684 62.0118 53.0489C61.4645 53.6294 61.025 54.1435 60.6933 54.5913H65.669V57.95H54.7722ZM67.1195 57.95V53.8699H71.324V57.95H67.1195ZM67.1195 49.9391V45.859H71.324V49.9391H67.1195ZM78.7738 58.2236C77.5464 58.2236 76.4767 57.8587 75.5644 57.129C74.6688 56.3992 73.9722 55.3626 73.4746 54.0191C72.9771 52.6757 72.7283 51.0918 72.7283 49.2673C72.7283 47.4429 72.9771 45.859 73.4746 44.5155C73.9722 43.1721 74.6688 42.1355 75.5644 41.4057C76.4767 40.6759 77.5464 40.311 78.7738 40.311C79.9845 40.311 81.0294 40.6759 81.9085 41.4057C82.8041 42.1355 83.5007 43.1721 83.9983 44.5155C84.4958 45.8424 84.7446 47.4263 84.7446 49.2673C84.7446 51.1083 84.4958 52.7006 83.9983 54.044C83.5007 55.3709 82.8041 56.3992 81.9085 57.129C81.0294 57.8587 79.9845 58.2236 78.7738 58.2236ZM78.7738 54.865C79.3377 54.865 79.7606 54.384 80.0426 53.4221C80.3411 52.4601 80.4904 51.0752 80.4904 49.2673C80.4904 47.4595 80.3411 46.0746 80.0426 45.1126C79.7606 44.1506 79.3377 43.6697 78.7738 43.6697C78.2099 43.6697 77.7703 44.1506 77.4552 45.1126C77.1401 46.058 76.9825 47.4429 76.9825 49.2673C76.9825 51.0752 77.1401 52.4601 77.4552 53.4221C77.7703 54.384 78.2099 54.865 78.7738 54.865ZM91.5913 40.2862C92.7855 40.2862 93.8221 40.6262 94.7011 41.3062C95.5967 41.9862 96.2851 42.9565 96.766 44.217C97.247 45.4775 97.4875 46.9702 97.4875 48.6951C97.4875 50.5361 97.2221 52.1698 96.6914 53.5962C96.1607 55.0226 95.406 56.1504 94.4275 56.9797C93.4655 57.7924 92.3459 58.1987 91.0688 58.1987C90.1566 58.1987 89.3191 57.9997 88.5561 57.6017C87.8098 57.187 87.1961 56.6065 86.7151 55.8602C86.2507 55.1138 85.9936 54.243 85.9439 53.2479L89.7752 52.6011C89.7917 53.3308 89.941 53.8865 90.223 54.2679C90.5215 54.6494 90.8449 54.8401 91.1932 54.8401C91.724 54.8401 92.1718 54.4338 92.5367 53.6211C92.9182 52.8084 93.1504 51.6888 93.2333 50.2625C92.9513 50.76 92.5284 51.1664 91.9645 51.4815C91.4006 51.7801 90.8284 51.9293 90.2479 51.9293C89.601 51.9293 88.9459 51.7303 88.2824 51.3323C87.6356 50.9342 87.0883 50.3371 86.6405 49.541C86.2092 48.7449 85.9936 47.7414 85.9936 46.5307C85.9936 45.3199 86.2341 44.2502 86.7151 43.3214C87.1961 42.376 87.8512 41.6379 88.6805 41.1072C89.5264 40.5598 90.4966 40.2862 91.5913 40.2862ZM91.6162 43.6448C91.2347 43.6448 90.9113 43.8853 90.6459 44.3663C90.3805 44.8472 90.2479 45.4443 90.2479 46.1575C90.2479 46.937 90.3805 47.5756 90.6459 48.0732C90.9113 48.5707 91.243 48.8195 91.6411 48.8195C92.0391 48.8195 92.3625 48.579 92.6113 48.098C92.8601 47.6171 92.9845 47.0117 92.9845 46.2819C92.9845 45.519 92.8518 44.8887 92.5864 44.3911C92.3211 43.8936 91.9976 43.6448 91.6162 43.6448Z" fill="#9178E6"/>
</svg>
