<svg width="19" height="19" viewBox="0 0 19 19" fill="none" xmlns="http://www.w3.org/2000/svg">
<path d="M15.5698 8.56337H3.11409V13.3901C3.11409 14.0568 3.11436 14.5101 3.14298 14.8604C3.17087 15.2017 3.22159 15.3765 3.28362 15.4982C3.43289 15.7911 3.67113 16.0294 3.96404 16.1787C4.08579 16.2407 4.26058 16.2914 4.60187 16.3193C4.95222 16.3479 5.40548 16.3482 6.07217 16.3482H12.6117C13.2784 16.3482 13.7317 16.3479 14.082 16.3193C14.4233 16.2914 14.5981 16.2407 14.7198 16.1787C15.0128 16.0294 15.251 15.7911 15.4003 15.4982C15.4623 15.3765 15.513 15.2017 15.5409 14.8604C15.5695 14.5101 15.5698 14.0568 15.5698 13.3901V8.56337ZM11.6774 4.67097V3.89249H7.0065V4.67097C7.0065 5.10091 6.65796 5.44945 6.22802 5.44945C5.79807 5.44945 5.44954 5.10091 5.44954 4.67097V3.89477C5.10275 3.89721 4.83041 3.90271 4.60187 3.92138C4.26058 3.94926 4.08579 3.99998 3.96404 4.06202C3.67113 4.21128 3.43289 4.44953 3.28362 4.74243C3.22159 4.86419 3.17087 5.03897 3.14298 5.38027C3.11436 5.73061 3.11409 6.18388 3.11409 6.85056V7.00641H15.5698V6.85056C15.5698 6.18388 15.5695 5.73061 15.5409 5.38027C15.513 5.03897 15.4623 4.86419 15.4003 4.74243C15.251 4.44953 15.0128 4.21128 14.7198 4.06202C14.5981 3.99998 14.4233 3.94926 14.082 3.92138C13.8535 3.90271 13.5811 3.89721 13.2343 3.89477V4.67097C13.2343 5.10091 12.8858 5.44945 12.4559 5.44945C12.0259 5.44945 11.6774 5.10091 11.6774 4.67097ZM17.1268 13.3901C17.1268 14.0312 17.1275 14.5589 17.0925 14.9874C17.0568 15.4249 16.9802 15.8275 16.7877 16.2053C16.4892 16.7911 16.0127 17.2676 15.4269 17.5661C15.0491 17.7586 14.6465 17.8352 14.209 17.8709C13.7805 17.9059 13.2528 17.9051 12.6117 17.9051H6.07217C5.4311 17.9051 4.90337 17.9059 4.47491 17.8709C4.03736 17.8352 3.63482 17.7586 3.25702 17.5661C2.6712 17.2676 2.19472 16.7911 1.8962 16.2053C1.7037 15.8275 1.6271 15.4249 1.59134 14.9874C1.55633 14.5589 1.55713 14.0312 1.55713 13.3901V6.85056C1.55713 6.20949 1.55633 5.68177 1.59134 5.25331C1.6271 4.81576 1.7037 4.41321 1.8962 4.03541C2.19472 3.4496 2.67121 2.97311 3.25702 2.67459C3.63482 2.48209 4.03736 2.40549 4.47491 2.36974C4.75579 2.34679 5.0794 2.34035 5.44954 2.33781V1.55705C5.44954 1.1271 5.79807 0.778564 6.22802 0.778564C6.65796 0.778564 7.0065 1.1271 7.0065 1.55705V2.33553H11.6774V1.55705C11.6774 1.1271 12.0259 0.778564 12.4559 0.778564C12.8858 0.778564 13.2343 1.1271 13.2343 1.55705V2.33781C13.6045 2.34035 13.9281 2.34679 14.209 2.36974C14.6465 2.40549 15.0491 2.48209 15.4269 2.67459C16.0127 2.97311 16.4892 3.4496 16.7877 4.03541C16.9802 4.41321 17.0568 4.81576 17.0925 5.25331C17.1275 5.68177 17.1268 6.20949 17.1268 6.85056V13.3901Z" fill="#9178E6"/>
</svg>
