<svg width="34" height="34" viewBox="0 0 34 34" fill="none" xmlns="http://www.w3.org/2000/svg">
<path fill-rule="evenodd" clip-rule="evenodd" d="M12.1056 4.14648H21.0655C22.1781 4.14647 23.0962 4.14646 23.8443 4.20758C24.6212 4.27104 25.3353 4.40727 26.0062 4.74907C27.0464 5.27911 27.8921 6.12487 28.4222 7.16514C28.764 7.83595 28.9003 8.5501 28.9637 9.327C29.0248 10.075 29.0248 10.9932 29.0248 12.1058V21.0657C29.0248 22.1783 29.0248 23.0965 28.9637 23.8445C28.9003 24.6214 28.764 25.3356 28.4222 26.0065C27.8921 27.0467 27.0464 27.8924 26.0062 28.4224C25.3353 28.7642 24.6212 28.9005 23.8443 28.964C23.0962 29.025 22.1781 29.0251 21.0655 29.0251H12.1056C10.993 29.0251 10.0748 29.025 9.32676 28.964C8.54986 28.9005 7.8357 28.7642 7.1649 28.4224C6.12463 27.8924 5.27887 27.0467 4.74883 26.0065C4.40702 25.3356 4.2708 24.6214 4.20733 23.8445C4.14621 23.0965 4.14623 22.1783 4.14624 21.0657V12.1058C4.14623 10.9932 4.14621 10.075 4.20733 9.327C4.2708 8.5501 4.40702 7.83595 4.74883 7.16514C5.27887 6.12487 6.12463 5.27911 7.1649 4.74907C7.8357 4.40727 8.54986 4.27104 9.32676 4.20758C10.0747 4.14646 10.993 4.14647 12.1056 4.14648ZM22.3959 14.4533C22.9356 13.9135 22.9356 13.0384 22.3959 12.4986C21.856 11.9589 20.981 11.9589 20.4413 12.4986L15.199 17.741L13.4119 15.954C12.8722 15.4143 11.9971 15.4143 11.4573 15.954C10.9175 16.4937 10.9175 17.3689 11.4573 17.9086L14.2216 20.6729C14.7614 21.2126 15.6364 21.2126 16.1763 20.6729L22.3959 14.4533Z" fill="#00C386"/>
</svg>
