<svg width="20" height="20" viewBox="0 0 20 20" fill="none" xmlns="http://www.w3.org/2000/svg">
<path d="M15.0002 8.99992C15.0002 8.28626 14.9999 7.80106 14.9692 7.42603C14.9394 7.06068 14.8851 6.87358 14.8187 6.74325C14.6589 6.4297 14.4039 6.17467 14.0903 6.01489C13.96 5.94849 13.7729 5.89419 13.4076 5.86434C13.0325 5.83371 12.5473 5.83342 11.8337 5.83342H5.66667C4.95301 5.83342 4.46781 5.83371 4.09278 5.86434C3.72743 5.89419 3.54033 5.94849 3.41 6.01489C3.09645 6.17467 2.84142 6.4297 2.68164 6.74325C2.61523 6.87358 2.56094 7.06068 2.53109 7.42603C2.50046 7.80106 2.50016 8.28626 2.50016 8.99992V11.0002C2.50016 11.7139 2.50046 12.1991 2.53109 12.5741C2.56094 12.9395 2.61523 13.1266 2.68164 13.2569C2.84142 13.5705 3.09645 13.8255 3.41 13.9853C3.54033 14.0517 3.72743 14.106 4.09278 14.1358C4.46781 14.1665 4.95301 14.1667 5.66667 14.1667H11.8337C12.5473 14.1667 13.0325 14.1665 13.4076 14.1358C13.7729 14.106 13.96 14.0517 14.0903 13.9853C14.4039 13.8255 14.6589 13.5705 14.8187 13.2569C14.8851 13.1266 14.9394 12.9395 14.9692 12.5741C14.9999 12.1991 15.0002 11.7139 15.0002 11.0002V8.99992ZM7.74431 7.09562C7.96782 6.6933 8.4748 6.54822 8.87712 6.77173C9.2793 6.99521 9.42431 7.50229 9.20101 7.90454L8.49951 9.16675H10.4168C10.7121 9.16675 10.9857 9.32324 11.1354 9.57772C11.2849 9.8321 11.2884 10.1466 11.1452 10.4045L9.75602 12.9045C9.53251 13.3069 9.02553 13.4519 8.62321 13.2284C8.22103 13.005 8.07602 12.4979 8.29932 12.0956L9.00082 10.8334H7.0835C6.78823 10.8334 6.51465 10.6769 6.36491 10.4224C6.2154 10.1681 6.21189 9.85359 6.35515 9.59562L7.74431 7.09562ZM17.5002 10.8334V9.16675C17.5002 8.70651 17.8733 8.33342 18.3335 8.33342C18.7937 8.33342 19.1668 8.70651 19.1668 9.16675V10.8334C19.1668 11.2937 18.7937 11.6667 18.3335 11.6667C17.8733 11.6667 17.5002 11.2937 17.5002 10.8334ZM16.6668 11.0002C16.6668 11.6865 16.6677 12.2514 16.6302 12.71C16.5919 13.1784 16.5099 13.6093 16.3039 14.0138C15.9843 14.6408 15.4743 15.1509 14.8472 15.4705C14.4427 15.6765 14.0118 15.7585 13.5435 15.7968C13.0848 15.8343 12.5199 15.8334 11.8337 15.8334H5.66667C4.98043 15.8334 4.41552 15.8343 3.95687 15.7968C3.48849 15.7585 3.05758 15.6765 2.65316 15.4705C2.02607 15.1509 1.51601 14.6408 1.19645 14.0138C0.990391 13.6093 0.908393 13.1784 0.870119 12.71C0.832646 12.2514 0.833498 11.6865 0.833498 11.0002V8.99992C0.833498 8.31368 0.832646 7.74877 0.870119 7.29012C0.908393 6.82174 0.990391 6.39083 1.19645 5.98641C1.51601 5.35932 2.02607 4.84926 2.65316 4.52971C3.05758 4.32364 3.48849 4.24164 3.95687 4.20337C4.41552 4.1659 4.98043 4.16675 5.66667 4.16675H11.8337C12.5199 4.16675 13.0848 4.1659 13.5435 4.20337C14.0118 4.24164 14.4427 4.32364 14.8472 4.52971C15.4743 4.84926 15.9843 5.35932 16.3039 5.98641C16.5099 6.39083 16.5919 6.82174 16.6302 7.29012C16.6677 7.74877 16.6668 8.31368 16.6668 8.99992V11.0002Z" fill="#7F22FE"/>
</svg>
