<svg width="19" height="19" viewBox="0 0 19 19" fill="none" xmlns="http://www.w3.org/2000/svg">
<g clip-path="url(#clip0_14030_17251)">
<path d="M0.77832 9.34174C0.77832 4.61236 4.61224 0.778446 9.34161 0.778446C9.77155 0.778446 10.1201 1.12698 10.1201 1.55693C10.1201 1.98687 9.77155 2.33541 9.34161 2.33541C5.47212 2.33541 2.33528 5.47225 2.33528 9.34174C2.33528 13.2112 5.47212 16.3481 9.34161 16.3481C13.2111 16.3481 16.3479 13.2112 16.3479 9.34174C16.3479 8.91179 16.6965 8.56326 17.1264 8.56326C17.5564 8.56326 17.9049 8.91179 17.9049 9.34174C17.9049 14.0711 14.071 17.905 9.34161 17.905C4.61224 17.905 0.77832 14.0711 0.77832 9.34174ZM4.67073 9.34174C4.67073 6.76208 6.76195 4.67085 9.34161 4.67085C9.77155 4.67085 10.1201 5.01939 10.1201 5.44933C10.1201 5.87928 9.77155 6.22781 9.34161 6.22781C7.62184 6.22781 6.22769 7.62196 6.22769 9.34174C6.22769 11.0615 7.62184 12.4557 9.34161 12.4557C11.0614 12.4557 12.4555 11.0615 12.4555 9.34174C12.4555 8.91179 12.8041 8.56326 13.234 8.56326C13.664 8.56326 14.0125 8.91179 14.0125 9.34174C14.0125 11.9214 11.9213 14.0126 9.34161 14.0126C6.76195 14.0126 4.67073 11.9214 4.67073 9.34174ZM14.9157 0.78833C15.1627 0.828413 15.3754 0.98492 15.4874 1.20874L16.1495 2.53307L17.4746 3.19599C17.6984 3.30791 17.8549 3.52069 17.895 3.76769C17.9351 4.01467 17.8538 4.26585 17.6768 4.44278L15.3414 6.77822C15.1954 6.92421 14.9974 7.00629 14.791 7.00629H12.7779L9.89202 9.89215C9.58802 10.1961 9.09522 10.1961 8.7912 9.89215C8.48719 9.58814 8.4872 9.09534 8.7912 8.79133L11.6771 5.90547V3.89237C11.6771 3.6859 11.7591 3.48795 11.9051 3.34196L14.2406 1.00652L14.3105 0.944938C14.4805 0.811469 14.6996 0.753267 14.9157 0.78833ZM13.234 4.21471V5.44933H14.4686L15.812 4.10524L15.2213 3.81027C15.0706 3.73494 14.9484 3.61273 14.8731 3.46208L14.5774 2.87061L13.234 4.21471Z" fill="#E879C0"/>
</g>
<defs>
<clipPath id="clip0_14030_17251">
<rect width="18.6835" height="18.6835" fill="white"/>
</clipPath>
</defs>
</svg>
