<svg width="264" height="226" viewBox="0 0 264 226" fill="none" xmlns="http://www.w3.org/2000/svg">
<g filter="url(#filter0_i_13896_13054)">
<path d="M71.5459 59.9999C71.5459 26.863 98.4087 0.000244141 131.546 0.000244141C164.683 0.000244141 191.545 26.863 191.545 59.9999C191.545 93.1369 164.683 120 131.546 120C98.4087 120 71.5459 93.1369 71.5459 59.9999Z" fill="#FB7E5B"/>
<mask id="mask0_13896_13054" style="mask-type:alpha" maskUnits="userSpaceOnUse" x="106" y="35" width="51" height="50">
<rect x="106.546" y="35" width="50" height="50" fill="#D9D9D9"/>
</mask>
<g mask="url(#mask0_13896_13054)">
<path d="M135.713 74.5866V45.4199H144.046V74.5866H135.713ZM119.046 74.5866V45.4199H127.379V74.5866H119.046Z" fill="#F4F2FF"/>
</g>
</g>
<path d="M83.5161 150V138.12H85.4781V150H83.5161ZM75.6681 150V138.12H77.6301V150H75.6681ZM76.7121 144.78V143.124H84.2901V144.78H76.7121ZM92.5882 150.234C91.8442 150.234 91.1842 150.126 90.6082 149.91C90.0322 149.682 89.5462 149.364 89.1502 148.956C88.7542 148.536 88.4542 148.038 88.2502 147.462C88.0462 146.874 87.9442 146.214 87.9442 145.482C87.9442 144.75 88.0462 144.078 88.2502 143.466C88.4542 142.842 88.7422 142.302 89.1142 141.846C89.4982 141.39 89.9662 141.036 90.5182 140.784C91.0822 140.532 91.7182 140.406 92.4262 140.406C93.0862 140.406 93.6742 140.514 94.1902 140.73C94.7182 140.946 95.1622 141.276 95.5222 141.72C95.8822 142.152 96.1522 142.698 96.3322 143.358C96.5122 144.006 96.5782 144.768 96.5302 145.644L89.2042 145.698V144.474L95.3782 144.42L94.6942 145.176C94.7662 144.456 94.7062 143.862 94.5142 143.394C94.3222 142.926 94.0462 142.578 93.6862 142.35C93.3262 142.122 92.9122 142.008 92.4442 142.008C91.9162 142.008 91.4542 142.146 91.0582 142.422C90.6742 142.686 90.3742 143.076 90.1582 143.592C89.9422 144.108 89.8342 144.726 89.8342 145.446C89.8342 146.526 90.0742 147.342 90.5542 147.894C91.0342 148.434 91.7182 148.704 92.6062 148.704C92.9782 148.704 93.2962 148.662 93.5602 148.578C93.8242 148.482 94.0462 148.362 94.2262 148.218C94.4062 148.062 94.5502 147.882 94.6582 147.678C94.7782 147.462 94.8742 147.24 94.9462 147.012L96.6562 147.408C96.5482 147.852 96.3802 148.248 96.1522 148.596C95.9362 148.932 95.6602 149.226 95.3242 149.478C94.9882 149.718 94.5922 149.904 94.1362 150.036C93.6922 150.168 93.1762 150.234 92.5882 150.234ZM101.125 150.234C100.609 150.234 100.147 150.138 99.7386 149.946C99.3306 149.742 99.0066 149.442 98.7666 149.046C98.5386 148.65 98.4246 148.158 98.4246 147.57C98.4246 147.102 98.5086 146.7 98.6766 146.364C98.8566 146.016 99.1206 145.728 99.4686 145.5C99.8286 145.26 100.285 145.068 100.837 144.924C101.389 144.768 102.043 144.636 102.799 144.528C103.219 144.468 103.561 144.408 103.825 144.348C104.101 144.288 104.299 144.192 104.419 144.06C104.551 143.928 104.617 143.73 104.617 143.466C104.617 143.058 104.473 142.71 104.185 142.422C103.909 142.122 103.459 141.972 102.835 141.972C102.487 141.972 102.139 142.032 101.791 142.152C101.455 142.272 101.161 142.47 100.909 142.746C100.669 143.01 100.507 143.37 100.423 143.826L98.6586 143.268C98.7666 142.812 98.9406 142.41 99.1806 142.062C99.4206 141.702 99.7206 141.402 100.081 141.162C100.441 140.91 100.855 140.724 101.323 140.604C101.803 140.472 102.325 140.406 102.889 140.406C103.717 140.406 104.401 140.544 104.941 140.82C105.481 141.096 105.883 141.522 106.147 142.098C106.423 142.662 106.561 143.388 106.561 144.276V146.184C106.561 146.58 106.567 147 106.579 147.444C106.603 147.876 106.627 148.314 106.651 148.758C106.687 149.19 106.729 149.604 106.777 150H104.995C104.959 149.64 104.923 149.268 104.887 148.884C104.863 148.5 104.839 148.11 104.815 147.714H104.545C104.377 148.17 104.137 148.59 103.825 148.974C103.525 149.358 103.147 149.664 102.691 149.892C102.247 150.12 101.725 150.234 101.125 150.234ZM101.809 148.722C102.061 148.722 102.313 148.68 102.565 148.596C102.829 148.512 103.087 148.386 103.339 148.218C103.603 148.038 103.843 147.81 104.059 147.534C104.287 147.258 104.485 146.928 104.653 146.544L104.635 144.852L105.103 144.942C104.899 145.122 104.641 145.26 104.329 145.356C104.029 145.452 103.699 145.53 103.339 145.59C102.979 145.638 102.619 145.698 102.259 145.77C101.911 145.83 101.587 145.92 101.287 146.04C100.999 146.148 100.765 146.304 100.585 146.508C100.417 146.712 100.333 146.994 100.333 147.354C100.333 147.798 100.471 148.14 100.747 148.38C101.023 148.608 101.377 148.722 101.809 148.722ZM109.357 150V145.122V140.64H111.049L110.959 143.88H111.265C111.373 143.148 111.541 142.524 111.769 142.008C111.997 141.492 112.309 141.102 112.705 140.838C113.101 140.562 113.593 140.424 114.181 140.424C114.301 140.424 114.433 140.43 114.577 140.442C114.721 140.454 114.883 140.49 115.063 140.55L114.973 142.602C114.793 142.53 114.607 142.482 114.415 142.458C114.223 142.422 114.049 142.404 113.893 142.404C113.413 142.404 113.005 142.542 112.669 142.818C112.333 143.082 112.051 143.454 111.823 143.934C111.607 144.402 111.439 144.948 111.319 145.572V150H109.357ZM116.938 150V140.64H118.882V150H116.938ZM117.91 139.074C117.49 139.074 117.172 138.99 116.956 138.822C116.74 138.642 116.632 138.378 116.632 138.03C116.632 137.694 116.74 137.436 116.956 137.256C117.172 137.076 117.49 136.986 117.91 136.986C118.342 136.986 118.666 137.076 118.882 137.256C119.098 137.436 119.206 137.694 119.206 138.03C119.206 138.378 119.098 138.642 118.882 138.822C118.666 138.99 118.342 139.074 117.91 139.074ZM121.776 150V144.24V140.64H123.468L123.36 143.556H123.666C123.834 142.836 124.056 142.248 124.332 141.792C124.62 141.324 124.98 140.976 125.412 140.748C125.856 140.52 126.372 140.406 126.96 140.406C128.004 140.406 128.796 140.778 129.336 141.522C129.888 142.266 130.164 143.4 130.164 144.924V150H128.184V145.122C128.184 144.078 128.028 143.316 127.716 142.836C127.404 142.344 126.936 142.098 126.312 142.098C125.772 142.098 125.31 142.272 124.926 142.62C124.554 142.956 124.266 143.4 124.062 143.952C123.858 144.504 123.744 145.104 123.72 145.752V150H121.776ZM136.471 153.204C135.463 153.204 134.635 153.126 133.987 152.97C133.351 152.814 132.883 152.58 132.583 152.268C132.283 151.956 132.133 151.572 132.133 151.116C132.133 150.564 132.349 150.114 132.781 149.766C133.213 149.406 133.867 149.178 134.743 149.082V148.722C134.095 148.734 133.603 148.668 133.267 148.524C132.943 148.368 132.781 148.128 132.781 147.804C132.781 147.468 132.943 147.186 133.267 146.958C133.603 146.718 134.143 146.508 134.887 146.328V145.986C134.155 145.962 133.591 145.734 133.195 145.302C132.799 144.87 132.601 144.318 132.601 143.646C132.601 143.034 132.763 142.5 133.087 142.044C133.423 141.576 133.909 141.216 134.545 140.964C135.193 140.7 135.973 140.568 136.885 140.568H141.403V142.152L138.505 141.72V142.08C139.225 142.212 139.765 142.44 140.125 142.764C140.485 143.088 140.665 143.526 140.665 144.078C140.665 144.57 140.509 145.008 140.197 145.392C139.897 145.776 139.453 146.076 138.865 146.292C138.277 146.496 137.557 146.598 136.705 146.598C136.549 146.598 136.381 146.592 136.201 146.58C136.021 146.568 135.757 146.538 135.409 146.49C135.121 146.67 134.887 146.838 134.707 146.994C134.539 147.15 134.455 147.288 134.455 147.408C134.455 147.528 134.527 147.624 134.671 147.696C134.827 147.768 135.019 147.816 135.247 147.84C135.475 147.864 135.691 147.876 135.895 147.876H138.199C138.439 147.876 138.745 147.9 139.117 147.948C139.489 147.984 139.861 148.08 140.233 148.236C140.605 148.392 140.917 148.638 141.169 148.974C141.421 149.298 141.547 149.754 141.547 150.342C141.547 151.014 141.355 151.56 140.971 151.98C140.587 152.4 140.017 152.706 139.261 152.898C138.505 153.102 137.575 153.204 136.471 153.204ZM136.597 151.602C137.365 151.602 137.983 151.554 138.451 151.458C138.919 151.374 139.261 151.23 139.477 151.026C139.693 150.822 139.801 150.564 139.801 150.252C139.801 149.964 139.729 149.742 139.585 149.586C139.441 149.418 139.261 149.304 139.045 149.244C138.841 149.172 138.631 149.13 138.415 149.118C138.199 149.106 138.013 149.1 137.857 149.1H135.715C135.079 149.208 134.635 149.394 134.383 149.658C134.131 149.91 134.005 150.192 134.005 150.504C134.005 150.804 134.113 151.032 134.329 151.188C134.545 151.356 134.845 151.464 135.229 151.512C135.625 151.572 136.081 151.602 136.597 151.602ZM136.723 145.446C137.419 145.446 137.941 145.296 138.289 144.996C138.649 144.684 138.829 144.276 138.829 143.772C138.829 143.232 138.649 142.794 138.289 142.458C137.929 142.11 137.395 141.936 136.687 141.936C135.991 141.936 135.457 142.104 135.085 142.44C134.725 142.776 134.545 143.202 134.545 143.718C134.545 144.066 134.629 144.372 134.797 144.636C134.965 144.888 135.205 145.086 135.517 145.23C135.841 145.374 136.243 145.446 136.723 145.446ZM153.391 150.234C152.791 150.234 152.275 150.114 151.843 149.874C151.423 149.634 151.081 149.304 150.817 148.884C150.553 148.464 150.355 147.972 150.223 147.408H149.917L149.971 150H148.279V145.392V137.31H150.241V140.28C150.241 140.58 150.223 140.904 150.187 141.252C150.151 141.588 150.103 141.936 150.043 142.296C149.995 142.644 149.941 142.992 149.881 143.34H150.223C150.367 142.8 150.565 142.314 150.817 141.882C151.081 141.438 151.423 141.084 151.843 140.82C152.263 140.556 152.785 140.424 153.409 140.424C154.189 140.424 154.861 140.634 155.425 141.054C155.989 141.462 156.421 142.038 156.721 142.782C157.033 143.514 157.189 144.372 157.189 145.356C157.189 146.316 157.039 147.162 156.739 147.894C156.451 148.626 156.025 149.202 155.461 149.622C154.897 150.03 154.207 150.234 153.391 150.234ZM152.833 148.578C153.313 148.578 153.727 148.446 154.075 148.182C154.423 147.918 154.687 147.546 154.867 147.066C155.059 146.574 155.155 146.004 155.155 145.356C155.155 144.72 155.065 144.156 154.885 143.664C154.705 143.172 154.441 142.788 154.093 142.512C153.757 142.224 153.343 142.08 152.851 142.08C152.503 142.08 152.185 142.152 151.897 142.296C151.621 142.428 151.375 142.608 151.159 142.836C150.955 143.064 150.781 143.316 150.637 143.592C150.505 143.868 150.403 144.15 150.331 144.438C150.259 144.726 150.223 144.99 150.223 145.23V145.482C150.223 145.806 150.277 146.154 150.385 146.526C150.505 146.886 150.673 147.222 150.889 147.534C151.117 147.846 151.393 148.098 151.717 148.29C152.041 148.482 152.413 148.578 152.833 148.578ZM161.763 150.234C161.247 150.234 160.785 150.138 160.377 149.946C159.969 149.742 159.645 149.442 159.405 149.046C159.177 148.65 159.063 148.158 159.063 147.57C159.063 147.102 159.147 146.7 159.315 146.364C159.495 146.016 159.759 145.728 160.107 145.5C160.467 145.26 160.923 145.068 161.475 144.924C162.027 144.768 162.681 144.636 163.437 144.528C163.857 144.468 164.199 144.408 164.463 144.348C164.739 144.288 164.937 144.192 165.057 144.06C165.189 143.928 165.255 143.73 165.255 143.466C165.255 143.058 165.111 142.71 164.823 142.422C164.547 142.122 164.097 141.972 163.473 141.972C163.125 141.972 162.777 142.032 162.429 142.152C162.093 142.272 161.799 142.47 161.547 142.746C161.307 143.01 161.145 143.37 161.061 143.826L159.297 143.268C159.405 142.812 159.579 142.41 159.819 142.062C160.059 141.702 160.359 141.402 160.719 141.162C161.079 140.91 161.493 140.724 161.961 140.604C162.441 140.472 162.963 140.406 163.527 140.406C164.355 140.406 165.039 140.544 165.579 140.82C166.119 141.096 166.521 141.522 166.785 142.098C167.061 142.662 167.199 143.388 167.199 144.276V146.184C167.199 146.58 167.205 147 167.217 147.444C167.241 147.876 167.265 148.314 167.289 148.758C167.325 149.19 167.367 149.604 167.415 150H165.633C165.597 149.64 165.561 149.268 165.525 148.884C165.501 148.5 165.477 148.11 165.453 147.714H165.183C165.015 148.17 164.775 148.59 164.463 148.974C164.163 149.358 163.785 149.664 163.329 149.892C162.885 150.12 162.363 150.234 161.763 150.234ZM162.447 148.722C162.699 148.722 162.951 148.68 163.203 148.596C163.467 148.512 163.725 148.386 163.977 148.218C164.241 148.038 164.481 147.81 164.697 147.534C164.925 147.258 165.123 146.928 165.291 146.544L165.273 144.852L165.741 144.942C165.537 145.122 165.279 145.26 164.967 145.356C164.667 145.452 164.337 145.53 163.977 145.59C163.617 145.638 163.257 145.698 162.897 145.77C162.549 145.83 162.225 145.92 161.925 146.04C161.637 146.148 161.403 146.304 161.223 146.508C161.055 146.712 160.971 146.994 160.971 147.354C160.971 147.798 161.109 148.14 161.385 148.38C161.661 148.608 162.015 148.722 162.447 148.722ZM174.1 150.234C173.296 150.234 172.6 150.108 172.012 149.856C171.436 149.604 170.962 149.256 170.59 148.812C170.218 148.368 169.942 147.858 169.762 147.282C169.582 146.706 169.492 146.088 169.492 145.428C169.492 144.72 169.588 144.066 169.78 143.466C169.972 142.854 170.254 142.32 170.626 141.864C171.01 141.396 171.484 141.036 172.048 140.784C172.612 140.532 173.266 140.406 174.01 140.406C174.742 140.406 175.378 140.532 175.918 140.784C176.47 141.024 176.92 141.372 177.268 141.828C177.616 142.272 177.844 142.794 177.952 143.394L176.116 143.952C176.08 143.604 175.978 143.28 175.81 142.98C175.642 142.68 175.402 142.446 175.09 142.278C174.778 142.098 174.4 142.008 173.956 142.008C173.536 142.008 173.17 142.092 172.858 142.26C172.546 142.416 172.288 142.65 172.084 142.962C171.88 143.262 171.724 143.616 171.616 144.024C171.52 144.432 171.472 144.882 171.472 145.374C171.472 146.046 171.562 146.634 171.742 147.138C171.934 147.63 172.228 148.014 172.624 148.29C173.02 148.554 173.518 148.686 174.118 148.686C174.622 148.686 175.036 148.596 175.36 148.416C175.684 148.236 175.936 147.996 176.116 147.696C176.296 147.384 176.416 147.024 176.476 146.616L178.222 147.03C178.15 147.522 178.006 147.972 177.79 148.38C177.574 148.776 177.292 149.112 176.944 149.388C176.596 149.664 176.182 149.874 175.702 150.018C175.234 150.162 174.7 150.234 174.1 150.234ZM180.161 150V137.292H182.087V144.474C182.531 144.234 182.951 143.958 183.347 143.646C183.755 143.322 184.127 142.986 184.463 142.638C184.811 142.29 185.111 141.948 185.363 141.612C185.627 141.264 185.831 140.94 185.975 140.64H188.243C188.027 141.096 187.751 141.552 187.415 142.008C187.091 142.452 186.719 142.872 186.299 143.268C185.879 143.652 185.417 143.988 184.913 144.276C184.421 144.552 183.905 144.744 183.365 144.852V145.086C184.037 145.014 184.613 145.068 185.093 145.248C185.573 145.428 185.987 145.698 186.335 146.058C186.683 146.418 186.989 146.838 187.253 147.318C187.529 147.786 187.787 148.266 188.027 148.758L188.531 150H186.371L186.011 149.154C185.747 148.542 185.465 148.002 185.165 147.534C184.877 147.054 184.529 146.676 184.121 146.4C183.725 146.124 183.233 145.986 182.645 145.986H182.087V150H180.161Z" fill="#F5F3FF" fill-opacity="0.68"/>
<g filter="url(#filter1_i_13896_13054)">
<path d="M4 201.025C4 189.98 12.9543 181.025 24 181.025C35.0457 181.025 44 189.98 44 201.025C44 212.071 35.0457 221.025 24 221.025C12.9543 221.025 4 212.071 4 201.025Z" fill="#22242F"/>
<mask id="mask1_13896_13054" style="mask-type:alpha" maskUnits="userSpaceOnUse" x="14" y="191" width="20" height="21">
<rect x="14" y="191.025" width="20" height="20" fill="#D9D9D9"/>
</mask>
<g mask="url(#mask1_13896_13054)">
<path d="M19.832 208.525C19.3737 208.525 18.9813 208.362 18.6549 208.036C18.3286 207.709 18.1654 207.317 18.1654 206.859V196.025C17.9293 196.025 17.7313 195.946 17.5716 195.786C17.4119 195.626 17.332 195.428 17.332 195.192C17.332 194.956 17.4119 194.758 17.5716 194.598C17.7313 194.439 17.9293 194.359 18.1654 194.359H21.4987C21.4987 194.123 21.5786 193.925 21.7383 193.765C21.898 193.605 22.0959 193.525 22.332 193.525H25.6654C25.9015 193.525 26.0994 193.605 26.2591 193.765C26.4188 193.925 26.4987 194.123 26.4987 194.359H29.832C30.0681 194.359 30.2661 194.439 30.4258 194.598C30.5855 194.758 30.6654 194.956 30.6654 195.192C30.6654 195.428 30.5855 195.626 30.4258 195.786C30.2661 195.946 30.0681 196.025 29.832 196.025V206.859C29.832 207.317 29.6688 207.709 29.3424 208.036C29.0161 208.362 28.6237 208.525 28.1654 208.525H19.832ZM22.9258 204.952C23.0855 204.793 23.1654 204.595 23.1654 204.359V198.525C23.1654 198.289 23.0855 198.091 22.9258 197.932C22.7661 197.772 22.5681 197.692 22.332 197.692C22.0959 197.692 21.898 197.772 21.7383 197.932C21.5786 198.091 21.4987 198.289 21.4987 198.525V204.359C21.4987 204.595 21.5786 204.793 21.7383 204.952C21.898 205.112 22.0959 205.192 22.332 205.192C22.5681 205.192 22.7661 205.112 22.9258 204.952ZM26.2591 204.952C26.4188 204.793 26.4987 204.595 26.4987 204.359V198.525C26.4987 198.289 26.4188 198.091 26.2591 197.932C26.0994 197.772 25.9015 197.692 25.6654 197.692C25.4293 197.692 25.2313 197.772 25.0716 197.932C24.9119 198.091 24.832 198.289 24.832 198.525V204.359C24.832 204.595 24.9119 204.793 25.0716 204.952C25.2313 205.112 25.4293 205.192 25.6654 205.192C25.9015 205.192 26.0994 205.112 26.2591 204.952Z" fill="#FF6B6B"/>
</g>
</g>
<rect x="66" y="183.74" width="6.23271" height="34.5704" rx="3.11635" fill="#FB7E5B"/>
<rect x="76.6436" y="187.222" width="6.23271" height="27.6065" rx="3.11635" fill="#FB7E5B"/>
<rect x="87.2871" y="179.161" width="6.23271" height="43.7285" rx="3.11635" fill="#FB7E5B"/>
<rect x="97.9297" y="179.161" width="6.23271" height="43.7285" rx="3.11635" fill="#FB7E5B"/>
<rect x="108.573" y="187.222" width="6.23271" height="27.6065" rx="3.11635" fill="#FB7E5B"/>
<rect x="119.217" y="179.161" width="6.23271" height="43.7285" rx="3.11635" fill="#FB7E5B"/>
<rect x="129.86" y="191.167" width="6.23271" height="19.7162" rx="3.11635" fill="#FB7E5B"/>
<path d="M161.812 208.851C160.867 208.851 160.008 208.665 159.234 208.293C158.46 207.922 157.794 207.395 157.237 206.714C156.695 206.033 156.277 205.204 155.982 204.229C155.688 203.253 155.541 202.162 155.541 200.954C155.541 199.236 155.812 197.78 156.354 196.588C156.896 195.38 157.639 194.467 158.584 193.848C159.544 193.213 160.635 192.895 161.858 192.895C163.143 192.895 164.25 193.221 165.179 193.871C166.108 194.521 166.82 195.45 167.316 196.658C167.827 197.85 168.082 199.267 168.082 200.908C168.082 202.115 167.935 203.215 167.641 204.206C167.347 205.181 166.921 206.017 166.364 206.714C165.806 207.395 165.141 207.922 164.366 208.293C163.608 208.665 162.756 208.851 161.812 208.851ZM161.835 206.737C162.346 206.737 162.826 206.621 163.275 206.389C163.724 206.157 164.119 205.808 164.459 205.344C164.8 204.864 165.063 204.26 165.249 203.532C165.45 202.789 165.551 201.914 165.551 200.908C165.551 199.669 165.396 198.609 165.086 197.726C164.777 196.844 164.343 196.17 163.786 195.706C163.228 195.226 162.578 194.986 161.835 194.986C161.2 194.986 160.589 195.187 160 195.589C159.427 195.977 158.963 196.604 158.607 197.471C158.251 198.322 158.073 199.452 158.073 200.861C158.073 201.852 158.166 202.719 158.351 203.462C158.537 204.19 158.8 204.802 159.141 205.297C159.482 205.777 159.876 206.141 160.325 206.389C160.79 206.621 161.293 206.737 161.835 206.737ZM172.031 208.084C171.458 208.084 171.024 207.96 170.73 207.713C170.452 207.465 170.312 207.078 170.312 206.551C170.312 206.009 170.459 205.615 170.754 205.367C171.048 205.119 171.473 204.995 172.031 204.995C172.619 204.995 173.06 205.119 173.355 205.367C173.649 205.615 173.796 206.009 173.796 206.551C173.796 207.573 173.208 208.084 172.031 208.084ZM172.031 200.35C171.458 200.35 171.024 200.227 170.73 199.979C170.452 199.731 170.312 199.344 170.312 198.818C170.312 198.276 170.459 197.881 170.754 197.633C171.048 197.385 171.473 197.262 172.031 197.262C172.619 197.262 173.06 197.385 173.355 197.633C173.649 197.881 173.796 198.276 173.796 198.818C173.796 199.84 173.208 200.35 172.031 200.35ZM177.284 208.525V197.192H175.055V194.962C175.767 194.962 176.355 194.846 176.82 194.614C177.3 194.382 177.609 193.91 177.749 193.197H179.839V208.525H177.284ZM189.368 208.851C188.423 208.851 187.564 208.665 186.79 208.293C186.016 207.922 185.35 207.395 184.793 206.714C184.251 206.033 183.833 205.204 183.539 204.229C183.244 203.253 183.097 202.162 183.097 200.954C183.097 199.236 183.368 197.78 183.91 196.588C184.452 195.38 185.195 194.467 186.14 193.848C187.1 193.213 188.191 192.895 189.414 192.895C190.699 192.895 191.806 193.221 192.735 193.871C193.664 194.521 194.377 195.45 194.872 196.658C195.383 197.85 195.639 199.267 195.639 200.908C195.639 202.115 195.491 203.215 195.197 204.206C194.903 205.181 194.477 206.017 193.92 206.714C193.363 207.395 192.697 207.922 191.923 208.293C191.164 208.665 190.312 208.851 189.368 208.851ZM189.391 206.737C189.902 206.737 190.382 206.621 190.831 206.389C191.28 206.157 191.675 205.808 192.016 205.344C192.356 204.864 192.619 204.26 192.805 203.532C193.006 202.789 193.107 201.914 193.107 200.908C193.107 199.669 192.952 198.609 192.643 197.726C192.333 196.844 191.899 196.17 191.342 195.706C190.785 195.226 190.134 194.986 189.391 194.986C188.756 194.986 188.145 195.187 187.556 195.589C186.984 195.977 186.519 196.604 186.163 197.471C185.807 198.322 185.629 199.452 185.629 200.861C185.629 201.852 185.722 202.719 185.908 203.462C186.093 204.19 186.357 204.802 186.697 205.297C187.038 205.777 187.433 206.141 187.882 206.389C188.346 206.621 188.849 206.737 189.391 206.737Z" fill="#F4F2FF"/>
<g filter="url(#filter2_i_13896_13054)">
<path d="M219.093 201.025C219.093 189.98 228.047 181.025 239.093 181.025V181.025C250.138 181.025 259.093 189.98 259.093 201.025V201.025C259.093 212.071 250.138 221.025 239.093 221.025V221.025C228.047 221.025 219.093 212.071 219.093 201.025V201.025Z" fill="#9178E6"/>
<mask id="mask2_13896_13054" style="mask-type:alpha" maskUnits="userSpaceOnUse" x="229" y="191" width="21" height="21">
<rect x="229.093" y="191.025" width="20" height="20" fill="#D9D9D9"/>
</mask>
<g mask="url(#mask2_13896_13054)">
<path d="M231.593 207.693V202.693L238.259 201.027L231.593 199.36V194.36L247.426 201.027L231.593 207.693Z" fill="#F4F2FF"/>
</g>
</g>
<defs>
<filter id="filter0_i_13896_13054" x="71.5459" y="0" width="120" height="120" filterUnits="userSpaceOnUse" color-interpolation-filters="sRGB">
<feFlood flood-opacity="0" result="BackgroundImageFix"/>
<feBlend mode="normal" in="SourceGraphic" in2="BackgroundImageFix" result="shape"/>
<feColorMatrix in="SourceAlpha" type="matrix" values="0 0 0 0 0 0 0 0 0 0 0 0 0 0 0 0 0 0 127 0" result="hardAlpha"/>
<feOffset dy="-7.79636"/>
<feComposite in2="hardAlpha" operator="arithmetic" k2="-1" k3="1"/>
<feColorMatrix type="matrix" values="0 0 0 0 0 0 0 0 0 0 0 0 0 0 0 0 0 0 0.15 0"/>
<feBlend mode="normal" in2="shape" result="effect1_innerShadow_13896_13054"/>
</filter>
<filter id="filter1_i_13896_13054" x="0" y="177.025" width="48" height="48" filterUnits="userSpaceOnUse" color-interpolation-filters="sRGB">
<feFlood flood-opacity="0" result="BackgroundImageFix"/>
<feBlend mode="normal" in="SourceGraphic" in2="BackgroundImageFix" result="shape"/>
<feColorMatrix in="SourceAlpha" type="matrix" values="0 0 0 0 0 0 0 0 0 0 0 0 0 0 0 0 0 0 127 0" result="hardAlpha"/>
<feOffset dy="-2"/>
<feComposite in2="hardAlpha" operator="arithmetic" k2="-1" k3="1"/>
<feColorMatrix type="matrix" values="0 0 0 0 0 0 0 0 0 0 0 0 0 0 0 0 0 0 0.15 0"/>
<feBlend mode="normal" in2="shape" result="effect1_innerShadow_13896_13054"/>
</filter>
<filter id="filter2_i_13896_13054" x="215.093" y="177.025" width="48" height="48" filterUnits="userSpaceOnUse" color-interpolation-filters="sRGB">
<feFlood flood-opacity="0" result="BackgroundImageFix"/>
<feBlend mode="normal" in="SourceGraphic" in2="BackgroundImageFix" result="shape"/>
<feColorMatrix in="SourceAlpha" type="matrix" values="0 0 0 0 0 0 0 0 0 0 0 0 0 0 0 0 0 0 127 0" result="hardAlpha"/>
<feOffset dy="-2"/>
<feComposite in2="hardAlpha" operator="arithmetic" k2="-1" k3="1"/>
<feColorMatrix type="matrix" values="0 0 0 0 0 0 0 0 0 0 0 0 0 0 0 0 0 0 0.15 0"/>
<feBlend mode="normal" in2="shape" result="effect1_innerShadow_13896_13054"/>
</filter>
</defs>
</svg>
