<svg width="169" height="196" viewBox="0 0 169 196" fill="none" xmlns="http://www.w3.org/2000/svg">
<g filter="url(#filter0_i_13896_13059)">
<path d="M24.5 59.9999C24.5 26.863 51.3628 0.000244141 84.4997 0.000244141C117.637 0.000244141 144.499 26.863 144.499 59.9999C144.499 93.1369 117.637 120 84.4997 120C51.3628 120 24.5 93.1369 24.5 59.9999Z" fill="#9178E6"/>
<mask id="mask0_13896_13059" style="mask-type:alpha" maskUnits="userSpaceOnUse" x="59" y="35" width="51" height="50">
<rect x="59.5" y="35" width="50" height="50" fill="#D9D9D9"/>
</mask>
<g mask="url(#mask0_13896_13059)">
<path d="M80.0732 62.3446C78.858 61.1293 78.2503 59.6536 78.2503 57.9175V45.4175C78.2503 43.6814 78.858 42.2057 80.0732 40.9904C81.2885 39.7751 82.7642 39.1675 84.5003 39.1675C86.2364 39.1675 87.7121 39.7751 88.9274 40.9904C90.1427 42.2057 90.7503 43.6814 90.7503 45.4175V57.9175C90.7503 59.6536 90.1427 61.1293 88.9274 62.3446C87.7121 63.5598 86.2364 64.1675 84.5003 64.1675C82.7642 64.1675 81.2885 63.5598 80.0732 62.3446ZM82.417 78.7508V72.3446C78.8059 71.8585 75.8198 70.2439 73.4587 67.5008C71.0975 64.7578 69.917 61.5633 69.917 57.9175H74.0837C74.0837 60.7994 75.0993 63.256 77.1305 65.2873C79.1618 67.3185 81.6184 68.3341 84.5003 68.3341C87.3823 68.3341 89.8389 67.3185 91.8701 65.2873C93.9014 63.256 94.917 60.7994 94.917 57.9175H99.0837C99.0837 61.5633 97.9031 64.7578 95.542 67.5008C93.1809 70.2439 90.1948 71.8585 86.5837 72.3446V78.7508H82.417Z" fill="#F4F2FF"/>
</g>
</g>
<path d="M27.5181 150V138.12H29.4981V150H27.5181ZM23.9541 139.812V138.12H33.0801V139.812H23.9541ZM35.9489 150.234C35.4329 150.234 34.9709 150.138 34.5629 149.946C34.1549 149.742 33.8309 149.442 33.5909 149.046C33.3629 148.65 33.2489 148.158 33.2489 147.57C33.2489 147.102 33.3329 146.7 33.5009 146.364C33.6809 146.016 33.9449 145.728 34.2929 145.5C34.6529 145.26 35.1089 145.068 35.6609 144.924C36.2129 144.768 36.8669 144.636 37.6229 144.528C38.0429 144.468 38.3849 144.408 38.6489 144.348C38.9249 144.288 39.1229 144.192 39.2429 144.06C39.3749 143.928 39.4409 143.73 39.4409 143.466C39.4409 143.058 39.2969 142.71 39.0089 142.422C38.7329 142.122 38.2829 141.972 37.6589 141.972C37.3109 141.972 36.9629 142.032 36.6149 142.152C36.2789 142.272 35.9849 142.47 35.7329 142.746C35.4929 143.01 35.3309 143.37 35.2469 143.826L33.4829 143.268C33.5909 142.812 33.7649 142.41 34.0049 142.062C34.2449 141.702 34.5449 141.402 34.9049 141.162C35.2649 140.91 35.6789 140.724 36.1469 140.604C36.6269 140.472 37.1489 140.406 37.7129 140.406C38.5409 140.406 39.2249 140.544 39.7649 140.82C40.3049 141.096 40.7069 141.522 40.9709 142.098C41.2469 142.662 41.3849 143.388 41.3849 144.276V146.184C41.3849 146.58 41.3909 147 41.4029 147.444C41.4269 147.876 41.4509 148.314 41.4749 148.758C41.5109 149.19 41.5529 149.604 41.6009 150H39.8189C39.7829 149.64 39.7469 149.268 39.7109 148.884C39.6869 148.5 39.6629 148.11 39.6389 147.714H39.3689C39.2009 148.17 38.9609 148.59 38.6489 148.974C38.3489 149.358 37.9709 149.664 37.5149 149.892C37.0709 150.12 36.5489 150.234 35.9489 150.234ZM36.6329 148.722C36.8849 148.722 37.1369 148.68 37.3889 148.596C37.6529 148.512 37.9109 148.386 38.1629 148.218C38.4269 148.038 38.6669 147.81 38.8829 147.534C39.1109 147.258 39.3089 146.928 39.4769 146.544L39.4589 144.852L39.9269 144.942C39.7229 145.122 39.4649 145.26 39.1529 145.356C38.8529 145.452 38.5229 145.53 38.1629 145.59C37.8029 145.638 37.4429 145.698 37.0829 145.77C36.7349 145.83 36.4109 145.92 36.1109 146.04C35.8229 146.148 35.5889 146.304 35.4089 146.508C35.2409 146.712 35.1569 146.994 35.1569 147.354C35.1569 147.798 35.2949 148.14 35.5709 148.38C35.8469 148.608 36.2009 148.722 36.6329 148.722ZM44.1818 152.952V145.356V140.64H45.8738L45.8198 143.106L46.1078 143.124C46.2398 142.56 46.4378 142.08 46.7018 141.684C46.9658 141.276 47.3018 140.964 47.7098 140.748C48.1298 140.52 48.6278 140.406 49.2038 140.406C50.0438 140.406 50.7518 140.616 51.3278 141.036C51.9158 141.456 52.3538 142.038 52.6418 142.782C52.9418 143.526 53.0918 144.378 53.0918 145.338C53.0918 146.274 52.9478 147.114 52.6598 147.858C52.3838 148.59 51.9638 149.172 51.3998 149.604C50.8358 150.024 50.1458 150.234 49.3298 150.234C48.6938 150.234 48.1658 150.108 47.7458 149.856C47.3258 149.592 46.9838 149.25 46.7198 148.83C46.4558 148.398 46.2518 147.924 46.1078 147.408H45.7838C45.8558 147.732 45.9158 148.068 45.9638 148.416C46.0118 148.752 46.0538 149.088 46.0898 149.424C46.1258 149.76 46.1438 150.078 46.1438 150.378V152.952H44.1818ZM48.7538 148.596C49.2458 148.596 49.6598 148.458 49.9958 148.182C50.3438 147.894 50.6078 147.504 50.7878 147.012C50.9678 146.52 51.0578 145.956 51.0578 145.32C51.0578 144.66 50.9618 144.09 50.7698 143.61C50.5898 143.13 50.3258 142.758 49.9778 142.494C49.6298 142.218 49.2158 142.08 48.7358 142.08C48.3158 142.08 47.9438 142.176 47.6198 142.368C47.2958 142.56 47.0198 142.812 46.7918 143.124C46.5758 143.424 46.4078 143.76 46.2878 144.132C46.1798 144.492 46.1258 144.846 46.1258 145.194V145.464C46.1258 145.704 46.1618 145.962 46.2338 146.238C46.3058 146.514 46.4078 146.79 46.5398 147.066C46.6838 147.342 46.8578 147.6 47.0618 147.84C47.2778 148.068 47.5238 148.254 47.7998 148.398C48.0878 148.53 48.4058 148.596 48.7538 148.596ZM63.1944 150.198C62.2704 150.198 61.5804 149.946 61.1244 149.442C60.6804 148.938 60.4584 148.164 60.4584 147.12V142.242H59.0724L59.1084 140.64H60.0084C60.3204 140.64 60.5544 140.592 60.7104 140.496C60.8664 140.388 60.9624 140.202 60.9984 139.938L61.1784 138.552H62.3484V140.64H64.9224V142.278H62.3484V147.066C62.3484 147.534 62.4564 147.87 62.6724 148.074C62.8884 148.278 63.2064 148.38 63.6264 148.38C63.8544 148.38 64.0824 148.356 64.3104 148.308C64.5504 148.248 64.7784 148.14 64.9944 147.984V149.874C64.6344 149.994 64.3044 150.078 64.0044 150.126C63.7044 150.174 63.4344 150.198 63.1944 150.198ZM71.0792 150.234C70.1792 150.234 69.3812 150.042 68.6852 149.658C67.9892 149.274 67.4432 148.716 67.0472 147.984C66.6632 147.252 66.4712 146.352 66.4712 145.284C66.4712 144.192 66.6752 143.286 67.0832 142.566C67.4912 141.846 68.0372 141.306 68.7212 140.946C69.4172 140.586 70.1972 140.406 71.0612 140.406C71.9492 140.406 72.7412 140.592 73.4372 140.964C74.1332 141.336 74.6792 141.888 75.0752 142.62C75.4832 143.352 75.6872 144.264 75.6872 145.356C75.6872 146.436 75.4832 147.342 75.0752 148.074C74.6792 148.794 74.1332 149.334 73.4372 149.694C72.7412 150.054 71.9552 150.234 71.0792 150.234ZM71.1512 148.686C71.6912 148.686 72.1532 148.56 72.5372 148.308C72.9212 148.056 73.2152 147.684 73.4192 147.192C73.6232 146.7 73.7252 146.112 73.7252 145.428C73.7252 144.72 73.6172 144.114 73.4012 143.61C73.1852 143.094 72.8732 142.698 72.4652 142.422C72.0692 142.146 71.5832 142.008 71.0072 142.008C70.4912 142.008 70.0352 142.134 69.6392 142.386C69.2552 142.626 68.9612 142.992 68.7572 143.484C68.5532 143.964 68.4512 144.552 68.4512 145.248C68.4512 146.34 68.6912 147.186 69.1712 147.786C69.6512 148.386 70.3112 148.686 71.1512 148.686ZM84.8062 150.234C84.2902 150.234 83.8282 150.138 83.4202 149.946C83.0122 149.742 82.6882 149.442 82.4482 149.046C82.2202 148.65 82.1062 148.158 82.1062 147.57C82.1062 147.102 82.1902 146.7 82.3582 146.364C82.5382 146.016 82.8022 145.728 83.1502 145.5C83.5102 145.26 83.9662 145.068 84.5182 144.924C85.0702 144.768 85.7242 144.636 86.4802 144.528C86.9002 144.468 87.2422 144.408 87.5062 144.348C87.7822 144.288 87.9802 144.192 88.1002 144.06C88.2322 143.928 88.2982 143.73 88.2982 143.466C88.2982 143.058 88.1542 142.71 87.8662 142.422C87.5902 142.122 87.1402 141.972 86.5162 141.972C86.1682 141.972 85.8202 142.032 85.4722 142.152C85.1362 142.272 84.8422 142.47 84.5902 142.746C84.3502 143.01 84.1882 143.37 84.1042 143.826L82.3402 143.268C82.4482 142.812 82.6222 142.41 82.8622 142.062C83.1022 141.702 83.4022 141.402 83.7622 141.162C84.1222 140.91 84.5362 140.724 85.0042 140.604C85.4842 140.472 86.0062 140.406 86.5702 140.406C87.3982 140.406 88.0822 140.544 88.6222 140.82C89.1622 141.096 89.5642 141.522 89.8282 142.098C90.1042 142.662 90.2422 143.388 90.2422 144.276V146.184C90.2422 146.58 90.2482 147 90.2602 147.444C90.2842 147.876 90.3082 148.314 90.3322 148.758C90.3682 149.19 90.4102 149.604 90.4582 150H88.6762C88.6402 149.64 88.6042 149.268 88.5682 148.884C88.5442 148.5 88.5202 148.11 88.4962 147.714H88.2262C88.0582 148.17 87.8182 148.59 87.5062 148.974C87.2062 149.358 86.8282 149.664 86.3722 149.892C85.9282 150.12 85.4062 150.234 84.8062 150.234ZM85.4902 148.722C85.7422 148.722 85.9942 148.68 86.2462 148.596C86.5102 148.512 86.7682 148.386 87.0202 148.218C87.2842 148.038 87.5242 147.81 87.7402 147.534C87.9682 147.258 88.1662 146.928 88.3342 146.544L88.3162 144.852L88.7842 144.942C88.5802 145.122 88.3222 145.26 88.0102 145.356C87.7102 145.452 87.3802 145.53 87.0202 145.59C86.6602 145.638 86.3002 145.698 85.9402 145.77C85.5922 145.83 85.2682 145.92 84.9682 146.04C84.6802 146.148 84.4462 146.304 84.2662 146.508C84.0982 146.712 84.0142 146.994 84.0142 147.354C84.0142 147.798 84.1522 148.14 84.4282 148.38C84.7042 148.608 85.0582 148.722 85.4902 148.722ZM93.0391 150V144.24V140.64H94.7311L94.6231 143.556H94.9291C95.0971 142.836 95.3191 142.248 95.5951 141.792C95.8831 141.324 96.2431 140.976 96.6751 140.748C97.1191 140.52 97.6351 140.406 98.2231 140.406C99.2671 140.406 100.059 140.778 100.599 141.522C101.151 142.266 101.427 143.4 101.427 144.924V150H99.4471V145.122C99.4471 144.078 99.2911 143.316 98.9791 142.836C98.6671 142.344 98.1991 142.098 97.5751 142.098C97.0351 142.098 96.5731 142.272 96.1891 142.62C95.8171 142.956 95.5291 143.4 95.3251 143.952C95.1211 144.504 95.0071 145.104 94.9831 145.752V150H93.0391ZM107.734 150.234C107.086 150.234 106.51 150.168 106.006 150.036C105.502 149.904 105.07 149.718 104.71 149.478C104.362 149.226 104.092 148.926 103.9 148.578C103.708 148.23 103.594 147.852 103.558 147.444L105.142 146.922C105.142 147.27 105.25 147.582 105.466 147.858C105.682 148.134 105.988 148.35 106.384 148.506C106.792 148.65 107.278 148.722 107.842 148.722C108.502 148.722 109.012 148.614 109.372 148.398C109.732 148.182 109.912 147.882 109.912 147.498C109.912 147.21 109.81 146.982 109.606 146.814C109.414 146.646 109.132 146.508 108.76 146.4C108.4 146.292 107.974 146.19 107.482 146.094C107.038 145.998 106.594 145.89 106.15 145.77C105.718 145.638 105.316 145.47 104.944 145.266C104.584 145.062 104.29 144.798 104.062 144.474C103.846 144.138 103.738 143.718 103.738 143.214C103.738 142.638 103.888 142.146 104.188 141.738C104.488 141.318 104.92 140.994 105.484 140.766C106.06 140.526 106.744 140.406 107.536 140.406C108.304 140.406 108.964 140.52 109.516 140.748C110.08 140.976 110.53 141.294 110.866 141.702C111.202 142.11 111.406 142.59 111.478 143.142L109.822 143.628C109.798 143.256 109.684 142.944 109.48 142.692C109.288 142.44 109.024 142.254 108.688 142.134C108.352 142.002 107.956 141.936 107.5 141.936C106.9 141.936 106.426 142.044 106.078 142.26C105.742 142.476 105.574 142.77 105.574 143.142C105.574 143.43 105.676 143.664 105.88 143.844C106.096 144.012 106.384 144.15 106.744 144.258C107.116 144.354 107.536 144.45 108.004 144.546C108.484 144.642 108.946 144.75 109.39 144.87C109.834 144.99 110.23 145.152 110.578 145.356C110.938 145.548 111.22 145.812 111.424 146.148C111.64 146.472 111.748 146.886 111.748 147.39C111.748 148.002 111.58 148.524 111.244 148.956C110.92 149.376 110.458 149.694 109.858 149.91C109.258 150.126 108.55 150.234 107.734 150.234ZM115.442 150L113.012 140.64H115.028L116.702 148.38H117.008L118.844 140.64H121.292L123.164 148.38H123.452L125.108 140.64H127.106L124.658 150H121.94L120.158 142.278H119.924L118.16 150H115.442ZM133.086 150.234C132.342 150.234 131.682 150.126 131.106 149.91C130.53 149.682 130.044 149.364 129.648 148.956C129.252 148.536 128.952 148.038 128.748 147.462C128.544 146.874 128.442 146.214 128.442 145.482C128.442 144.75 128.544 144.078 128.748 143.466C128.952 142.842 129.24 142.302 129.612 141.846C129.996 141.39 130.464 141.036 131.016 140.784C131.58 140.532 132.216 140.406 132.924 140.406C133.584 140.406 134.172 140.514 134.688 140.73C135.216 140.946 135.66 141.276 136.02 141.72C136.38 142.152 136.65 142.698 136.83 143.358C137.01 144.006 137.076 144.768 137.028 145.644L129.702 145.698V144.474L135.876 144.42L135.192 145.176C135.264 144.456 135.204 143.862 135.012 143.394C134.82 142.926 134.544 142.578 134.184 142.35C133.824 142.122 133.41 142.008 132.942 142.008C132.414 142.008 131.952 142.146 131.556 142.422C131.172 142.686 130.872 143.076 130.656 143.592C130.44 144.108 130.332 144.726 130.332 145.446C130.332 146.526 130.572 147.342 131.052 147.894C131.532 148.434 132.216 148.704 133.104 148.704C133.476 148.704 133.794 148.662 134.058 148.578C134.322 148.482 134.544 148.362 134.724 148.218C134.904 148.062 135.048 147.882 135.156 147.678C135.276 147.462 135.372 147.24 135.444 147.012L137.154 147.408C137.046 147.852 136.878 148.248 136.65 148.596C136.434 148.932 136.158 149.226 135.822 149.478C135.486 149.718 135.09 149.904 134.634 150.036C134.19 150.168 133.674 150.234 133.086 150.234ZM139.409 150V145.122V140.64H141.101L141.011 143.88H141.317C141.425 143.148 141.593 142.524 141.821 142.008C142.049 141.492 142.361 141.102 142.757 140.838C143.153 140.562 143.645 140.424 144.233 140.424C144.353 140.424 144.485 140.43 144.629 140.442C144.773 140.454 144.935 140.49 145.115 140.55L145.025 142.602C144.845 142.53 144.659 142.482 144.467 142.458C144.275 142.422 144.101 142.404 143.945 142.404C143.465 142.404 143.057 142.542 142.721 142.818C142.385 143.082 142.103 143.454 141.875 143.934C141.659 144.402 141.491 144.948 141.371 145.572V150H139.409Z" fill="#F5F3FF" fill-opacity="0.68"/>
<path d="M22.219 168.584H19.483V167.504H26.107V168.584H23.371V176H22.219V168.584ZM26.0761 170.312H27.1561V171.188H27.1801C27.2521 171.036 27.3481 170.9 27.4681 170.78C27.5881 170.652 27.7201 170.544 27.8641 170.456C28.0161 170.368 28.1801 170.3 28.3561 170.252C28.5321 170.196 28.7081 170.168 28.8841 170.168C29.0601 170.168 29.2201 170.192 29.3641 170.24L29.3161 171.404C29.2281 171.38 29.1401 171.36 29.0521 171.344C28.9641 171.328 28.8761 171.32 28.7881 171.32C28.2601 171.32 27.8561 171.468 27.5761 171.764C27.2961 172.06 27.1561 172.52 27.1561 173.144V176H26.0761V170.312ZM29.9535 170.312H31.2015L32.8935 174.752H32.9175L34.5255 170.312H35.6895L32.9895 177.224C32.8935 177.472 32.7935 177.696 32.6895 177.896C32.5855 178.104 32.4615 178.28 32.3175 178.424C32.1735 178.568 31.9975 178.68 31.7895 178.76C31.5895 178.84 31.3415 178.88 31.0455 178.88C30.8855 178.88 30.7215 178.868 30.5535 178.844C30.3935 178.828 30.2375 178.788 30.0855 178.724L30.2175 177.74C30.4335 177.828 30.6495 177.872 30.8655 177.872C31.0335 177.872 31.1735 177.848 31.2855 177.8C31.4055 177.76 31.5055 177.696 31.5855 177.608C31.6735 177.528 31.7455 177.432 31.8015 177.32C31.8575 177.208 31.9135 177.08 31.9695 176.936L32.3175 176.036L29.9535 170.312ZM43.2653 171.248H41.7173V173.828C41.7173 173.988 41.7213 174.148 41.7293 174.308C41.7373 174.46 41.7653 174.6 41.8133 174.728C41.8693 174.848 41.9493 174.948 42.0533 175.028C42.1653 175.1 42.3253 175.136 42.5333 175.136C42.6613 175.136 42.7933 175.124 42.9293 175.1C43.0653 175.076 43.1893 175.032 43.3013 174.968V175.952C43.1733 176.024 43.0053 176.072 42.7973 176.096C42.5973 176.128 42.4413 176.144 42.3293 176.144C41.9133 176.144 41.5893 176.088 41.3573 175.976C41.1333 175.856 40.9653 175.704 40.8533 175.52C40.7493 175.336 40.6853 175.132 40.6613 174.908C40.6453 174.676 40.6373 174.444 40.6373 174.212V171.248H39.3893V170.312H40.6373V168.716H41.7173V170.312H43.2653V171.248ZM45.6547 173.156C45.6547 173.444 45.6987 173.712 45.7867 173.96C45.8747 174.2 45.9987 174.408 46.1587 174.584C46.3187 174.752 46.5147 174.888 46.7467 174.992C46.9787 175.088 47.2387 175.136 47.5267 175.136C47.8147 175.136 48.0747 175.088 48.3067 174.992C48.5387 174.888 48.7347 174.752 48.8947 174.584C49.0547 174.408 49.1787 174.2 49.2667 173.96C49.3547 173.712 49.3987 173.444 49.3987 173.156C49.3987 172.868 49.3547 172.604 49.2667 172.364C49.1787 172.116 49.0547 171.908 48.8947 171.74C48.7347 171.564 48.5387 171.428 48.3067 171.332C48.0747 171.228 47.8147 171.176 47.5267 171.176C47.2387 171.176 46.9787 171.228 46.7467 171.332C46.5147 171.428 46.3187 171.564 46.1587 171.74C45.9987 171.908 45.8747 172.116 45.7867 172.364C45.6987 172.604 45.6547 172.868 45.6547 173.156ZM44.5027 173.156C44.5027 172.74 44.5787 172.352 44.7307 171.992C44.8907 171.632 45.1067 171.316 45.3787 171.044C45.6507 170.772 45.9707 170.56 46.3387 170.408C46.7067 170.248 47.1027 170.168 47.5267 170.168C47.9507 170.168 48.3467 170.248 48.7147 170.408C49.0827 170.56 49.4027 170.772 49.6747 171.044C49.9467 171.316 50.1587 171.632 50.3107 171.992C50.4707 172.352 50.5507 172.74 50.5507 173.156C50.5507 173.572 50.4707 173.964 50.3107 174.332C50.1587 174.692 49.9467 175.008 49.6747 175.28C49.4027 175.544 49.0827 175.756 48.7147 175.916C48.3467 176.068 47.9507 176.144 47.5267 176.144C47.1027 176.144 46.7067 176.068 46.3387 175.916C45.9707 175.756 45.6507 175.544 45.3787 175.28C45.1067 175.008 44.8907 174.692 44.7307 174.332C44.5787 173.964 44.5027 173.572 44.5027 173.156ZM61.1836 175.952C61.1836 176.384 61.1076 176.776 60.9556 177.128C60.8116 177.488 60.6036 177.796 60.3316 178.052C60.0596 178.316 59.7316 178.52 59.3476 178.664C58.9636 178.808 58.5396 178.88 58.0756 178.88C57.5316 178.88 57.0316 178.804 56.5756 178.652C56.1276 178.5 55.6996 178.236 55.2916 177.86L56.0236 176.948C56.3036 177.252 56.6076 177.48 56.9356 177.632C57.2636 177.792 57.6356 177.872 58.0516 177.872C58.4516 177.872 58.7836 177.812 59.0476 177.692C59.3116 177.58 59.5196 177.432 59.6716 177.248C59.8316 177.064 59.9436 176.852 60.0076 176.612C60.0716 176.38 60.1036 176.144 60.1036 175.904V175.064H60.0676C59.8596 175.408 59.5756 175.664 59.2156 175.832C58.8636 175.992 58.4916 176.072 58.0996 176.072C57.6836 176.072 57.2956 176 56.9356 175.856C56.5836 175.704 56.2796 175.5 56.0236 175.244C55.7676 174.98 55.5676 174.672 55.4236 174.32C55.2796 173.96 55.2076 173.572 55.2076 173.156C55.2076 172.74 55.2756 172.352 55.4116 171.992C55.5476 171.624 55.7396 171.304 55.9876 171.032C56.2436 170.76 56.5476 170.548 56.8996 170.396C57.2596 170.244 57.6596 170.168 58.0996 170.168C58.4836 170.168 58.8556 170.252 59.2156 170.42C59.5836 170.588 59.8716 170.824 60.0796 171.128H60.1036V170.312H61.1836V175.952ZM58.2316 171.176C57.9436 171.176 57.6836 171.228 57.4516 171.332C57.2196 171.428 57.0236 171.564 56.8636 171.74C56.7036 171.908 56.5796 172.116 56.4916 172.364C56.4036 172.604 56.3596 172.868 56.3596 173.156C56.3596 173.732 56.5276 174.196 56.8636 174.548C57.1996 174.892 57.6556 175.064 58.2316 175.064C58.8076 175.064 59.2636 174.892 59.5996 174.548C59.9356 174.196 60.1036 173.732 60.1036 173.156C60.1036 172.868 60.0596 172.604 59.9716 172.364C59.8836 172.116 59.7596 171.908 59.5996 171.74C59.4396 171.564 59.2436 171.428 59.0116 171.332C58.7796 171.228 58.5196 171.176 58.2316 171.176ZM63.8155 173.156C63.8155 173.444 63.8595 173.712 63.9475 173.96C64.0355 174.2 64.1595 174.408 64.3195 174.584C64.4795 174.752 64.6755 174.888 64.9075 174.992C65.1395 175.088 65.3995 175.136 65.6875 175.136C65.9755 175.136 66.2355 175.088 66.4675 174.992C66.6995 174.888 66.8955 174.752 67.0555 174.584C67.2155 174.408 67.3395 174.2 67.4275 173.96C67.5155 173.712 67.5595 173.444 67.5595 173.156C67.5595 172.868 67.5155 172.604 67.4275 172.364C67.3395 172.116 67.2155 171.908 67.0555 171.74C66.8955 171.564 66.6995 171.428 66.4675 171.332C66.2355 171.228 65.9755 171.176 65.6875 171.176C65.3995 171.176 65.1395 171.228 64.9075 171.332C64.6755 171.428 64.4795 171.564 64.3195 171.74C64.1595 171.908 64.0355 172.116 63.9475 172.364C63.8595 172.604 63.8155 172.868 63.8155 173.156ZM62.6635 173.156C62.6635 172.74 62.7395 172.352 62.8915 171.992C63.0515 171.632 63.2675 171.316 63.5395 171.044C63.8115 170.772 64.1315 170.56 64.4995 170.408C64.8675 170.248 65.2635 170.168 65.6875 170.168C66.1115 170.168 66.5075 170.248 66.8755 170.408C67.2435 170.56 67.5635 170.772 67.8355 171.044C68.1075 171.316 68.3195 171.632 68.4715 171.992C68.6315 172.352 68.7115 172.74 68.7115 173.156C68.7115 173.572 68.6315 173.964 68.4715 174.332C68.3195 174.692 68.1075 175.008 67.8355 175.28C67.5635 175.544 67.2435 175.756 66.8755 175.916C66.5075 176.068 66.1115 176.144 65.6875 176.144C65.2635 176.144 64.8675 176.068 64.4995 175.916C64.1315 175.756 63.8115 175.544 63.5395 175.28C63.2675 175.008 63.0515 174.692 62.8915 174.332C62.7395 173.964 62.6635 173.572 62.6635 173.156ZM76.6924 171.248H75.1444V173.828C75.1444 173.988 75.1484 174.148 75.1564 174.308C75.1644 174.46 75.1924 174.6 75.2404 174.728C75.2964 174.848 75.3764 174.948 75.4804 175.028C75.5924 175.1 75.7524 175.136 75.9604 175.136C76.0884 175.136 76.2204 175.124 76.3564 175.1C76.4924 175.076 76.6164 175.032 76.7284 174.968V175.952C76.6004 176.024 76.4324 176.072 76.2244 176.096C76.0244 176.128 75.8684 176.144 75.7564 176.144C75.3404 176.144 75.0164 176.088 74.7844 175.976C74.5604 175.856 74.3924 175.704 74.2804 175.52C74.1764 175.336 74.1124 175.132 74.0884 174.908C74.0724 174.676 74.0644 174.444 74.0644 174.212V171.248H72.8164V170.312H74.0644V168.716H75.1444V170.312H76.6924V171.248ZM79.0818 173.156C79.0818 173.444 79.1258 173.712 79.2138 173.96C79.3018 174.2 79.4258 174.408 79.5858 174.584C79.7458 174.752 79.9418 174.888 80.1738 174.992C80.4058 175.088 80.6658 175.136 80.9538 175.136C81.2418 175.136 81.5018 175.088 81.7338 174.992C81.9658 174.888 82.1618 174.752 82.3218 174.584C82.4818 174.408 82.6058 174.2 82.6938 173.96C82.7818 173.712 82.8258 173.444 82.8258 173.156C82.8258 172.868 82.7818 172.604 82.6938 172.364C82.6058 172.116 82.4818 171.908 82.3218 171.74C82.1618 171.564 81.9658 171.428 81.7338 171.332C81.5018 171.228 81.2418 171.176 80.9538 171.176C80.6658 171.176 80.4058 171.228 80.1738 171.332C79.9418 171.428 79.7458 171.564 79.5858 171.74C79.4258 171.908 79.3018 172.116 79.2138 172.364C79.1258 172.604 79.0818 172.868 79.0818 173.156ZM77.9298 173.156C77.9298 172.74 78.0058 172.352 78.1578 171.992C78.3178 171.632 78.5338 171.316 78.8058 171.044C79.0778 170.772 79.3978 170.56 79.7658 170.408C80.1338 170.248 80.5298 170.168 80.9538 170.168C81.3778 170.168 81.7738 170.248 82.1418 170.408C82.5098 170.56 82.8298 170.772 83.1018 171.044C83.3738 171.316 83.5858 171.632 83.7378 171.992C83.8978 172.352 83.9778 172.74 83.9778 173.156C83.9778 173.572 83.8978 173.964 83.7378 174.332C83.5858 174.692 83.3738 175.008 83.1018 175.28C82.8298 175.544 82.5098 175.756 82.1418 175.916C81.7738 176.068 81.3778 176.144 80.9538 176.144C80.5298 176.144 80.1338 176.068 79.7658 175.916C79.3978 175.756 79.0778 175.544 78.8058 175.28C78.5338 175.008 78.3178 174.692 78.1578 174.332C78.0058 173.964 77.9298 173.572 77.9298 173.156ZM94.6106 178.736H93.5306V175.184H93.5066C93.3146 175.48 93.0386 175.716 92.6786 175.892C92.3186 176.06 91.9346 176.144 91.5266 176.144C91.0866 176.144 90.6866 176.068 90.3266 175.916C89.9746 175.764 89.6706 175.556 89.4146 175.292C89.1666 175.02 88.9746 174.704 88.8386 174.344C88.7026 173.976 88.6346 173.58 88.6346 173.156C88.6346 172.74 88.7026 172.352 88.8386 171.992C88.9746 171.624 89.1666 171.304 89.4146 171.032C89.6706 170.76 89.9746 170.548 90.3266 170.396C90.6866 170.244 91.0866 170.168 91.5266 170.168C91.9106 170.168 92.2826 170.252 92.6426 170.42C93.0106 170.588 93.2986 170.824 93.5066 171.128H93.5306V170.312H94.6106V178.736ZM91.6586 171.176C91.3706 171.176 91.1106 171.228 90.8786 171.332C90.6466 171.428 90.4506 171.564 90.2906 171.74C90.1306 171.908 90.0066 172.116 89.9186 172.364C89.8306 172.604 89.7866 172.868 89.7866 173.156C89.7866 173.444 89.8306 173.712 89.9186 173.96C90.0066 174.2 90.1306 174.408 90.2906 174.584C90.4506 174.752 90.6466 174.888 90.8786 174.992C91.1106 175.088 91.3706 175.136 91.6586 175.136C91.9466 175.136 92.2066 175.088 92.4386 174.992C92.6706 174.888 92.8666 174.752 93.0266 174.584C93.1866 174.408 93.3106 174.2 93.3986 173.96C93.4866 173.712 93.5306 173.444 93.5306 173.156C93.5306 172.868 93.4866 172.604 93.3986 172.364C93.3106 172.116 93.1866 171.908 93.0266 171.74C92.8666 171.564 92.6706 171.428 92.4386 171.332C92.2066 171.228 91.9466 171.176 91.6586 171.176ZM101.407 176H100.327V175.124H100.303C100.167 175.428 99.9305 175.676 99.5945 175.868C99.2585 176.052 98.8705 176.144 98.4305 176.144C98.1505 176.144 97.8865 176.1 97.6385 176.012C97.3905 175.932 97.1705 175.804 96.9785 175.628C96.7945 175.452 96.6465 175.228 96.5345 174.956C96.4225 174.676 96.3665 174.348 96.3665 173.972V170.312H97.4465V173.672C97.4465 173.936 97.4825 174.164 97.5545 174.356C97.6265 174.54 97.7225 174.692 97.8425 174.812C97.9625 174.924 98.0985 175.008 98.2505 175.064C98.4105 175.112 98.5745 175.136 98.7425 175.136C98.9665 175.136 99.1745 175.1 99.3665 175.028C99.5585 174.956 99.7265 174.844 99.8705 174.692C100.015 174.532 100.127 174.332 100.207 174.092C100.287 173.852 100.327 173.568 100.327 173.24V170.312H101.407V176ZM103.239 170.312H104.319V176H103.239V170.312ZM102.987 168.272C102.987 168.056 103.063 167.872 103.215 167.72C103.375 167.56 103.563 167.48 103.779 167.48C103.995 167.48 104.179 167.56 104.331 167.72C104.491 167.872 104.571 168.056 104.571 168.272C104.571 168.488 104.491 168.676 104.331 168.836C104.179 168.988 103.995 169.064 103.779 169.064C103.563 169.064 103.375 168.988 103.215 168.836C103.063 168.676 102.987 168.488 102.987 168.272ZM106.973 173.552C106.973 173.8 107.025 174.028 107.129 174.236C107.241 174.436 107.385 174.608 107.561 174.752C107.737 174.896 107.941 175.008 108.173 175.088C108.405 175.168 108.645 175.208 108.893 175.208C109.229 175.208 109.521 175.132 109.769 174.98C110.017 174.82 110.245 174.612 110.453 174.356L111.269 174.98C110.669 175.756 109.829 176.144 108.749 176.144C108.301 176.144 107.893 176.068 107.525 175.916C107.165 175.764 106.857 175.556 106.601 175.292C106.353 175.02 106.161 174.704 106.025 174.344C105.889 173.976 105.821 173.58 105.821 173.156C105.821 172.732 105.893 172.34 106.037 171.98C106.189 171.612 106.393 171.296 106.649 171.032C106.913 170.76 107.225 170.548 107.585 170.396C107.945 170.244 108.337 170.168 108.761 170.168C109.265 170.168 109.689 170.256 110.033 170.432C110.385 170.608 110.673 170.84 110.897 171.128C111.121 171.408 111.281 171.728 111.377 172.088C111.481 172.44 111.533 172.8 111.533 173.168V173.552H106.973ZM110.381 172.688C110.373 172.448 110.333 172.228 110.261 172.028C110.197 171.828 110.097 171.656 109.961 171.512C109.825 171.36 109.653 171.244 109.445 171.164C109.245 171.076 109.009 171.032 108.737 171.032C108.473 171.032 108.229 171.084 108.005 171.188C107.789 171.284 107.605 171.412 107.453 171.572C107.301 171.732 107.181 171.912 107.093 172.112C107.013 172.304 106.973 172.496 106.973 172.688H110.381ZM115.993 171.248H114.445V173.828C114.445 173.988 114.449 174.148 114.457 174.308C114.465 174.46 114.493 174.6 114.541 174.728C114.597 174.848 114.677 174.948 114.781 175.028C114.893 175.1 115.053 175.136 115.261 175.136C115.389 175.136 115.521 175.124 115.657 175.1C115.793 175.076 115.917 175.032 116.029 174.968V175.952C115.901 176.024 115.733 176.072 115.525 176.096C115.325 176.128 115.169 176.144 115.057 176.144C114.641 176.144 114.317 176.088 114.085 175.976C113.861 175.856 113.693 175.704 113.581 175.52C113.477 175.336 113.413 175.132 113.389 174.908C113.373 174.676 113.365 174.444 113.365 174.212V171.248H112.117V170.312H113.365V168.716H114.445V170.312H115.993V171.248ZM120.967 170.312H122.047V171.128H122.071C122.279 170.824 122.563 170.588 122.923 170.42C123.291 170.252 123.667 170.168 124.051 170.168C124.491 170.168 124.887 170.244 125.239 170.396C125.599 170.548 125.903 170.76 126.151 171.032C126.407 171.304 126.603 171.624 126.739 171.992C126.875 172.352 126.943 172.74 126.943 173.156C126.943 173.58 126.875 173.976 126.739 174.344C126.603 174.704 126.407 175.02 126.151 175.292C125.903 175.556 125.599 175.764 125.239 175.916C124.887 176.068 124.491 176.144 124.051 176.144C123.643 176.144 123.259 176.06 122.899 175.892C122.539 175.716 122.263 175.48 122.071 175.184H122.047V179.384H120.967V170.312ZM123.919 171.176C123.631 171.176 123.371 171.228 123.139 171.332C122.907 171.428 122.711 171.564 122.551 171.74C122.391 171.908 122.267 172.116 122.179 172.364C122.091 172.604 122.047 172.868 122.047 173.156C122.047 173.444 122.091 173.712 122.179 173.96C122.267 174.2 122.391 174.408 122.551 174.584C122.711 174.752 122.907 174.888 123.139 174.992C123.371 175.088 123.631 175.136 123.919 175.136C124.207 175.136 124.467 175.088 124.699 174.992C124.931 174.888 125.127 174.752 125.287 174.584C125.447 174.408 125.571 174.2 125.659 173.96C125.747 173.712 125.791 173.444 125.791 173.156C125.791 172.868 125.747 172.604 125.659 172.364C125.571 172.116 125.447 171.908 125.287 171.74C125.127 171.564 124.931 171.428 124.699 171.332C124.467 171.228 124.207 171.176 123.919 171.176ZM128.506 166.928H129.586V176H128.506V166.928ZM131.449 171.008C131.753 170.728 132.105 170.52 132.505 170.384C132.905 170.24 133.305 170.168 133.705 170.168C134.121 170.168 134.477 170.22 134.773 170.324C135.077 170.428 135.325 170.568 135.517 170.744C135.709 170.92 135.849 171.124 135.937 171.356C136.033 171.58 136.081 171.816 136.081 172.064V174.968C136.081 175.168 136.085 175.352 136.093 175.52C136.101 175.688 136.113 175.848 136.129 176H135.169C135.145 175.712 135.133 175.424 135.133 175.136H135.109C134.869 175.504 134.585 175.764 134.257 175.916C133.929 176.068 133.549 176.144 133.117 176.144C132.853 176.144 132.601 176.108 132.361 176.036C132.121 175.964 131.909 175.856 131.725 175.712C131.549 175.568 131.409 175.392 131.305 175.184C131.201 174.968 131.149 174.72 131.149 174.44C131.149 174.072 131.229 173.764 131.389 173.516C131.557 173.268 131.781 173.068 132.061 172.916C132.349 172.756 132.681 172.644 133.057 172.58C133.441 172.508 133.849 172.472 134.281 172.472H135.073V172.232C135.073 172.088 135.045 171.944 134.989 171.8C134.933 171.656 134.849 171.528 134.737 171.416C134.625 171.296 134.485 171.204 134.317 171.14C134.149 171.068 133.949 171.032 133.717 171.032C133.509 171.032 133.325 171.052 133.165 171.092C133.013 171.132 132.873 171.184 132.745 171.248C132.617 171.304 132.501 171.372 132.397 171.452C132.293 171.532 132.193 171.608 132.097 171.68L131.449 171.008ZM134.497 173.264C134.241 173.264 133.977 173.28 133.705 173.312C133.441 173.336 133.197 173.388 132.973 173.468C132.757 173.548 132.577 173.66 132.433 173.804C132.297 173.948 132.229 174.132 132.229 174.356C132.229 174.684 132.337 174.92 132.553 175.064C132.777 175.208 133.077 175.28 133.453 175.28C133.749 175.28 134.001 175.232 134.209 175.136C134.417 175.032 134.585 174.9 134.713 174.74C134.841 174.58 134.933 174.404 134.989 174.212C135.045 174.012 135.073 173.816 135.073 173.624V173.264H134.497ZM141.836 171.824C141.636 171.616 141.424 171.46 141.2 171.356C140.984 171.244 140.724 171.188 140.42 171.188C140.124 171.188 139.864 171.244 139.64 171.356C139.424 171.46 139.24 171.608 139.088 171.8C138.944 171.984 138.832 172.2 138.752 172.448C138.68 172.688 138.644 172.94 138.644 173.204C138.644 173.468 138.688 173.72 138.776 173.96C138.864 174.192 138.988 174.396 139.148 174.572C139.308 174.748 139.5 174.888 139.724 174.992C139.948 175.088 140.2 175.136 140.48 175.136C140.784 175.136 141.044 175.084 141.26 174.98C141.476 174.868 141.676 174.708 141.86 174.5L142.628 175.268C142.348 175.58 142.02 175.804 141.644 175.94C141.276 176.076 140.884 176.144 140.468 176.144C140.028 176.144 139.624 176.072 139.256 175.928C138.896 175.784 138.584 175.584 138.32 175.328C138.056 175.064 137.852 174.752 137.708 174.392C137.564 174.024 137.492 173.62 137.492 173.18C137.492 172.74 137.564 172.336 137.708 171.968C137.852 171.6 138.052 171.284 138.308 171.02C138.572 170.756 138.884 170.552 139.244 170.408C139.612 170.256 140.02 170.18 140.468 170.18C140.884 170.18 141.28 170.256 141.656 170.408C142.04 170.552 142.372 170.776 142.652 171.08L141.836 171.824ZM144.493 173.552C144.493 173.8 144.545 174.028 144.649 174.236C144.761 174.436 144.905 174.608 145.081 174.752C145.257 174.896 145.461 175.008 145.693 175.088C145.925 175.168 146.165 175.208 146.413 175.208C146.749 175.208 147.041 175.132 147.289 174.98C147.537 174.82 147.765 174.612 147.973 174.356L148.789 174.98C148.189 175.756 147.349 176.144 146.269 176.144C145.821 176.144 145.413 176.068 145.045 175.916C144.685 175.764 144.377 175.556 144.121 175.292C143.873 175.02 143.681 174.704 143.545 174.344C143.409 173.976 143.341 173.58 143.341 173.156C143.341 172.732 143.413 172.34 143.557 171.98C143.709 171.612 143.913 171.296 144.169 171.032C144.433 170.76 144.745 170.548 145.105 170.396C145.465 170.244 145.857 170.168 146.281 170.168C146.785 170.168 147.209 170.256 147.553 170.432C147.905 170.608 148.193 170.84 148.417 171.128C148.641 171.408 148.801 171.728 148.897 172.088C149.001 172.44 149.053 172.8 149.053 173.168V173.552H144.493ZM147.901 172.688C147.893 172.448 147.853 172.228 147.781 172.028C147.717 171.828 147.617 171.656 147.481 171.512C147.345 171.36 147.173 171.244 146.965 171.164C146.765 171.076 146.529 171.032 146.257 171.032C145.993 171.032 145.749 171.084 145.525 171.188C145.309 171.284 145.125 171.412 144.973 171.572C144.821 171.732 144.701 171.912 144.613 172.112C144.533 172.304 144.493 172.496 144.493 172.688H147.901ZM27.2475 187.248H26.0235V186.312H27.2475V185.04C27.2475 184.28 27.3915 183.716 27.6795 183.348C27.9755 182.972 28.4795 182.784 29.1915 182.784C29.3115 182.784 29.4355 182.788 29.5635 182.796C29.6995 182.804 29.8435 182.828 29.9955 182.868L29.8755 183.828C29.7715 183.788 29.6715 183.76 29.5755 183.744C29.4795 183.728 29.3755 183.72 29.2635 183.72C29.0635 183.72 28.9035 183.752 28.7835 183.816C28.6635 183.872 28.5675 183.956 28.4955 184.068C28.4315 184.18 28.3875 184.316 28.3635 184.476C28.3475 184.628 28.3395 184.804 28.3395 185.004V186.312H29.6235V187.248H28.3275V192H27.2475V187.248ZM31.8196 189.156C31.8196 189.444 31.8636 189.712 31.9516 189.96C32.0396 190.2 32.1636 190.408 32.3236 190.584C32.4836 190.752 32.6796 190.888 32.9116 190.992C33.1436 191.088 33.4036 191.136 33.6916 191.136C33.9796 191.136 34.2396 191.088 34.4716 190.992C34.7036 190.888 34.8996 190.752 35.0596 190.584C35.2196 190.408 35.3436 190.2 35.4316 189.96C35.5196 189.712 35.5636 189.444 35.5636 189.156C35.5636 188.868 35.5196 188.604 35.4316 188.364C35.3436 188.116 35.2196 187.908 35.0596 187.74C34.8996 187.564 34.7036 187.428 34.4716 187.332C34.2396 187.228 33.9796 187.176 33.6916 187.176C33.4036 187.176 33.1436 187.228 32.9116 187.332C32.6796 187.428 32.4836 187.564 32.3236 187.74C32.1636 187.908 32.0396 188.116 31.9516 188.364C31.8636 188.604 31.8196 188.868 31.8196 189.156ZM30.6676 189.156C30.6676 188.74 30.7436 188.352 30.8956 187.992C31.0556 187.632 31.2716 187.316 31.5436 187.044C31.8156 186.772 32.1356 186.56 32.5036 186.408C32.8716 186.248 33.2676 186.168 33.6916 186.168C34.1156 186.168 34.5116 186.248 34.8796 186.408C35.2476 186.56 35.5676 186.772 35.8396 187.044C36.1116 187.316 36.3236 187.632 36.4756 187.992C36.6356 188.352 36.7156 188.74 36.7156 189.156C36.7156 189.572 36.6356 189.964 36.4756 190.332C36.3236 190.692 36.1116 191.008 35.8396 191.28C35.5676 191.544 35.2476 191.756 34.8796 191.916C34.5116 192.068 34.1156 192.144 33.6916 192.144C33.2676 192.144 32.8716 192.068 32.5036 191.916C32.1356 191.756 31.8156 191.544 31.5436 191.28C31.2716 191.008 31.0556 190.692 30.8956 190.332C30.7436 189.964 30.6676 189.572 30.6676 189.156ZM38.1886 186.312H39.2686V187.188H39.2926C39.3646 187.036 39.4606 186.9 39.5806 186.78C39.7006 186.652 39.8326 186.544 39.9766 186.456C40.1286 186.368 40.2926 186.3 40.4686 186.252C40.6446 186.196 40.8206 186.168 40.9966 186.168C41.1726 186.168 41.3326 186.192 41.4766 186.24L41.4286 187.404C41.3406 187.38 41.2526 187.36 41.1646 187.344C41.0766 187.328 40.9886 187.32 40.9006 187.32C40.3726 187.32 39.9686 187.468 39.6886 187.764C39.4086 188.06 39.2686 188.52 39.2686 189.144V192H38.1886V186.312ZM46.2098 182.928H47.2898V187.128H47.3138C47.5058 186.832 47.7818 186.6 48.1418 186.432C48.5018 186.256 48.8858 186.168 49.2938 186.168C49.7338 186.168 50.1298 186.244 50.4818 186.396C50.8418 186.548 51.1458 186.76 51.3938 187.032C51.6498 187.296 51.8458 187.612 51.9818 187.98C52.1178 188.34 52.1858 188.732 52.1858 189.156C52.1858 189.58 52.1178 189.972 51.9818 190.332C51.8458 190.692 51.6498 191.008 51.3938 191.28C51.1458 191.552 50.8418 191.764 50.4818 191.916C50.1298 192.068 49.7338 192.144 49.2938 192.144C48.9098 192.144 48.5338 192.06 48.1658 191.892C47.8058 191.724 47.5218 191.488 47.3138 191.184H47.2898V192H46.2098V182.928ZM49.1618 191.136C49.4498 191.136 49.7098 191.088 49.9418 190.992C50.1738 190.888 50.3698 190.752 50.5298 190.584C50.6898 190.408 50.8138 190.2 50.9018 189.96C50.9898 189.712 51.0338 189.444 51.0338 189.156C51.0338 188.868 50.9898 188.604 50.9018 188.364C50.8138 188.116 50.6898 187.908 50.5298 187.74C50.3698 187.564 50.1738 187.428 49.9418 187.332C49.7098 187.228 49.4498 187.176 49.1618 187.176C48.8738 187.176 48.6138 187.228 48.3818 187.332C48.1498 187.428 47.9538 187.564 47.7938 187.74C47.6338 187.908 47.5098 188.116 47.4218 188.364C47.3338 188.604 47.2898 188.868 47.2898 189.156C47.2898 189.444 47.3338 189.712 47.4218 189.96C47.5098 190.2 47.6338 190.408 47.7938 190.584C47.9538 190.752 48.1498 190.888 48.3818 190.992C48.6138 191.088 48.8738 191.136 49.1618 191.136ZM54.4818 189.552C54.4818 189.8 54.5338 190.028 54.6378 190.236C54.7498 190.436 54.8938 190.608 55.0698 190.752C55.2458 190.896 55.4498 191.008 55.6818 191.088C55.9138 191.168 56.1538 191.208 56.4018 191.208C56.7378 191.208 57.0298 191.132 57.2778 190.98C57.5258 190.82 57.7538 190.612 57.9618 190.356L58.7778 190.98C58.1778 191.756 57.3378 192.144 56.2578 192.144C55.8098 192.144 55.4018 192.068 55.0338 191.916C54.6738 191.764 54.3658 191.556 54.1098 191.292C53.8618 191.02 53.6698 190.704 53.5338 190.344C53.3978 189.976 53.3298 189.58 53.3298 189.156C53.3298 188.732 53.4018 188.34 53.5458 187.98C53.6978 187.612 53.9018 187.296 54.1578 187.032C54.4218 186.76 54.7338 186.548 55.0938 186.396C55.4538 186.244 55.8458 186.168 56.2698 186.168C56.7738 186.168 57.1978 186.256 57.5418 186.432C57.8938 186.608 58.1818 186.84 58.4058 187.128C58.6298 187.408 58.7898 187.728 58.8858 188.088C58.9898 188.44 59.0418 188.8 59.0418 189.168V189.552H54.4818ZM57.8898 188.688C57.8818 188.448 57.8418 188.228 57.7698 188.028C57.7058 187.828 57.6058 187.656 57.4698 187.512C57.3338 187.36 57.1618 187.244 56.9538 187.164C56.7538 187.076 56.5178 187.032 56.2458 187.032C55.9818 187.032 55.7378 187.084 55.5138 187.188C55.2978 187.284 55.1138 187.412 54.9618 187.572C54.8098 187.732 54.6898 187.912 54.6018 188.112C54.5218 188.304 54.4818 188.496 54.4818 188.688H57.8898ZM63.5017 187.248H61.9537V189.828C61.9537 189.988 61.9577 190.148 61.9657 190.308C61.9737 190.46 62.0017 190.6 62.0497 190.728C62.1057 190.848 62.1857 190.948 62.2897 191.028C62.4017 191.1 62.5617 191.136 62.7697 191.136C62.8977 191.136 63.0297 191.124 63.1657 191.1C63.3017 191.076 63.4257 191.032 63.5377 190.968V191.952C63.4097 192.024 63.2417 192.072 63.0337 192.096C62.8337 192.128 62.6777 192.144 62.5657 192.144C62.1497 192.144 61.8257 192.088 61.5937 191.976C61.3697 191.856 61.2017 191.704 61.0897 191.52C60.9857 191.336 60.9217 191.132 60.8977 190.908C60.8817 190.676 60.8737 190.444 60.8737 190.212V187.248H59.6257V186.312H60.8737V184.716H61.9537V186.312H63.5017V187.248ZM68.0631 187.248H66.5151V189.828C66.5151 189.988 66.5191 190.148 66.5271 190.308C66.5351 190.46 66.5631 190.6 66.6111 190.728C66.6671 190.848 66.7471 190.948 66.8511 191.028C66.9631 191.1 67.1231 191.136 67.3311 191.136C67.4591 191.136 67.5911 191.124 67.7271 191.1C67.8631 191.076 67.9871 191.032 68.0991 190.968V191.952C67.9711 192.024 67.8031 192.072 67.5951 192.096C67.3951 192.128 67.2391 192.144 67.1271 192.144C66.7111 192.144 66.3871 192.088 66.1551 191.976C65.9311 191.856 65.7631 191.704 65.6511 191.52C65.5471 191.336 65.4831 191.132 65.4591 190.908C65.4431 190.676 65.4351 190.444 65.4351 190.212V187.248H64.1871V186.312H65.4351V184.716H66.5151V186.312H68.0631V187.248ZM70.3925 189.552C70.3925 189.8 70.4445 190.028 70.5485 190.236C70.6605 190.436 70.8045 190.608 70.9805 190.752C71.1565 190.896 71.3605 191.008 71.5925 191.088C71.8245 191.168 72.0645 191.208 72.3125 191.208C72.6485 191.208 72.9405 191.132 73.1885 190.98C73.4365 190.82 73.6645 190.612 73.8725 190.356L74.6885 190.98C74.0885 191.756 73.2485 192.144 72.1685 192.144C71.7205 192.144 71.3125 192.068 70.9445 191.916C70.5845 191.764 70.2765 191.556 70.0205 191.292C69.7725 191.02 69.5805 190.704 69.4445 190.344C69.3085 189.976 69.2405 189.58 69.2405 189.156C69.2405 188.732 69.3125 188.34 69.4565 187.98C69.6085 187.612 69.8125 187.296 70.0685 187.032C70.3325 186.76 70.6445 186.548 71.0045 186.396C71.3645 186.244 71.7565 186.168 72.1805 186.168C72.6845 186.168 73.1085 186.256 73.4525 186.432C73.8045 186.608 74.0925 186.84 74.3165 187.128C74.5405 187.408 74.7005 187.728 74.7965 188.088C74.9005 188.44 74.9525 188.8 74.9525 189.168V189.552H70.3925ZM73.8005 188.688C73.7925 188.448 73.7525 188.228 73.6805 188.028C73.6165 187.828 73.5165 187.656 73.3805 187.512C73.2445 187.36 73.0725 187.244 72.8645 187.164C72.6645 187.076 72.4285 187.032 72.1565 187.032C71.8925 187.032 71.6485 187.084 71.4245 187.188C71.2085 187.284 71.0245 187.412 70.8725 187.572C70.7205 187.732 70.6005 187.912 70.5125 188.112C70.4325 188.304 70.3925 188.496 70.3925 188.688H73.8005ZM76.3645 186.312H77.4445V187.188H77.4685C77.5405 187.036 77.6365 186.9 77.7565 186.78C77.8765 186.652 78.0085 186.544 78.1525 186.456C78.3045 186.368 78.4685 186.3 78.6445 186.252C78.8205 186.196 78.9965 186.168 79.1725 186.168C79.3485 186.168 79.5085 186.192 79.6525 186.24L79.6045 187.404C79.5165 187.38 79.4285 187.36 79.3405 187.344C79.2525 187.328 79.1645 187.32 79.0765 187.32C78.5485 187.32 78.1445 187.468 77.8645 187.764C77.5845 188.06 77.4445 188.52 77.4445 189.144V192H76.3645V186.312ZM84.3858 186.312H85.4658V187.188H85.4898C85.5618 187.036 85.6578 186.9 85.7778 186.78C85.8978 186.652 86.0298 186.544 86.1738 186.456C86.3258 186.368 86.4898 186.3 86.6658 186.252C86.8418 186.196 87.0178 186.168 87.1938 186.168C87.3698 186.168 87.5298 186.192 87.6738 186.24L87.6258 187.404C87.5378 187.38 87.4498 187.36 87.3618 187.344C87.2738 187.328 87.1858 187.32 87.0978 187.32C86.5698 187.32 86.1658 187.468 85.8858 187.764C85.6058 188.06 85.4658 188.52 85.4658 189.144V192H84.3858V186.312ZM89.5522 189.552C89.5522 189.8 89.6042 190.028 89.7082 190.236C89.8202 190.436 89.9642 190.608 90.1402 190.752C90.3162 190.896 90.5202 191.008 90.7522 191.088C90.9842 191.168 91.2242 191.208 91.4722 191.208C91.8082 191.208 92.1002 191.132 92.3482 190.98C92.5962 190.82 92.8242 190.612 93.0322 190.356L93.8482 190.98C93.2482 191.756 92.4082 192.144 91.3282 192.144C90.8802 192.144 90.4722 192.068 90.1042 191.916C89.7442 191.764 89.4362 191.556 89.1802 191.292C88.9322 191.02 88.7402 190.704 88.6042 190.344C88.4682 189.976 88.4002 189.58 88.4002 189.156C88.4002 188.732 88.4722 188.34 88.6162 187.98C88.7682 187.612 88.9722 187.296 89.2282 187.032C89.4922 186.76 89.8042 186.548 90.1642 186.396C90.5242 186.244 90.9162 186.168 91.3402 186.168C91.8442 186.168 92.2682 186.256 92.6122 186.432C92.9642 186.608 93.2522 186.84 93.4762 187.128C93.7002 187.408 93.8602 187.728 93.9562 188.088C94.0602 188.44 94.1122 188.8 94.1122 189.168V189.552H89.5522ZM92.9602 188.688C92.9522 188.448 92.9122 188.228 92.8402 188.028C92.7762 187.828 92.6762 187.656 92.5402 187.512C92.4042 187.36 92.2322 187.244 92.0242 187.164C91.8242 187.076 91.5882 187.032 91.3162 187.032C91.0522 187.032 90.8082 187.084 90.5842 187.188C90.3682 187.284 90.1842 187.412 90.0322 187.572C89.8802 187.732 89.7602 187.912 89.6722 188.112C89.5922 188.304 89.5522 188.496 89.5522 188.688H92.9602ZM98.5482 187.74C98.4202 187.58 98.2602 187.448 98.0682 187.344C97.8842 187.232 97.6562 187.176 97.3842 187.176C97.1282 187.176 96.9042 187.232 96.7122 187.344C96.5282 187.448 96.4362 187.604 96.4362 187.812C96.4362 187.98 96.4882 188.116 96.5922 188.22C96.7042 188.324 96.8322 188.408 96.9762 188.472C97.1282 188.536 97.2882 188.584 97.4562 188.616C97.6242 188.648 97.7682 188.676 97.8882 188.7C98.1202 188.756 98.3362 188.824 98.5362 188.904C98.7442 188.984 98.9202 189.088 99.0642 189.216C99.2162 189.344 99.3322 189.5 99.4122 189.684C99.5002 189.868 99.5442 190.092 99.5442 190.356C99.5442 190.676 99.4762 190.952 99.3402 191.184C99.2042 191.408 99.0282 191.592 98.8122 191.736C98.5962 191.88 98.3482 191.984 98.0682 192.048C97.7962 192.112 97.5202 192.144 97.2402 192.144C96.7682 192.144 96.3522 192.072 95.9922 191.928C95.6402 191.784 95.3242 191.52 95.0442 191.136L95.8602 190.464C96.0362 190.64 96.2322 190.796 96.4482 190.932C96.6642 191.068 96.9282 191.136 97.2402 191.136C97.3762 191.136 97.5122 191.124 97.6482 191.1C97.7922 191.068 97.9162 191.024 98.0202 190.968C98.1322 190.904 98.2202 190.828 98.2842 190.74C98.3562 190.644 98.3922 190.536 98.3922 190.416C98.3922 190.256 98.3402 190.124 98.2362 190.02C98.1402 189.916 98.0202 189.836 97.8762 189.78C97.7402 189.716 97.5922 189.668 97.4322 189.636C97.2802 189.596 97.1442 189.564 97.0242 189.54C96.7922 189.484 96.5722 189.42 96.3642 189.348C96.1562 189.276 95.9722 189.18 95.8122 189.06C95.6522 188.94 95.5242 188.788 95.4282 188.604C95.3322 188.42 95.2842 188.192 95.2842 187.92C95.2842 187.624 95.3442 187.368 95.4642 187.152C95.5922 186.928 95.7562 186.744 95.9562 186.6C96.1642 186.456 96.3962 186.348 96.6522 186.276C96.9162 186.204 97.1802 186.168 97.4442 186.168C97.8282 186.168 98.1962 186.24 98.5482 186.384C98.9002 186.528 99.1802 186.768 99.3882 187.104L98.5482 187.74ZM106.016 192H104.936V191.124H104.912C104.776 191.428 104.54 191.676 104.204 191.868C103.868 192.052 103.48 192.144 103.04 192.144C102.76 192.144 102.496 192.1 102.248 192.012C102 191.932 101.78 191.804 101.588 191.628C101.404 191.452 101.256 191.228 101.144 190.956C101.032 190.676 100.976 190.348 100.976 189.972V186.312H102.056V189.672C102.056 189.936 102.092 190.164 102.164 190.356C102.236 190.54 102.332 190.692 102.452 190.812C102.572 190.924 102.708 191.008 102.86 191.064C103.02 191.112 103.184 191.136 103.352 191.136C103.576 191.136 103.784 191.1 103.976 191.028C104.168 190.956 104.336 190.844 104.48 190.692C104.624 190.532 104.736 190.332 104.816 190.092C104.896 189.852 104.936 189.568 104.936 189.24V186.312H106.016V192ZM107.848 182.928H108.928V192H107.848V182.928ZM113.815 187.248H112.267V189.828C112.267 189.988 112.271 190.148 112.279 190.308C112.287 190.46 112.315 190.6 112.363 190.728C112.419 190.848 112.499 190.948 112.603 191.028C112.715 191.1 112.875 191.136 113.083 191.136C113.211 191.136 113.343 191.124 113.479 191.1C113.615 191.076 113.739 191.032 113.851 190.968V191.952C113.723 192.024 113.555 192.072 113.347 192.096C113.147 192.128 112.991 192.144 112.879 192.144C112.463 192.144 112.139 192.088 111.907 191.976C111.683 191.856 111.515 191.704 111.403 191.52C111.299 191.336 111.235 191.132 111.211 190.908C111.195 190.676 111.187 190.444 111.187 190.212V187.248H109.939V186.312H111.187V184.716H112.267V186.312H113.815V187.248ZM118.352 187.74C118.224 187.58 118.064 187.448 117.872 187.344C117.688 187.232 117.46 187.176 117.188 187.176C116.932 187.176 116.708 187.232 116.516 187.344C116.332 187.448 116.24 187.604 116.24 187.812C116.24 187.98 116.292 188.116 116.396 188.22C116.508 188.324 116.636 188.408 116.78 188.472C116.932 188.536 117.092 188.584 117.26 188.616C117.428 188.648 117.572 188.676 117.692 188.7C117.924 188.756 118.14 188.824 118.34 188.904C118.548 188.984 118.724 189.088 118.868 189.216C119.02 189.344 119.136 189.5 119.216 189.684C119.304 189.868 119.348 190.092 119.348 190.356C119.348 190.676 119.28 190.952 119.144 191.184C119.008 191.408 118.832 191.592 118.616 191.736C118.4 191.88 118.152 191.984 117.872 192.048C117.6 192.112 117.324 192.144 117.044 192.144C116.572 192.144 116.156 192.072 115.796 191.928C115.444 191.784 115.128 191.52 114.848 191.136L115.664 190.464C115.84 190.64 116.036 190.796 116.252 190.932C116.468 191.068 116.732 191.136 117.044 191.136C117.18 191.136 117.316 191.124 117.452 191.1C117.596 191.068 117.72 191.024 117.824 190.968C117.936 190.904 118.024 190.828 118.088 190.74C118.16 190.644 118.196 190.536 118.196 190.416C118.196 190.256 118.144 190.124 118.04 190.02C117.944 189.916 117.824 189.836 117.68 189.78C117.544 189.716 117.396 189.668 117.236 189.636C117.084 189.596 116.948 189.564 116.828 189.54C116.596 189.484 116.376 189.42 116.168 189.348C115.96 189.276 115.776 189.18 115.616 189.06C115.456 188.94 115.328 188.788 115.232 188.604C115.136 188.42 115.088 188.192 115.088 187.92C115.088 187.624 115.148 187.368 115.268 187.152C115.396 186.928 115.56 186.744 115.76 186.6C115.968 186.456 116.2 186.348 116.456 186.276C116.72 186.204 116.984 186.168 117.248 186.168C117.632 186.168 118 186.24 118.352 186.384C118.704 186.528 118.984 186.768 119.192 187.104L118.352 187.74ZM124.216 185.244L130.624 187.872V188.856L124.216 191.496V190.548L129.64 188.364L124.216 186.18V185.244ZM133.204 192.072C132.988 192.072 132.8 191.996 132.64 191.844C132.488 191.684 132.412 191.496 132.412 191.28C132.412 191.064 132.488 190.88 132.64 190.728C132.8 190.568 132.988 190.488 133.204 190.488C133.42 190.488 133.604 190.568 133.756 190.728C133.916 190.88 133.996 191.064 133.996 191.28C133.996 191.496 133.916 191.684 133.756 191.844C133.604 191.996 133.42 192.072 133.204 192.072ZM142.196 191.484L135.788 188.856V187.872L142.196 185.232V186.18L136.772 188.364L142.196 190.548V191.484Z" fill="#F5F3FF" fill-opacity="0.68"/>
<defs>
<filter id="filter0_i_13896_13059" x="24.5" y="0" width="120" height="120" filterUnits="userSpaceOnUse" color-interpolation-filters="sRGB">
<feFlood flood-opacity="0" result="BackgroundImageFix"/>
<feBlend mode="normal" in="SourceGraphic" in2="BackgroundImageFix" result="shape"/>
<feColorMatrix in="SourceAlpha" type="matrix" values="0 0 0 0 0 0 0 0 0 0 0 0 0 0 0 0 0 0 127 0" result="hardAlpha"/>
<feOffset dy="-7.79636"/>
<feComposite in2="hardAlpha" operator="arithmetic" k2="-1" k3="1"/>
<feColorMatrix type="matrix" values="0 0 0 0 0 0 0 0 0 0 0 0 0 0 0 0 0 0 0.15 0"/>
<feBlend mode="normal" in2="shape" result="effect1_innerShadow_13896_13059"/>
</filter>
</defs>
</svg>
