<svg width="34" height="34" viewBox="0 0 34 34" fill="none" xmlns="http://www.w3.org/2000/svg">
<path d="M21.0652 4.14697C22.1773 4.14696 23.0957 4.14648 23.8435 4.20752C24.6203 4.27098 25.3358 4.40681 26.0066 4.74854C27.0467 5.27858 27.8926 6.12532 28.4226 7.16553C28.7643 7.83621 28.9012 8.5509 28.9646 9.32764C29.0256 10.0754 29.0251 10.9939 29.0251 12.106V21.0649C29.0251 22.1773 29.0257 23.0963 28.9646 23.8442C28.9012 24.621 28.7643 25.3356 28.4226 26.0063C27.8926 27.0464 27.0466 27.8923 26.0066 28.4224C25.3358 28.7641 24.6203 28.9009 23.8435 28.9644C23.0957 29.0254 22.1773 29.0249 21.0652 29.0249H12.1062C10.9939 29.0249 10.0748 29.0254 9.32691 28.9644C8.55024 28.9009 7.83542 28.764 7.1648 28.4224C6.12471 27.8923 5.27876 27.0464 4.74878 26.0063C4.40708 25.3356 4.27026 24.621 4.20679 23.8442C4.14571 23.0963 4.14623 22.1773 4.14624 21.0649V12.106C4.14623 10.9939 4.14573 10.0754 4.20679 9.32764C4.27024 8.55088 4.40712 7.83623 4.74878 7.16553C5.2788 6.1253 6.12458 5.27858 7.1648 4.74854C7.83542 4.40686 8.55025 4.271 9.32691 4.20752C10.0748 4.14644 10.9939 4.14696 12.1062 4.14697H21.0652ZM15.031 13.4761V25.9155H18.1404V13.4761H15.031ZM16.5857 7.25635C16.372 7.25635 16.1698 7.28516 15.9792 7.34229C15.6613 7.43743 15.3756 7.6119 15.1218 7.86572C14.7158 8.27173 14.5125 8.75946 14.5125 9.32959C14.5125 9.89971 14.7158 10.3875 15.1218 10.7935C15.3756 11.0473 15.6613 11.2218 15.9792 11.3169C16.1063 11.355 16.2384 11.3804 16.3757 11.3931C16.4444 11.3994 16.5144 11.4028 16.5857 11.4028C17.1558 11.4028 17.6436 11.1995 18.0496 10.7935C18.4048 10.4382 18.6048 10.0204 18.6492 9.53955C18.6555 9.47085 18.6589 9.40087 18.6589 9.32959C18.6589 9.11588 18.6301 8.91373 18.573 8.72315C18.4779 8.40518 18.3034 8.11954 18.0496 7.86572C17.6943 7.51048 17.2765 7.31053 16.7957 7.26611C16.7269 7.25975 16.657 7.25635 16.5857 7.25635Z" fill="#FB7E5B"/>
</svg>
