<svg width="40" height="40" viewBox="0 0 40 40" fill="none" xmlns="http://www.w3.org/2000/svg">
<path d="M26.6602 28C27.2123 28.0001 27.6602 28.4478 27.6602 29C27.6602 29.5522 27.2123 29.9999 26.6602 30H26.6504C26.0981 30 25.6504 29.5523 25.6504 29C25.6504 28.4477 26.0981 28 26.6504 28H26.6602ZM26.3018 25.0518C26.3029 25.0514 26.3066 25.0506 26.3115 25.0488C26.3214 25.0453 26.3383 25.039 26.3613 25.0303C26.4082 25.0124 26.4796 24.9839 26.5664 24.9453C26.7427 24.8669 26.9702 24.7523 27.1904 24.6055C27.6917 24.2712 27.869 23.9705 27.8691 23.752V23.75C27.8695 23.4553 27.7659 23.1698 27.5762 22.9443C27.3863 22.7188 27.1226 22.5674 26.832 22.5176C26.5415 22.4677 26.2424 22.5225 25.9883 22.6719C25.7342 22.8212 25.5412 23.0559 25.4434 23.334C25.2601 23.855 24.689 24.1286 24.168 23.9453C23.6471 23.7619 23.3734 23.1908 23.5566 22.6699C23.8112 21.9466 24.3136 21.3369 24.9746 20.9482C25.6359 20.5596 26.4139 20.4172 27.1699 20.5469C27.926 20.6766 28.6124 21.0694 29.1064 21.6563C29.6001 22.2428 29.87 22.9853 29.8691 23.752L29.8584 23.9863C29.7521 25.1331 28.8834 25.8804 28.2998 26.2695C27.9581 26.4973 27.6231 26.6645 27.3779 26.7734C27.2541 26.8285 27.1492 26.8705 27.0732 26.8994C27.0353 26.9139 27.0044 26.9254 26.9814 26.9336C26.9701 26.9376 26.9605 26.9408 26.9531 26.9434C26.9495 26.9446 26.9459 26.9454 26.9434 26.9463C26.9421 26.9467 26.9405 26.9479 26.9395 26.9482H26.9375C26.4136 27.1229 25.8465 26.8403 25.6719 26.3164C25.5082 25.8254 25.7471 25.297 26.209 25.0889L26.3018 25.0518ZM18 22C18.5523 22 19 22.4477 19 23C19 23.5523 18.5523 24 18 24H16C15.4477 24 15 23.5523 15 23C15 22.4477 15.4477 22 16 22H18ZM22 18C22.5523 18 23 18.4477 23 19C23 19.5523 22.5523 20 22 20H16C15.4477 20 15 19.5523 15 19C15 18.4477 15.4477 18 16 18H22ZM27 17.5V14.7998C27 13.9434 26.9997 13.3612 26.9629 12.9111C26.9271 12.4727 26.8619 12.2482 26.7822 12.0918C26.5905 11.7155 26.2845 11.4095 25.9082 11.2178C25.7518 11.1381 25.5273 11.0729 25.0889 11.0371C24.6388 11.0004 24.0566 11 23.2002 11H16.7998C15.9434 11 15.3612 11.0004 14.9111 11.0371C14.4727 11.0729 14.2482 11.1381 14.0918 11.2178C13.7155 11.4095 13.4095 11.7155 13.2178 12.0918C13.1381 12.2482 13.0729 12.4727 13.0371 12.9111C13.0004 13.3612 13 13.9434 13 14.7998V25.2002C13 26.0566 13.0004 26.6388 13.0371 27.0889C13.0729 27.5273 13.1381 27.7518 13.2178 27.9082C13.4095 28.2845 13.7155 28.5905 14.0918 28.7822C14.2482 28.8619 14.4727 28.9271 14.9111 28.9629C15.3612 28.9997 15.9434 29 16.7998 29H22C22.5523 29 23 29.4477 23 30C23 30.5523 22.5523 31 22 31H16.7998C15.9763 31 15.2984 31.001 14.748 30.9561C14.186 30.9101 13.6689 30.8117 13.1836 30.5645C12.4311 30.181 11.819 29.5689 11.4355 28.8164C11.1883 28.3311 11.0899 27.814 11.0439 27.252C10.999 26.7016 11 26.0237 11 25.2002V14.7998C11 13.9763 10.999 13.2984 11.0439 12.748C11.0899 12.186 11.1883 11.6689 11.4355 11.1836C11.819 10.4311 12.4311 9.81902 13.1836 9.43555C13.6689 9.18827 14.186 9.08988 14.748 9.04395C15.2984 8.99898 15.9763 9 16.7998 9H23.2002C24.0237 9 24.7016 8.99898 25.252 9.04395C25.814 9.08988 26.3311 9.18827 26.8164 9.43555C27.5689 9.81902 28.181 10.4311 28.5645 11.1836C28.8117 11.6689 28.9101 12.186 28.9561 12.748C29.001 13.2984 29 13.9763 29 14.7998V17.5C29 18.0523 28.5523 18.5 28 18.5C27.4477 18.5 27 18.0523 27 17.5ZM24 14C24.5523 14 25 14.4477 25 15C25 15.5523 24.5523 16 24 16H16C15.4477 16 15 15.5523 15 15C15 14.4477 15.4477 14 16 14H24Z" fill="white" fill-opacity="0.68"/>
</svg>
