<svg width="40" height="40" viewBox="0 0 40 40" fill="none" xmlns="http://www.w3.org/2000/svg">
<path d="M9 20C9 13.9249 13.9249 9.00004 20 9.00004C20.5523 9.00004 21 9.44776 21 10C21 10.5523 20.5523 11 20 11C15.0294 11 11 15.0295 11 20C11 24.9706 15.0294 29 20 29C24.9706 29 29 24.9706 29 20C29 19.4478 29.4477 19 30 19C30.5523 19 31 19.4478 31 20C31 26.0752 26.0751 31 20 31C13.9249 31 9 26.0752 9 20ZM14 20C14 16.6863 16.6863 14 20 14C20.5523 14 21 14.4478 21 15C21 15.5523 20.5523 16 20 16C17.7909 16 16 17.7909 16 20C16 22.2092 17.7909 24 20 24C22.2091 24 24 22.2092 24 20C24 19.4478 24.4477 19 25 19C25.5523 19 26 19.4478 26 20C26 23.3137 23.3137 26 20 26C16.6863 26 14 23.3137 14 20ZM27.1602 9.01274C27.4774 9.06422 27.7508 9.26527 27.8945 9.55277L28.7451 11.2539L30.4473 12.1055C30.7348 12.2493 30.9358 12.5226 30.9873 12.8399C31.0388 13.1571 30.9343 13.4798 30.707 13.7071L27.707 16.7071C27.5195 16.8946 27.2652 17 27 17H24.4141L20.707 20.7071C20.3165 21.0976 19.6835 21.0976 19.293 20.7071C18.9025 20.3166 18.9025 19.6835 19.293 19.293L23 15.586V13C23 12.7348 23.1054 12.4805 23.293 12.293L26.293 9.29301L26.3828 9.21391C26.6012 9.04246 26.8826 8.9677 27.1602 9.01274ZM25 13.4141V15H26.5859L28.3115 13.2735L27.5527 12.8946C27.3592 12.7978 27.2022 12.6408 27.1055 12.4473L26.7256 11.6875L25 13.4141Z" fill="#A684FF"/>
</svg>
