<svg width="40" height="40" viewBox="0 0 40 40" fill="none" xmlns="http://www.w3.org/2000/svg">
<path d="M10 20C10 14.4772 14.4772 10 20 10C20.5523 10 21 10.4477 21 11C21 11.5523 20.5523 12 20 12C15.5817 12 12 15.5817 12 20C12 21.0659 12.2084 22.0805 12.585 23.0078C12.6491 23.1658 12.7324 23.3639 12.7734 23.5469C12.8072 23.6975 12.8222 23.8291 12.8223 23.9834C12.8223 24.1692 12.7877 24.3577 12.7637 24.502L12.2168 27.7822L15.498 27.2363C15.6422 27.2123 15.8309 27.1777 16.0166 27.1777C16.0938 27.1778 16.1653 27.1816 16.2363 27.1895L16.4531 27.2266L16.5928 27.2637C16.7329 27.3076 16.8737 27.3669 16.9922 27.415C17.9195 27.7916 18.9341 28 20 28C24.4183 28 28 24.4183 28 20C28 19.4477 28.4477 19 29 19C29.5523 19 30 19.4477 30 20C30 25.5228 25.5228 30 20 30C18.6717 30 17.4015 29.7406 16.2393 29.2686C16.1346 29.226 16.074 29.2014 16.0293 29.1846C16.0233 29.1823 16.0179 29.1802 16.0137 29.1787C16.0127 29.1788 16.0118 29.1795 16.0107 29.1797C15.9738 29.1847 15.9231 29.193 15.8271 29.209L12.2695 29.8027C12.1019 29.8307 11.9096 29.8635 11.7441 29.876C11.574 29.8888 11.3027 29.8932 11.0166 29.7705C10.6631 29.6188 10.3812 29.3369 10.2295 28.9834C10.1068 28.6973 10.1112 28.426 10.124 28.2559C10.1365 28.0904 10.1693 27.8981 10.1973 27.7305L10.791 24.1729C10.807 24.0769 10.8153 24.0261 10.8203 23.9893C10.8205 23.9876 10.8201 23.9859 10.8203 23.9844C10.8189 23.9806 10.8173 23.9757 10.8154 23.9707C10.7986 23.926 10.774 23.8654 10.7314 23.7607C10.2594 22.5985 10 21.3283 10 20ZM26 9C26.3788 9 26.7251 9.21395 26.8945 9.55273L27.5127 10.7881C27.7951 11.3528 27.8808 11.5157 27.9854 11.6514C28.0903 11.7875 28.2125 11.9097 28.3486 12.0146C28.4843 12.1192 28.6472 12.2049 29.2119 12.4873L30.4473 13.1055C30.786 13.2749 31 13.6212 31 14C31 14.3788 30.786 14.7251 30.4473 14.8945L29.2119 15.5127C28.6472 15.7951 28.4843 15.8808 28.3486 15.9854C28.2125 16.0903 28.0903 16.2125 27.9854 16.3486C27.8808 16.4843 27.7951 16.6472 27.5127 17.2119L26.8945 18.4473C26.7251 18.786 26.3788 19 26 19C25.6212 19 25.2749 18.786 25.1055 18.4473L24.4873 17.2119C24.2049 16.6472 24.1192 16.4843 24.0146 16.3486C23.9097 16.2125 23.7875 16.0903 23.6514 15.9854C23.5157 15.8808 23.3528 15.7951 22.7881 15.5127L21.5527 14.8945C21.214 14.7251 21 14.3788 21 14C21 13.6212 21.214 13.2749 21.5527 13.1055L22.7881 12.4873C23.3528 12.2049 23.5157 12.1192 23.6514 12.0146C23.7875 11.9097 23.9097 11.7875 24.0146 11.6514C24.1192 11.5157 24.2049 11.3528 24.4873 10.7881L25.1055 9.55273L25.1768 9.43164C25.3617 9.16367 25.6685 9 26 9ZM26 12.2217C25.8707 12.4662 25.7486 12.6784 25.5986 12.873C25.3889 13.145 25.145 13.3889 24.873 13.5986C24.6784 13.7486 24.4662 13.8707 24.2217 14C24.4662 14.1293 24.6784 14.2514 24.873 14.4014C25.145 14.6111 25.3889 14.855 25.5986 15.127C25.7485 15.3214 25.8708 15.5331 26 15.7773C26.1292 15.5331 26.2515 15.3214 26.4014 15.127C26.6111 14.855 26.855 14.6111 27.127 14.4014C27.3214 14.2515 27.5331 14.1292 27.7773 14C27.5331 13.8708 27.3214 13.7485 27.127 13.5986C26.855 13.3889 26.6111 13.145 26.4014 12.873C26.2514 12.6784 26.1293 12.4662 26 12.2217Z" fill="white" fill-opacity="0.68"/>
</svg>
