<svg width="40" height="40" viewBox="0 0 40 40" fill="none" xmlns="http://www.w3.org/2000/svg">
<path d="M27 19.5C27 15.3579 23.6421 12 19.5 12C15.3579 12 12 15.3579 12 19.5C12 23.6421 15.3579 27 19.5 27C21.5199 27 23.3517 26.1999 24.7002 24.9014C24.7284 24.8638 24.7588 24.8272 24.793 24.793C24.8271 24.7588 24.8638 24.7284 24.9014 24.7002C26.1999 23.3517 27 21.5199 27 19.5ZM29 19.5C29 21.7631 28.2068 23.8398 26.8857 25.4717L29.707 28.293C30.0975 28.6835 30.0976 29.3165 29.707 29.707C29.3165 30.0975 28.6835 30.0976 28.293 29.707L25.4717 26.8857C23.8398 28.2068 21.7631 29 19.5 29C14.2533 29 10 24.7467 10 19.5C10 14.2533 14.2533 10 19.5 10C24.7467 10 29 14.2533 29 19.5Z" fill="white" fill-opacity="0.68"/>
</svg>
