<svg width="34" height="34" viewBox="0 0 34 34" fill="none" xmlns="http://www.w3.org/2000/svg">
<path fill-rule="evenodd" clip-rule="evenodd" d="M21.0652 4.14636C22.1776 4.14635 23.0961 4.14602 23.844 4.2071C24.6208 4.27056 25.3354 4.40696 26.0063 4.74869C27.0465 5.27873 27.8926 6.12481 28.4227 7.16508C28.7644 7.83584 28.9008 8.55053 28.9643 9.32737C29.0253 10.0753 29.025 10.9939 29.025 12.1062V21.0651C29.025 22.1775 29.0253 23.096 28.9643 23.8439C28.9008 24.6207 28.7644 25.3354 28.4227 26.0062C27.8926 27.0464 27.0465 27.8926 26.0063 28.4226C25.3354 28.7643 24.6208 28.9008 23.844 28.9642C23.0961 29.0252 22.1776 29.0249 21.0652 29.0249H12.1062C10.9939 29.0249 10.0753 29.0252 9.32743 28.9642C8.55059 28.9008 7.8359 28.7643 7.16514 28.4226C6.12487 27.8926 5.27879 27.0464 4.74875 26.0062C4.40702 25.3354 4.27062 24.6207 4.20716 23.8439C4.14608 23.096 4.14641 22.1775 4.14642 21.0651V12.1062C4.14641 10.9939 4.14609 10.0753 4.20716 9.32737C4.27063 8.55053 4.407 7.83584 4.74875 7.16508C5.27879 6.12481 6.12487 5.27873 7.16514 4.74869C7.8359 4.40694 8.55059 4.27056 9.32743 4.2071C10.0753 4.14603 10.9939 4.14635 12.1062 4.14636H21.0652ZM12.9576 13.4758C12.353 13.4758 11.7572 13.5929 11.1698 13.8261C10.5825 14.0593 10.055 14.4084 9.58861 14.8748L8.3708 16.0937C8.16359 16.301 8.06454 16.5512 8.07318 16.8448C8.08182 17.1385 8.1898 17.3806 8.39712 17.5706C8.60434 17.7777 8.85023 17.8769 9.13509 17.8682C9.42008 17.8596 9.65774 17.7606 9.84776 17.5706L11.0656 16.3528C11.3247 16.0937 11.619 15.8993 11.9473 15.7697C12.2755 15.6402 12.6121 15.5754 12.9576 15.5754C13.3031 15.5754 13.6406 15.6401 13.9689 15.7697C14.2969 15.8993 14.5906 16.0938 14.8496 16.3528L16.7932 18.2965C17.2595 18.7627 17.7908 19.112 18.3866 19.3452C18.9827 19.5784 19.5838 19.6955 20.1885 19.6955C20.793 19.6954 21.3935 19.5784 21.9894 19.3452C22.5852 19.112 23.1165 18.7627 23.5828 18.2965L24.8006 17.0776C25.0079 16.8704 25.1124 16.6246 25.1124 16.3397C25.1124 16.0546 25.0079 15.808 24.8006 15.6007C24.5934 15.3936 24.3475 15.29 24.0626 15.2899C23.7776 15.2899 23.531 15.3934 23.3237 15.6007L22.1058 16.8185C21.8294 17.0949 21.5225 17.2983 21.1856 17.4279C20.8488 17.5574 20.5077 17.6222 20.1622 17.6223C19.8168 17.6223 19.48 17.5574 19.1519 17.4279C18.8237 17.2983 18.5213 17.0949 18.2449 16.8185L16.3012 14.8748C15.8349 14.4085 15.3118 14.0593 14.7332 13.8261C14.1544 13.5928 13.5623 13.4758 12.9576 13.4758Z" fill="#F5B53D"/>
</svg>
