<svg width="264" height="225" viewBox="0 0 264 225" fill="none" xmlns="http://www.w3.org/2000/svg">
<g filter="url(#filter0_i_13896_13055)">
<path d="M71.5459 59.9999C71.5459 26.863 98.4087 0.000244141 131.546 0.000244141C164.683 0.000244141 191.545 26.863 191.545 59.9999C191.545 93.1369 164.683 120 131.546 120C98.4087 120 71.5459 93.1369 71.5459 59.9999Z" fill="#5FA0FC"/>
<mask id="mask0_13896_13055" style="mask-type:alpha" maskUnits="userSpaceOnUse" x="106" y="35" width="51" height="50">
<rect x="106.546" y="35" width="50" height="50" fill="#D9D9D9"/>
</mask>
<g mask="url(#mask0_13896_13055)">
<path d="M123.211 74.5866V45.4199L146.128 60.0033L123.211 74.5866Z" fill="#F4F2FF"/>
</g>
</g>
<path d="M61.5856 150V138.12H63.5476V150H61.5856ZM53.7376 150V138.12H55.6996V150H53.7376ZM54.7816 144.78V143.124H62.3596V144.78H54.7816ZM70.6577 150.234C69.9137 150.234 69.2537 150.126 68.6777 149.91C68.1017 149.682 67.6157 149.364 67.2197 148.956C66.8237 148.536 66.5237 148.038 66.3197 147.462C66.1157 146.874 66.0137 146.214 66.0137 145.482C66.0137 144.75 66.1157 144.078 66.3197 143.466C66.5237 142.842 66.8117 142.302 67.1837 141.846C67.5677 141.39 68.0357 141.036 68.5877 140.784C69.1517 140.532 69.7877 140.406 70.4957 140.406C71.1557 140.406 71.7437 140.514 72.2597 140.73C72.7877 140.946 73.2317 141.276 73.5917 141.72C73.9517 142.152 74.2217 142.698 74.4017 143.358C74.5817 144.006 74.6477 144.768 74.5997 145.644L67.2737 145.698V144.474L73.4477 144.42L72.7637 145.176C72.8357 144.456 72.7757 143.862 72.5837 143.394C72.3917 142.926 72.1157 142.578 71.7557 142.35C71.3957 142.122 70.9817 142.008 70.5137 142.008C69.9857 142.008 69.5237 142.146 69.1277 142.422C68.7437 142.686 68.4437 143.076 68.2277 143.592C68.0117 144.108 67.9037 144.726 67.9037 145.446C67.9037 146.526 68.1437 147.342 68.6237 147.894C69.1037 148.434 69.7877 148.704 70.6757 148.704C71.0477 148.704 71.3657 148.662 71.6297 148.578C71.8937 148.482 72.1157 148.362 72.2957 148.218C72.4757 148.062 72.6197 147.882 72.7277 147.678C72.8477 147.462 72.9437 147.24 73.0157 147.012L74.7257 147.408C74.6177 147.852 74.4497 148.248 74.2217 148.596C74.0057 148.932 73.7297 149.226 73.3937 149.478C73.0577 149.718 72.6617 149.904 72.2057 150.036C71.7617 150.168 71.2457 150.234 70.6577 150.234ZM79.1941 150.234C78.6781 150.234 78.2161 150.138 77.8081 149.946C77.4001 149.742 77.0761 149.442 76.8361 149.046C76.6081 148.65 76.4941 148.158 76.4941 147.57C76.4941 147.102 76.5781 146.7 76.7461 146.364C76.9261 146.016 77.1901 145.728 77.5381 145.5C77.8981 145.26 78.3541 145.068 78.9061 144.924C79.4581 144.768 80.1121 144.636 80.8681 144.528C81.2881 144.468 81.6301 144.408 81.8941 144.348C82.1701 144.288 82.3681 144.192 82.4881 144.06C82.6201 143.928 82.6861 143.73 82.6861 143.466C82.6861 143.058 82.5421 142.71 82.2541 142.422C81.9781 142.122 81.5281 141.972 80.9041 141.972C80.5561 141.972 80.2081 142.032 79.8601 142.152C79.5241 142.272 79.2301 142.47 78.9781 142.746C78.7381 143.01 78.5761 143.37 78.4921 143.826L76.7281 143.268C76.8361 142.812 77.0101 142.41 77.2501 142.062C77.4901 141.702 77.7901 141.402 78.1501 141.162C78.5101 140.91 78.9241 140.724 79.3921 140.604C79.8721 140.472 80.3941 140.406 80.9581 140.406C81.7861 140.406 82.4701 140.544 83.0101 140.82C83.5501 141.096 83.9521 141.522 84.2161 142.098C84.4921 142.662 84.6301 143.388 84.6301 144.276V146.184C84.6301 146.58 84.6361 147 84.6481 147.444C84.6721 147.876 84.6961 148.314 84.7201 148.758C84.7561 149.19 84.7981 149.604 84.8461 150H83.0641C83.0281 149.64 82.9921 149.268 82.9561 148.884C82.9321 148.5 82.9081 148.11 82.8841 147.714H82.6141C82.4461 148.17 82.2061 148.59 81.8941 148.974C81.5941 149.358 81.2161 149.664 80.7601 149.892C80.3161 150.12 79.7941 150.234 79.1941 150.234ZM79.8781 148.722C80.1301 148.722 80.3821 148.68 80.6341 148.596C80.8981 148.512 81.1561 148.386 81.4081 148.218C81.6721 148.038 81.9121 147.81 82.1281 147.534C82.3561 147.258 82.5541 146.928 82.7221 146.544L82.7041 144.852L83.1721 144.942C82.9681 145.122 82.7101 145.26 82.3981 145.356C82.0981 145.452 81.7681 145.53 81.4081 145.59C81.0481 145.638 80.6881 145.698 80.3281 145.77C79.9801 145.83 79.6561 145.92 79.3561 146.04C79.0681 146.148 78.8341 146.304 78.6541 146.508C78.4861 146.712 78.4021 146.994 78.4021 147.354C78.4021 147.798 78.5401 148.14 78.8161 148.38C79.0921 148.608 79.4461 148.722 79.8781 148.722ZM87.427 150V145.122V140.64H89.119L89.029 143.88H89.335C89.443 143.148 89.611 142.524 89.839 142.008C90.067 141.492 90.379 141.102 90.775 140.838C91.171 140.562 91.663 140.424 92.251 140.424C92.371 140.424 92.503 140.43 92.647 140.442C92.791 140.454 92.953 140.49 93.133 140.55L93.043 142.602C92.863 142.53 92.677 142.482 92.485 142.458C92.293 142.422 92.119 142.404 91.963 142.404C91.483 142.404 91.075 142.542 90.739 142.818C90.403 143.082 90.121 143.454 89.893 143.934C89.677 144.402 89.509 144.948 89.389 145.572V150H87.427ZM104.729 150.234C104.129 150.234 103.613 150.114 103.181 149.874C102.761 149.634 102.419 149.304 102.155 148.884C101.891 148.464 101.693 147.972 101.561 147.408H101.255L101.309 150H99.6171V145.392V137.31H101.579V140.28C101.579 140.58 101.561 140.904 101.525 141.252C101.489 141.588 101.441 141.936 101.381 142.296C101.333 142.644 101.279 142.992 101.219 143.34H101.561C101.705 142.8 101.903 142.314 102.155 141.882C102.419 141.438 102.761 141.084 103.181 140.82C103.601 140.556 104.123 140.424 104.747 140.424C105.527 140.424 106.199 140.634 106.763 141.054C107.327 141.462 107.759 142.038 108.059 142.782C108.371 143.514 108.527 144.372 108.527 145.356C108.527 146.316 108.377 147.162 108.077 147.894C107.789 148.626 107.363 149.202 106.799 149.622C106.235 150.03 105.545 150.234 104.729 150.234ZM104.171 148.578C104.651 148.578 105.065 148.446 105.413 148.182C105.761 147.918 106.025 147.546 106.205 147.066C106.397 146.574 106.493 146.004 106.493 145.356C106.493 144.72 106.403 144.156 106.223 143.664C106.043 143.172 105.779 142.788 105.431 142.512C105.095 142.224 104.681 142.08 104.189 142.08C103.841 142.08 103.523 142.152 103.235 142.296C102.959 142.428 102.713 142.608 102.497 142.836C102.293 143.064 102.119 143.316 101.975 143.592C101.843 143.868 101.741 144.15 101.669 144.438C101.597 144.726 101.561 144.99 101.561 145.23V145.482C101.561 145.806 101.615 146.154 101.723 146.526C101.843 146.886 102.011 147.222 102.227 147.534C102.455 147.846 102.731 148.098 103.055 148.29C103.379 148.482 103.751 148.578 104.171 148.578ZM113.102 150.234C112.586 150.234 112.124 150.138 111.716 149.946C111.308 149.742 110.984 149.442 110.744 149.046C110.516 148.65 110.402 148.158 110.402 147.57C110.402 147.102 110.486 146.7 110.654 146.364C110.834 146.016 111.098 145.728 111.446 145.5C111.806 145.26 112.262 145.068 112.814 144.924C113.366 144.768 114.02 144.636 114.776 144.528C115.196 144.468 115.538 144.408 115.802 144.348C116.078 144.288 116.276 144.192 116.396 144.06C116.528 143.928 116.594 143.73 116.594 143.466C116.594 143.058 116.45 142.71 116.162 142.422C115.886 142.122 115.436 141.972 114.812 141.972C114.464 141.972 114.116 142.032 113.768 142.152C113.432 142.272 113.138 142.47 112.886 142.746C112.646 143.01 112.484 143.37 112.4 143.826L110.636 143.268C110.744 142.812 110.918 142.41 111.158 142.062C111.398 141.702 111.698 141.402 112.058 141.162C112.418 140.91 112.832 140.724 113.3 140.604C113.78 140.472 114.302 140.406 114.866 140.406C115.694 140.406 116.378 140.544 116.918 140.82C117.458 141.096 117.86 141.522 118.124 142.098C118.4 142.662 118.538 143.388 118.538 144.276V146.184C118.538 146.58 118.544 147 118.556 147.444C118.58 147.876 118.604 148.314 118.628 148.758C118.664 149.19 118.706 149.604 118.754 150H116.972C116.936 149.64 116.9 149.268 116.864 148.884C116.84 148.5 116.816 148.11 116.792 147.714H116.522C116.354 148.17 116.114 148.59 115.802 148.974C115.502 149.358 115.124 149.664 114.668 149.892C114.224 150.12 113.702 150.234 113.102 150.234ZM113.786 148.722C114.038 148.722 114.29 148.68 114.542 148.596C114.806 148.512 115.064 148.386 115.316 148.218C115.58 148.038 115.82 147.81 116.036 147.534C116.264 147.258 116.462 146.928 116.63 146.544L116.612 144.852L117.08 144.942C116.876 145.122 116.618 145.26 116.306 145.356C116.006 145.452 115.676 145.53 115.316 145.59C114.956 145.638 114.596 145.698 114.236 145.77C113.888 145.83 113.564 145.92 113.264 146.04C112.976 146.148 112.742 146.304 112.562 146.508C112.394 146.712 112.31 146.994 112.31 147.354C112.31 147.798 112.448 148.14 112.724 148.38C113 148.608 113.354 148.722 113.786 148.722ZM125.438 150.234C124.634 150.234 123.938 150.108 123.35 149.856C122.774 149.604 122.3 149.256 121.928 148.812C121.556 148.368 121.28 147.858 121.1 147.282C120.92 146.706 120.83 146.088 120.83 145.428C120.83 144.72 120.926 144.066 121.118 143.466C121.31 142.854 121.592 142.32 121.964 141.864C122.348 141.396 122.822 141.036 123.386 140.784C123.95 140.532 124.604 140.406 125.348 140.406C126.08 140.406 126.716 140.532 127.256 140.784C127.808 141.024 128.258 141.372 128.606 141.828C128.954 142.272 129.182 142.794 129.29 143.394L127.454 143.952C127.418 143.604 127.316 143.28 127.148 142.98C126.98 142.68 126.74 142.446 126.428 142.278C126.116 142.098 125.738 142.008 125.294 142.008C124.874 142.008 124.508 142.092 124.196 142.26C123.884 142.416 123.626 142.65 123.422 142.962C123.218 143.262 123.062 143.616 122.954 144.024C122.858 144.432 122.81 144.882 122.81 145.374C122.81 146.046 122.9 146.634 123.08 147.138C123.272 147.63 123.566 148.014 123.962 148.29C124.358 148.554 124.856 148.686 125.456 148.686C125.96 148.686 126.374 148.596 126.698 148.416C127.022 148.236 127.274 147.996 127.454 147.696C127.634 147.384 127.754 147.024 127.814 146.616L129.56 147.03C129.488 147.522 129.344 147.972 129.128 148.38C128.912 148.776 128.63 149.112 128.282 149.388C127.934 149.664 127.52 149.874 127.04 150.018C126.572 150.162 126.038 150.234 125.438 150.234ZM131.499 150V137.292H133.425V144.474C133.869 144.234 134.289 143.958 134.685 143.646C135.093 143.322 135.465 142.986 135.801 142.638C136.149 142.29 136.449 141.948 136.701 141.612C136.965 141.264 137.169 140.94 137.313 140.64H139.581C139.365 141.096 139.089 141.552 138.753 142.008C138.429 142.452 138.057 142.872 137.637 143.268C137.217 143.652 136.755 143.988 136.251 144.276C135.759 144.552 135.243 144.744 134.703 144.852V145.086C135.375 145.014 135.951 145.068 136.431 145.248C136.911 145.428 137.325 145.698 137.673 146.058C138.021 146.418 138.327 146.838 138.591 147.318C138.867 147.786 139.125 148.266 139.365 148.758L139.869 150H137.709L137.349 149.154C137.085 148.542 136.803 148.002 136.503 147.534C136.215 147.054 135.867 146.676 135.459 146.4C135.063 146.124 134.571 145.986 133.983 145.986H133.425V150H131.499ZM150.464 150.234C149.564 150.234 148.766 150.042 148.07 149.658C147.374 149.274 146.828 148.716 146.432 147.984C146.048 147.252 145.856 146.352 145.856 145.284C145.856 144.192 146.06 143.286 146.468 142.566C146.876 141.846 147.422 141.306 148.106 140.946C148.802 140.586 149.582 140.406 150.446 140.406C151.334 140.406 152.126 140.592 152.822 140.964C153.518 141.336 154.064 141.888 154.46 142.62C154.868 143.352 155.072 144.264 155.072 145.356C155.072 146.436 154.868 147.342 154.46 148.074C154.064 148.794 153.518 149.334 152.822 149.694C152.126 150.054 151.34 150.234 150.464 150.234ZM150.536 148.686C151.076 148.686 151.538 148.56 151.922 148.308C152.306 148.056 152.6 147.684 152.804 147.192C153.008 146.7 153.11 146.112 153.11 145.428C153.11 144.72 153.002 144.114 152.786 143.61C152.57 143.094 152.258 142.698 151.85 142.422C151.454 142.146 150.968 142.008 150.392 142.008C149.876 142.008 149.42 142.134 149.024 142.386C148.64 142.626 148.346 142.992 148.142 143.484C147.938 143.964 147.836 144.552 147.836 145.248C147.836 146.34 148.076 147.186 148.556 147.786C149.036 148.386 149.696 148.686 150.536 148.686ZM157.422 150V145.122V140.64H159.114L159.024 143.88H159.33C159.438 143.148 159.606 142.524 159.834 142.008C160.062 141.492 160.374 141.102 160.77 140.838C161.166 140.562 161.658 140.424 162.246 140.424C162.366 140.424 162.498 140.43 162.642 140.442C162.786 140.454 162.948 140.49 163.128 140.55L163.038 142.602C162.858 142.53 162.672 142.482 162.48 142.458C162.288 142.422 162.114 142.404 161.958 142.404C161.478 142.404 161.07 142.542 160.734 142.818C160.398 143.082 160.116 143.454 159.888 143.934C159.672 144.402 159.504 144.948 159.384 145.572V150H157.422ZM173.176 150.234C172.528 150.234 171.952 150.168 171.448 150.036C170.944 149.904 170.512 149.718 170.152 149.478C169.804 149.226 169.534 148.926 169.342 148.578C169.15 148.23 169.036 147.852 169 147.444L170.584 146.922C170.584 147.27 170.692 147.582 170.908 147.858C171.124 148.134 171.43 148.35 171.826 148.506C172.234 148.65 172.72 148.722 173.284 148.722C173.944 148.722 174.454 148.614 174.814 148.398C175.174 148.182 175.354 147.882 175.354 147.498C175.354 147.21 175.252 146.982 175.048 146.814C174.856 146.646 174.574 146.508 174.202 146.4C173.842 146.292 173.416 146.19 172.924 146.094C172.48 145.998 172.036 145.89 171.592 145.77C171.16 145.638 170.758 145.47 170.386 145.266C170.026 145.062 169.732 144.798 169.504 144.474C169.288 144.138 169.18 143.718 169.18 143.214C169.18 142.638 169.33 142.146 169.63 141.738C169.93 141.318 170.362 140.994 170.926 140.766C171.502 140.526 172.186 140.406 172.978 140.406C173.746 140.406 174.406 140.52 174.958 140.748C175.522 140.976 175.972 141.294 176.308 141.702C176.644 142.11 176.848 142.59 176.92 143.142L175.264 143.628C175.24 143.256 175.126 142.944 174.922 142.692C174.73 142.44 174.466 142.254 174.13 142.134C173.794 142.002 173.398 141.936 172.942 141.936C172.342 141.936 171.868 142.044 171.52 142.26C171.184 142.476 171.016 142.77 171.016 143.142C171.016 143.43 171.118 143.664 171.322 143.844C171.538 144.012 171.826 144.15 172.186 144.258C172.558 144.354 172.978 144.45 173.446 144.546C173.926 144.642 174.388 144.75 174.832 144.87C175.276 144.99 175.672 145.152 176.02 145.356C176.38 145.548 176.662 145.812 176.866 146.148C177.082 146.472 177.19 146.886 177.19 147.39C177.19 148.002 177.022 148.524 176.686 148.956C176.362 149.376 175.9 149.694 175.3 149.91C174.7 150.126 173.992 150.234 173.176 150.234ZM183.599 150.234C182.855 150.234 182.195 150.126 181.619 149.91C181.043 149.682 180.557 149.364 180.161 148.956C179.765 148.536 179.465 148.038 179.261 147.462C179.057 146.874 178.955 146.214 178.955 145.482C178.955 144.75 179.057 144.078 179.261 143.466C179.465 142.842 179.753 142.302 180.125 141.846C180.509 141.39 180.977 141.036 181.529 140.784C182.093 140.532 182.729 140.406 183.437 140.406C184.097 140.406 184.685 140.514 185.201 140.73C185.729 140.946 186.173 141.276 186.533 141.72C186.893 142.152 187.163 142.698 187.343 143.358C187.523 144.006 187.589 144.768 187.541 145.644L180.215 145.698V144.474L186.389 144.42L185.705 145.176C185.777 144.456 185.717 143.862 185.525 143.394C185.333 142.926 185.057 142.578 184.697 142.35C184.337 142.122 183.923 142.008 183.455 142.008C182.927 142.008 182.465 142.146 182.069 142.422C181.685 142.686 181.385 143.076 181.169 143.592C180.953 144.108 180.845 144.726 180.845 145.446C180.845 146.526 181.085 147.342 181.565 147.894C182.045 148.434 182.729 148.704 183.617 148.704C183.989 148.704 184.307 148.662 184.571 148.578C184.835 148.482 185.057 148.362 185.237 148.218C185.417 148.062 185.561 147.882 185.669 147.678C185.789 147.462 185.885 147.24 185.957 147.012L187.667 147.408C187.559 147.852 187.391 148.248 187.163 148.596C186.947 148.932 186.671 149.226 186.335 149.478C185.999 149.718 185.603 149.904 185.147 150.036C184.703 150.168 184.187 150.234 183.599 150.234ZM189.923 150V144.24V140.64H191.615L191.507 143.556H191.813C191.981 142.836 192.203 142.248 192.479 141.792C192.767 141.324 193.127 140.976 193.559 140.748C194.003 140.52 194.519 140.406 195.107 140.406C196.151 140.406 196.943 140.778 197.483 141.522C198.035 142.266 198.311 143.4 198.311 144.924V150H196.331V145.122C196.331 144.078 196.175 143.316 195.863 142.836C195.551 142.344 195.083 142.098 194.459 142.098C193.919 142.098 193.457 142.272 193.073 142.62C192.701 142.956 192.413 143.4 192.209 143.952C192.005 144.504 191.891 145.104 191.867 145.752V150H189.923ZM204.402 150.234C203.61 150.234 202.926 150.03 202.35 149.622C201.774 149.202 201.336 148.626 201.036 147.894C200.736 147.15 200.586 146.292 200.586 145.32C200.586 144.372 200.724 143.532 201 142.8C201.288 142.056 201.708 141.474 202.26 141.054C202.824 140.634 203.514 140.424 204.33 140.424C204.978 140.424 205.512 140.556 205.932 140.82C206.352 141.072 206.688 141.42 206.94 141.864C207.204 142.308 207.402 142.8 207.534 143.34H207.894C207.834 142.992 207.774 142.632 207.714 142.26C207.654 141.876 207.606 141.51 207.57 141.162C207.534 140.802 207.516 140.484 207.516 140.208V137.31H209.496V145.392V150H207.786L207.858 147.408H207.534C207.39 147.996 207.186 148.5 206.922 148.92C206.658 149.34 206.316 149.664 205.896 149.892C205.488 150.12 204.99 150.234 204.402 150.234ZM204.942 148.578C205.362 148.578 205.734 148.482 206.058 148.29C206.382 148.098 206.652 147.846 206.868 147.534C207.084 147.222 207.246 146.886 207.354 146.526C207.474 146.154 207.534 145.806 207.534 145.482V145.23C207.534 144.99 207.498 144.732 207.426 144.456C207.366 144.168 207.264 143.886 207.12 143.61C206.988 143.322 206.82 143.064 206.616 142.836C206.412 142.608 206.166 142.428 205.878 142.296C205.602 142.152 205.29 142.08 204.942 142.08C204.438 142.08 204.012 142.224 203.664 142.512C203.328 142.788 203.07 143.172 202.89 143.664C202.71 144.156 202.62 144.72 202.62 145.356C202.62 146.004 202.71 146.574 202.89 147.066C203.082 147.546 203.352 147.918 203.7 148.182C204.048 148.446 204.462 148.578 204.942 148.578Z" fill="#F5F3FF" fill-opacity="0.68"/>
<g filter="url(#filter1_i_13896_13055)">
<path d="M4 201C4 189.954 12.9543 181 24 181C35.0457 181 44 189.954 44 201C44 212.046 35.0457 221 24 221C12.9543 221 4 212.046 4 201Z" fill="#22242F"/>
<mask id="mask1_13896_13055" style="mask-type:alpha" maskUnits="userSpaceOnUse" x="14" y="191" width="20" height="20">
<rect x="14" y="191" width="20" height="20" fill="#D9D9D9"/>
</mask>
<g mask="url(#mask1_13896_13055)">
<path d="M19.832 208.5C19.3737 208.5 18.9813 208.337 18.6549 208.01C18.3286 207.684 18.1654 207.292 18.1654 206.833V196C17.9293 196 17.7313 195.92 17.5716 195.76C17.4119 195.601 17.332 195.403 17.332 195.167C17.332 194.931 17.4119 194.733 17.5716 194.573C17.7313 194.413 17.9293 194.333 18.1654 194.333H21.4987C21.4987 194.097 21.5786 193.899 21.7383 193.74C21.898 193.58 22.0959 193.5 22.332 193.5H25.6654C25.9015 193.5 26.0994 193.58 26.2591 193.74C26.4188 193.899 26.4987 194.097 26.4987 194.333H29.832C30.0681 194.333 30.2661 194.413 30.4258 194.573C30.5855 194.733 30.6654 194.931 30.6654 195.167C30.6654 195.403 30.5855 195.601 30.4258 195.76C30.2661 195.92 30.0681 196 29.832 196V206.833C29.832 207.292 29.6688 207.684 29.3424 208.01C29.0161 208.337 28.6237 208.5 28.1654 208.5H19.832ZM22.9258 204.927C23.0855 204.767 23.1654 204.569 23.1654 204.333V198.5C23.1654 198.264 23.0855 198.066 22.9258 197.906C22.7661 197.747 22.5681 197.667 22.332 197.667C22.0959 197.667 21.898 197.747 21.7383 197.906C21.5786 198.066 21.4987 198.264 21.4987 198.5V204.333C21.4987 204.569 21.5786 204.767 21.7383 204.927C21.898 205.087 22.0959 205.167 22.332 205.167C22.5681 205.167 22.7661 205.087 22.9258 204.927ZM26.2591 204.927C26.4188 204.767 26.4987 204.569 26.4987 204.333V198.5C26.4987 198.264 26.4188 198.066 26.2591 197.906C26.0994 197.747 25.9015 197.667 25.6654 197.667C25.4293 197.667 25.2313 197.747 25.0716 197.906C24.9119 198.066 24.832 198.264 24.832 198.5V204.333C24.832 204.569 24.9119 204.767 25.0716 204.927C25.2313 205.087 25.4293 205.167 25.6654 205.167C25.9015 205.167 26.0994 205.087 26.2591 204.927Z" fill="#FF6B6B"/>
</g>
</g>
<rect x="66" y="183.715" width="6.23271" height="34.5704" rx="3.11635" fill="#22242F"/>
<rect x="76.6436" y="187.197" width="6.23271" height="27.6065" rx="3.11635" fill="#22242F"/>
<rect x="87.2871" y="179.136" width="6.23271" height="43.7285" rx="3.11635" fill="#22242F"/>
<rect x="97.9297" y="179.136" width="6.23271" height="43.7285" rx="3.11635" fill="#22242F"/>
<rect x="108.573" y="187.197" width="6.23271" height="27.6065" rx="3.11635" fill="#22242F"/>
<rect x="119.217" y="179.136" width="6.23271" height="43.7285" rx="3.11635" fill="#22242F"/>
<rect x="129.86" y="191.142" width="6.23271" height="19.7162" rx="3.11635" fill="#22242F"/>
<path d="M161.812 208.825C160.867 208.825 160.008 208.639 159.234 208.268C158.46 207.896 157.794 207.37 157.237 206.689C156.695 206.007 156.277 205.179 155.982 204.204C155.688 203.228 155.541 202.137 155.541 200.929C155.541 199.21 155.812 197.755 156.354 196.563C156.896 195.355 157.639 194.442 158.584 193.822C159.544 193.187 160.635 192.87 161.858 192.87C163.143 192.87 164.25 193.195 165.179 193.845C166.108 194.496 166.82 195.425 167.316 196.632C167.827 197.825 168.082 199.241 168.082 200.882C168.082 202.09 167.935 203.189 167.641 204.18C167.347 205.156 166.921 205.992 166.364 206.689C165.806 207.37 165.141 207.896 164.366 208.268C163.608 208.639 162.756 208.825 161.812 208.825ZM161.835 206.712C162.346 206.712 162.826 206.596 163.275 206.363C163.724 206.131 164.119 205.783 164.459 205.318C164.8 204.838 165.063 204.234 165.249 203.507C165.45 202.764 165.551 201.889 165.551 200.882C165.551 199.644 165.396 198.583 165.086 197.701C164.777 196.818 164.343 196.145 163.786 195.68C163.228 195.2 162.578 194.96 161.835 194.96C161.2 194.96 160.589 195.162 160 195.564C159.427 195.951 158.963 196.578 158.607 197.445C158.251 198.297 158.073 199.427 158.073 200.836C158.073 201.827 158.166 202.694 158.351 203.437C158.537 204.165 158.8 204.776 159.141 205.272C159.482 205.752 159.876 206.116 160.325 206.363C160.79 206.596 161.293 206.712 161.835 206.712ZM172.031 208.059C171.458 208.059 171.024 207.935 170.73 207.687C170.452 207.439 170.312 207.052 170.312 206.526C170.312 205.984 170.459 205.589 170.754 205.341C171.048 205.094 171.473 204.97 172.031 204.97C172.619 204.97 173.06 205.094 173.355 205.341C173.649 205.589 173.796 205.984 173.796 206.526C173.796 207.548 173.208 208.059 172.031 208.059ZM172.031 200.325C171.458 200.325 171.024 200.201 170.73 199.953C170.452 199.706 170.312 199.319 170.312 198.792C170.312 198.25 170.459 197.856 170.754 197.608C171.048 197.36 171.473 197.236 172.031 197.236C172.619 197.236 173.06 197.36 173.355 197.608C173.649 197.856 173.796 198.25 173.796 198.792C173.796 199.814 173.208 200.325 172.031 200.325ZM177.284 208.5V197.167H175.055V194.937C175.767 194.937 176.355 194.821 176.82 194.589C177.3 194.356 177.609 193.884 177.749 193.172H179.839V208.5H177.284ZM189.368 208.825C188.423 208.825 187.564 208.639 186.79 208.268C186.016 207.896 185.35 207.37 184.793 206.689C184.251 206.007 183.833 205.179 183.539 204.204C183.244 203.228 183.097 202.137 183.097 200.929C183.097 199.21 183.368 197.755 183.91 196.563C184.452 195.355 185.195 194.442 186.14 193.822C187.1 193.187 188.191 192.87 189.414 192.87C190.699 192.87 191.806 193.195 192.735 193.845C193.664 194.496 194.377 195.425 194.872 196.632C195.383 197.825 195.639 199.241 195.639 200.882C195.639 202.09 195.491 203.189 195.197 204.18C194.903 205.156 194.477 205.992 193.92 206.689C193.363 207.37 192.697 207.896 191.923 208.268C191.164 208.639 190.312 208.825 189.368 208.825ZM189.391 206.712C189.902 206.712 190.382 206.596 190.831 206.363C191.28 206.131 191.675 205.783 192.016 205.318C192.356 204.838 192.619 204.234 192.805 203.507C193.006 202.764 193.107 201.889 193.107 200.882C193.107 199.644 192.952 198.583 192.643 197.701C192.333 196.818 191.899 196.145 191.342 195.68C190.785 195.2 190.134 194.96 189.391 194.96C188.756 194.96 188.145 195.162 187.556 195.564C186.984 195.951 186.519 196.578 186.163 197.445C185.807 198.297 185.629 199.427 185.629 200.836C185.629 201.827 185.722 202.694 185.908 203.437C186.093 204.165 186.357 204.776 186.697 205.272C187.038 205.752 187.433 206.116 187.882 206.363C188.346 206.596 188.849 206.712 189.391 206.712Z" fill="#F4F2FF"/>
<g filter="url(#filter2_i_13896_13055)">
<path d="M219.093 201C219.093 189.954 228.047 181 239.093 181C250.138 181 259.093 189.954 259.093 201C259.093 212.046 250.138 221 239.093 221C228.047 221 219.093 212.046 219.093 201Z" fill="#9178E6"/>
<mask id="mask2_13896_13055" style="mask-type:alpha" maskUnits="userSpaceOnUse" x="229" y="191" width="21" height="20">
<rect x="229.093" y="191" width="20" height="20" fill="#D9D9D9"/>
</mask>
<g mask="url(#mask2_13896_13055)">
<path d="M231.593 207.668V202.668L238.259 201.001L231.593 199.334V194.334L247.426 201.001L231.593 207.668Z" fill="#F4F2FF"/>
</g>
</g>
<defs>
<filter id="filter0_i_13896_13055" x="71.5459" y="0" width="120" height="120" filterUnits="userSpaceOnUse" color-interpolation-filters="sRGB">
<feFlood flood-opacity="0" result="BackgroundImageFix"/>
<feBlend mode="normal" in="SourceGraphic" in2="BackgroundImageFix" result="shape"/>
<feColorMatrix in="SourceAlpha" type="matrix" values="0 0 0 0 0 0 0 0 0 0 0 0 0 0 0 0 0 0 127 0" result="hardAlpha"/>
<feOffset dy="-7.79636"/>
<feComposite in2="hardAlpha" operator="arithmetic" k2="-1" k3="1"/>
<feColorMatrix type="matrix" values="0 0 0 0 0 0 0 0 0 0 0 0 0 0 0 0 0 0 0.15 0"/>
<feBlend mode="normal" in2="shape" result="effect1_innerShadow_13896_13055"/>
</filter>
<filter id="filter1_i_13896_13055" x="0" y="177" width="48" height="48" filterUnits="userSpaceOnUse" color-interpolation-filters="sRGB">
<feFlood flood-opacity="0" result="BackgroundImageFix"/>
<feBlend mode="normal" in="SourceGraphic" in2="BackgroundImageFix" result="shape"/>
<feColorMatrix in="SourceAlpha" type="matrix" values="0 0 0 0 0 0 0 0 0 0 0 0 0 0 0 0 0 0 127 0" result="hardAlpha"/>
<feOffset dy="-2"/>
<feComposite in2="hardAlpha" operator="arithmetic" k2="-1" k3="1"/>
<feColorMatrix type="matrix" values="0 0 0 0 0 0 0 0 0 0 0 0 0 0 0 0 0 0 0.15 0"/>
<feBlend mode="normal" in2="shape" result="effect1_innerShadow_13896_13055"/>
</filter>
<filter id="filter2_i_13896_13055" x="215.093" y="177" width="48" height="48" filterUnits="userSpaceOnUse" color-interpolation-filters="sRGB">
<feFlood flood-opacity="0" result="BackgroundImageFix"/>
<feBlend mode="normal" in="SourceGraphic" in2="BackgroundImageFix" result="shape"/>
<feColorMatrix in="SourceAlpha" type="matrix" values="0 0 0 0 0 0 0 0 0 0 0 0 0 0 0 0 0 0 127 0" result="hardAlpha"/>
<feOffset dy="-2"/>
<feComposite in2="hardAlpha" operator="arithmetic" k2="-1" k3="1"/>
<feColorMatrix type="matrix" values="0 0 0 0 0 0 0 0 0 0 0 0 0 0 0 0 0 0 0.15 0"/>
<feBlend mode="normal" in2="shape" result="effect1_innerShadow_13896_13055"/>
</filter>
</defs>
</svg>
