<svg width="25" height="25" viewBox="0 0 25 25" fill="none" xmlns="http://www.w3.org/2000/svg">
<mask id="mask0_13900_26866" style="mask-type:alpha" maskUnits="userSpaceOnUse" x="0" y="0" width="25" height="25">
<rect width="24.8786" height="24.8786" fill="#D9D9D9"/>
</mask>
<g mask="url(#mask0_13900_26866)">
<path d="M13.1779 17.3243C13.3766 17.1256 13.4759 16.8794 13.4759 16.5857C13.4759 16.292 13.3766 16.0458 13.1779 15.8471C12.9792 15.6484 12.733 15.5491 12.4393 15.5491C12.1456 15.5491 11.8994 15.6484 11.7007 15.8471C11.502 16.0458 11.4027 16.292 11.4027 16.5857C11.4027 16.8794 11.502 17.1256 11.7007 17.3243C11.8994 17.523 12.1456 17.6223 12.4393 17.6223C12.733 17.6223 12.9792 17.523 13.1779 17.3243ZM13.1779 13.1779C13.3766 12.9792 13.4759 12.733 13.4759 12.4393V8.29285C13.4759 7.99915 13.3766 7.75295 13.1779 7.55427C12.9792 7.35559 12.733 7.25625 12.4393 7.25625C12.1456 7.25625 11.8994 7.35559 11.7007 7.55427C11.502 7.75295 11.4027 7.99915 11.4027 8.29285V12.4393C11.4027 12.733 11.502 12.9792 11.7007 13.1779C11.8994 13.3765 12.1456 13.4759 12.4393 13.4759C12.733 13.4759 12.9792 13.3765 13.1779 13.1779ZM12.4393 22.8053C11.0053 22.8053 9.65775 22.5332 8.39654 21.989C7.13534 21.4448 6.03826 20.7062 5.10532 19.7733C4.17237 18.8403 3.43379 17.7433 2.88957 16.482C2.34535 15.2208 2.07324 13.8733 2.07324 12.4393C2.07324 11.0053 2.34535 9.65772 2.88957 8.39651C3.43379 7.13531 4.17237 6.03823 5.10532 5.10529C6.03826 4.17234 7.13534 3.43376 8.39654 2.88954C9.65775 2.34532 11.0053 2.07321 12.4393 2.07321C13.8733 2.07321 15.2209 2.34532 16.4821 2.88954C17.7433 3.43376 18.8404 4.17234 19.7733 5.10529C20.7063 6.03823 21.4448 7.13531 21.9891 8.39651C22.5333 9.65772 22.8054 11.0053 22.8054 12.4393C22.8054 13.8733 22.5333 15.2208 21.9891 16.482C21.4448 17.7433 20.7063 18.8403 19.7733 19.7733C18.8404 20.7062 17.7433 21.4448 16.4821 21.989C15.2209 22.5332 13.8733 22.8053 12.4393 22.8053ZM12.4393 20.7321C14.7544 20.7321 16.7153 19.9288 18.3221 18.322C19.9288 16.7153 20.7322 14.7544 20.7322 12.4393C20.7322 10.1242 19.9288 8.16328 18.3221 6.55654C16.7153 4.9498 14.7544 4.14643 12.4393 4.14643C10.1242 4.14643 8.16331 4.9498 6.55657 6.55654C4.94983 8.16328 4.14646 10.1242 4.14646 12.4393C4.14646 14.7544 4.94983 16.7153 6.55657 18.322C8.16331 19.9288 10.1242 20.7321 12.4393 20.7321Z" fill="#FB7E5B"/>
</g>
</svg>
