<svg width="25" height="25" viewBox="0 0 25 25" fill="none" xmlns="http://www.w3.org/2000/svg">
<mask id="mask0_13900_26865" style="mask-type:alpha" maskUnits="userSpaceOnUse" x="0" y="0" width="25" height="25">
<rect width="24.8786" height="24.8786" fill="#D9D9D9"/>
</mask>
<g mask="url(#mask0_13900_26865)">
<path d="M12.4393 22.8053C11.0053 22.8053 9.65775 22.5332 8.39654 21.989C7.13534 21.4448 6.03826 20.7062 5.10532 19.7733C4.17237 18.8403 3.43379 17.7433 2.88957 16.482C2.34535 15.2208 2.07324 13.8733 2.07324 12.4393C2.07324 11.0053 2.34535 9.65772 2.88957 8.39651C3.43379 7.13531 4.17237 6.03823 5.10532 5.10529C6.03826 4.17234 7.13534 3.43376 8.39654 2.88954C9.65775 2.34532 11.0053 2.07321 12.4393 2.07321C13.8733 2.07321 15.2209 2.34532 16.4821 2.88954C17.7433 3.43376 18.8404 4.17234 19.7733 5.10529C20.7063 6.03823 21.4448 7.13531 21.9891 8.39651C22.5333 9.65772 22.8054 11.0053 22.8054 12.4393C22.8054 13.8733 22.5333 15.2208 21.9891 16.482C21.4448 17.7433 20.7063 18.8403 19.7733 19.7733C18.8404 20.7062 17.7433 21.4448 16.4821 21.989C15.2209 22.5332 13.8733 22.8053 12.4393 22.8053ZM12.4393 20.7321C14.7544 20.7321 16.7153 19.9288 18.3221 18.322C19.9288 16.7153 20.7322 14.7544 20.7322 12.4393C20.7322 10.1242 19.9288 8.16328 18.3221 6.55654C16.7153 4.9498 14.7544 4.14643 12.4393 4.14643C10.1242 4.14643 8.16331 4.9498 6.55657 6.55654C4.94983 8.16328 4.14646 10.1242 4.14646 12.4393C4.14646 14.7544 4.94983 16.7153 6.55657 18.322C8.16331 19.9288 10.1242 20.7321 12.4393 20.7321Z" fill="#F5B53D"/>
<path d="M17.8971 13.3352C17.533 13.6993 17.1183 13.9724 16.653 14.1544C16.1878 14.3365 15.7191 14.4275 15.2471 14.4275C14.7751 14.4275 14.3064 14.3365 13.8411 14.1544C13.3759 13.9724 12.9612 13.6993 12.597 13.3352L11.0798 11.8179C10.8775 11.6157 10.6483 11.4639 10.392 11.3628C10.1358 11.2616 9.87281 11.2111 9.60308 11.2111C9.33335 11.2111 9.07037 11.2616 8.81413 11.3628C8.55789 11.4639 8.32863 11.6157 8.12633 11.8179L7.17555 12.7687C7.0272 12.9171 6.84176 12.9946 6.61924 13.0014C6.39672 13.0081 6.20454 12.9306 6.0427 12.7687C5.88087 12.6204 5.79658 12.4316 5.78983 12.2023C5.78309 11.973 5.86064 11.7775 6.02247 11.6157L6.97325 10.6649C7.33738 10.3007 7.74872 10.0276 8.20725 9.84558C8.66578 9.66351 9.13106 9.57248 9.60308 9.57248C10.0751 9.57248 10.537 9.66351 10.9888 9.84558C11.4406 10.0276 11.8485 10.3007 12.2127 10.6649L13.7299 12.1821C13.9457 12.3979 14.1817 12.5563 14.4379 12.6575C14.6942 12.7586 14.9571 12.8092 15.2269 12.8092C15.4966 12.8092 15.7629 12.7586 16.0259 12.6575C16.2889 12.5563 16.5283 12.3979 16.7441 12.1821L17.6949 11.2313C17.8567 11.0695 18.0489 10.9885 18.2714 10.9885C18.4939 10.9885 18.6861 11.0695 18.8479 11.2313C19.0098 11.3931 19.0907 11.5853 19.0907 11.8078C19.0907 12.0304 19.0098 12.2225 18.8479 12.3844L17.8971 13.3352Z" fill="#F5B53D"/>
</g>
</svg>
