<svg width="25" height="25" viewBox="0 0 25 25" fill="none" xmlns="http://www.w3.org/2000/svg">
<mask id="mask0_13900_26864" style="mask-type:alpha" maskUnits="userSpaceOnUse" x="0" y="0" width="25" height="25">
<rect width="24.8786" height="24.8786" fill="#D9D9D9"/>
</mask>
<g mask="url(#mask0_13900_26864)">
<path d="M10.9881 14.3052L8.75936 12.0765C8.56931 11.8864 8.32744 11.7914 8.03373 11.7914C7.74003 11.7914 7.49815 11.8864 7.30811 12.0765C7.11806 12.2665 7.02304 12.5084 7.02304 12.8021C7.02304 13.0958 7.11806 13.3377 7.30811 13.5277L10.2624 16.482C10.4698 16.6894 10.7116 16.793 10.9881 16.793C11.2645 16.793 11.5064 16.6894 11.7137 16.482L17.5705 10.6252C17.7606 10.4352 17.8556 10.1933 17.8556 9.89959C17.8556 9.60589 17.7606 9.36401 17.5705 9.17397C17.3805 8.98392 17.1386 8.8889 16.8449 8.8889C16.5512 8.8889 16.3093 8.98392 16.1193 9.17397L10.9881 14.3052ZM12.4393 22.8053C11.0053 22.8053 9.65775 22.5332 8.39654 21.989C7.13534 21.4448 6.03826 20.7062 5.10532 19.7733C4.17237 18.8403 3.43379 17.7433 2.88957 16.482C2.34535 15.2208 2.07324 13.8733 2.07324 12.4393C2.07324 11.0053 2.34535 9.65772 2.88957 8.39651C3.43379 7.13531 4.17237 6.03823 5.10532 5.10529C6.03826 4.17234 7.13534 3.43376 8.39654 2.88954C9.65775 2.34532 11.0053 2.07321 12.4393 2.07321C13.8733 2.07321 15.2209 2.34532 16.4821 2.88954C17.7433 3.43376 18.8404 4.17234 19.7733 5.10529C20.7063 6.03823 21.4448 7.13531 21.9891 8.39651C22.5333 9.65772 22.8054 11.0053 22.8054 12.4393C22.8054 13.8733 22.5333 15.2208 21.9891 16.482C21.4448 17.7433 20.7063 18.8403 19.7733 19.7733C18.8404 20.7062 17.7433 21.4448 16.4821 21.989C15.2209 22.5332 13.8733 22.8053 12.4393 22.8053ZM12.4393 20.7321C14.7544 20.7321 16.7153 19.9288 18.3221 18.322C19.9288 16.7153 20.7322 14.7544 20.7322 12.4393C20.7322 10.1242 19.9288 8.16328 18.3221 6.55654C16.7153 4.9498 14.7544 4.14643 12.4393 4.14643C10.1242 4.14643 8.16331 4.9498 6.55657 6.55654C4.94983 8.16328 4.14646 10.1242 4.14646 12.4393C4.14646 14.7544 4.94983 16.7153 6.55657 18.322C8.16331 19.9288 10.1242 20.7321 12.4393 20.7321Z" fill="#00C386"/>
</g>
</svg>
