<svg width="25" height="25" viewBox="0 0 25 25" fill="none" xmlns="http://www.w3.org/2000/svg">
<mask id="mask0_13949_4943" style="mask-type:alpha" maskUnits="userSpaceOnUse" x="0" y="0" width="25" height="25">
<rect width="24.88" height="24.88" fill="#D9D9D9"/>
</mask>
<g mask="url(#mask0_13949_4943)">
<path d="M12.44 22.8067C11.006 22.8067 9.65831 22.5345 8.39703 21.9903C7.13575 21.446 6.03861 20.7074 5.10561 19.7744C4.17261 18.8414 3.43399 17.7443 2.88974 16.483C2.34549 15.2217 2.07336 13.8741 2.07336 12.44C2.07336 11.0059 2.34549 9.65828 2.88974 8.397C3.43399 7.13572 4.17261 6.03858 5.10561 5.10558C6.03861 4.17258 7.13575 3.43396 8.39703 2.88971C9.65831 2.34546 11.006 2.07333 12.44 2.07333C13.8741 2.07333 15.2218 2.34546 16.483 2.88971C17.7443 3.43396 18.8414 4.17258 19.7744 5.10558C20.7074 6.03858 21.4461 7.13572 21.9903 8.397C22.5346 9.65828 22.8067 11.0059 22.8067 12.44C22.8067 13.8741 22.5346 15.2217 21.9903 16.483C21.4461 17.7443 20.7074 18.8414 19.7744 19.7744C18.8414 20.7074 17.7443 21.446 16.483 21.9903C15.2218 22.5345 13.8741 22.8067 12.44 22.8067ZM12.44 20.7333C14.7553 20.7333 16.7163 19.9299 18.3231 18.3231C19.9299 16.7163 20.7334 14.7552 20.7334 12.44C20.7334 10.1248 19.9299 8.16375 18.3231 6.55692C16.7163 4.95008 14.7553 4.14667 12.44 4.14667C10.1248 4.14667 8.16378 4.95008 6.55695 6.55692C4.95011 8.16375 4.1467 10.1248 4.1467 12.44C4.1467 14.7552 4.95011 16.7163 6.55695 18.3231C8.16378 19.9299 10.1248 20.7333 12.44 20.7333Z" fill="#9178E6"/>
<path d="M12.4396 16.5867C11.0055 16.5867 9.73131 16.2023 8.6169 15.4334C7.50248 14.6646 6.70338 13.6668 6.2196 12.4401C6.70338 11.2306 7.50248 10.2371 8.6169 9.45965C9.73131 8.68215 11.0055 8.2934 12.4396 8.2934C13.8564 8.2934 15.122 8.68215 16.2364 9.45965C17.3508 10.2371 18.1585 11.2306 18.6596 12.4401C18.1585 13.6668 17.3508 14.6646 16.2364 15.4334C15.122 16.2023 13.8564 16.5867 12.4396 16.5867ZM12.4396 15.0317C13.3899 15.0317 14.2624 14.8028 15.0572 14.3449C15.852 13.8871 16.474 13.2521 16.9232 12.4401C16.474 11.6453 15.852 11.0146 15.0572 10.5481C14.2624 10.0816 13.3899 9.8484 12.4396 9.8484C11.472 9.8484 10.5909 10.0816 9.7961 10.5481C9.00133 11.0146 8.37933 11.6453 7.9301 12.4401C8.37933 13.2521 9.00133 13.8871 9.7961 14.3449C10.5909 14.8028 11.472 15.0317 12.4396 15.0317ZM12.4396 13.9951C12.8715 13.9951 13.2387 13.8482 13.5411 13.5545C13.8434 13.2608 13.9946 12.8893 13.9946 12.4401C13.9946 12.0081 13.8434 11.641 13.5411 11.3386C13.2387 11.0362 12.8715 10.8851 12.4396 10.8851C11.9904 10.8851 11.6189 11.0362 11.3252 11.3386C11.0315 11.641 10.8846 12.0081 10.8846 12.4401C10.8846 12.8893 11.0315 13.2608 11.3252 13.5545C11.6189 13.8482 11.9904 13.9951 12.4396 13.9951Z" fill="#9178E6"/>
</g>
</svg>
