<svg width="181" height="80" viewBox="0 0 181 80" fill="none" xmlns="http://www.w3.org/2000/svg">
<path d="M162.094 1.03711C171.826 1.03725 179.716 8.92673 179.716 18.6592V60.9736C179.716 70.7059 171.826 78.5956 162.094 78.5957H18.6592C8.92677 78.5957 1.03731 70.706 1.03711 60.9736V18.6592C1.03711 8.92664 8.92664 1.03711 18.6592 1.03711H162.094Z" fill="#E879C0"/>
<path d="M162.094 1.03711C171.826 1.03725 179.716 8.92673 179.716 18.6592V60.9736C179.716 70.7059 171.826 78.5956 162.094 78.5957H18.6592C8.92677 78.5957 1.03731 70.706 1.03711 60.9736V18.6592C1.03711 8.92664 8.92664 1.03711 18.6592 1.03711H162.094Z" stroke="#E879C0" stroke-width="2.07321"/>
<path d="M63.1355 17.0732V6.81083H66.9139C67.4426 6.81083 67.9246 6.8523 68.36 6.93523C68.8057 7.01815 69.1944 7.14255 69.5261 7.3084C69.8682 7.47426 70.1585 7.68158 70.3969 7.93037C70.6353 8.16879 70.8115 8.44867 70.9256 8.77002C71.0499 9.081 71.1121 9.42827 71.1121 9.81181C71.1121 10.1746 71.0551 10.5063 70.9411 10.807C70.8374 11.0972 70.6768 11.3564 70.4591 11.5844C70.2414 11.8125 69.9667 11.9991 69.635 12.1442C69.3033 12.2789 68.9197 12.3722 68.4843 12.4241V12.6262C68.9094 12.678 69.267 12.7869 69.5572 12.9527C69.8475 13.1186 70.0911 13.357 70.288 13.668C70.485 13.9686 70.6509 14.3625 70.7856 14.8497L71.4387 17.0732H69.5728L69.0752 15.0363C68.9716 14.6113 68.8161 14.2744 68.6087 14.0256C68.4118 13.7665 68.1578 13.5799 67.8468 13.4658C67.5359 13.3518 67.1627 13.2948 66.7273 13.2948H64.8303V17.0732H63.1355ZM64.8303 11.9576H66.7739C67.624 11.9576 68.2667 11.8021 68.702 11.4911C69.1478 11.1801 69.3706 10.7033 69.3706 10.0606C69.3706 9.4179 69.1581 8.94624 68.7331 8.64563C68.3185 8.33465 67.6758 8.17915 66.805 8.17915H64.8303V11.9576ZM73.5406 17.0732V6.81083H75.251V17.0732H73.5406ZM74.5513 17.0732V15.6427H80.9731V17.0732H74.5513ZM74.5513 12.5174V11.1957H80.2267V12.5174H74.5513ZM74.5513 8.2258V6.81083H80.9575V8.2258H74.5513ZM87.2087 17.2754C86.452 17.2754 85.773 17.1614 85.1718 16.9333C84.5809 16.7052 84.073 16.3683 83.648 15.9226C83.2334 15.4769 82.9172 14.9326 82.6995 14.29C82.4818 13.6369 82.373 12.8957 82.373 12.0664C82.373 11.2164 82.4818 10.4545 82.6995 9.78071C82.9276 9.10692 83.2489 8.53678 83.6636 8.07031C84.0886 7.59347 84.5861 7.23066 85.1563 6.98187C85.7368 6.73309 86.3846 6.60869 87.0999 6.60869C87.6597 6.60869 88.1728 6.68644 88.6393 6.84193C89.1057 6.98706 89.51 7.20474 89.8521 7.49499C90.1942 7.77488 90.4585 8.11696 90.6451 8.52123C90.8421 8.92551 90.9405 9.37644 90.9405 9.87401L89.3545 10.2938C89.3649 9.7859 89.2612 9.37125 89.0435 9.0499C88.8259 8.71819 88.5408 8.4694 88.1883 8.30355C87.8463 8.13769 87.4679 8.05476 87.0533 8.05476C86.6904 8.05476 86.3328 8.12732 85.9804 8.27245C85.6279 8.41757 85.3118 8.65081 85.0319 8.97216C84.7624 9.28314 84.5447 9.68742 84.3788 10.185C84.2233 10.6826 84.1456 11.2838 84.1456 11.9887C84.1456 12.8905 84.2751 13.6265 84.5343 14.1967C84.7935 14.7564 85.1563 15.1711 85.6227 15.4406C86.0996 15.6997 86.649 15.8293 87.2709 15.8293C87.8722 15.8293 88.3542 15.7101 88.717 15.4717C89.0798 15.2333 89.3442 14.9119 89.51 14.5076C89.6862 14.1034 89.7847 13.6473 89.8054 13.1393L91.3293 13.4037C91.3189 13.9427 91.236 14.4454 91.0805 14.9119C90.925 15.3784 90.6814 15.793 90.3497 16.1558C90.0283 16.5083 89.6085 16.783 89.0902 16.9799C88.5719 17.1769 87.9447 17.2754 87.2087 17.2754ZM92.2957 17.0732L95.872 6.81083H98.3599L101.936 17.0732H100.101L97.2248 8.1947H97.0227L94.1461 17.0732H92.2957ZM94.0994 14.8653V13.6369H100.366V14.8653H94.0994ZM103.739 17.0732V6.81083H105.434V17.0732H103.739ZM104.205 17.0732V15.6116H110.067V17.0732H104.205ZM111.775 17.0732V6.81083H113.47V17.0732H111.775ZM112.241 17.0732V15.6116H118.103V17.0732H112.241Z" fill="#0E0A18"/>
<rect x="2.07324" y="23.0732" width="176.606" height="54.9583" rx="16.5857" fill="#090C18"/>
<path d="M69.2351 65.5923C61.0784 65.5923 54.4294 58.8528 54.4294 50.5524C54.4294 42.2521 61.064 35.5126 69.2351 35.5126C72.6242 35.5126 75.8553 36.6796 78.4402 38.7948L78.4689 38.7073C78.8566 37.6424 79.8332 36.913 80.9389 36.8255H81.1544C82.2027 36.8255 83.1648 37.3944 83.6675 38.3134L86.7406 43.9005C87.2863 44.907 87.2145 46.147 86.5396 47.0514C86.0082 47.7954 85.1466 48.233 84.2275 48.233C84.0982 48.233 83.9833 48.233 83.8541 48.2038C83.969 48.9624 84.0265 49.7501 84.0265 50.5378C84.0265 58.8236 77.3919 65.5777 69.2208 65.5777L69.2351 65.5923Z" fill="#E879C0"/>
<path d="M69.2347 63.5353C62.1981 63.5353 56.4683 57.7149 56.4683 50.5669C56.4683 43.419 62.1981 37.5985 69.2347 37.5985C76.2714 37.5985 82.0012 43.419 82.0012 50.5669C82.0012 57.7149 76.2714 63.5353 69.2347 63.5353ZM69.2347 39.3053C63.1172 39.3053 58.1484 44.3526 58.1484 50.5669C58.1484 56.7813 63.1172 61.8286 69.2347 61.8286C75.3523 61.8286 80.321 56.7813 80.321 50.5669C80.321 44.3526 75.3523 39.3053 69.2347 39.3053Z" fill="#2C0A20"/>
<path d="M69.2345 59.1298C64.5817 59.1298 60.8049 55.2933 60.8049 50.5669C60.8049 45.8405 64.5817 42.0039 69.2345 42.0039C73.8873 42.0039 77.6642 45.8405 77.6642 50.5669C77.6642 55.2933 73.8873 59.1298 69.2345 59.1298ZM69.2345 43.7107C65.5152 43.7107 62.4851 46.7887 62.4851 50.5669C62.4851 54.3451 65.5152 57.423 69.2345 57.423C72.9539 57.423 75.984 54.3451 75.984 50.5669C75.984 46.7887 72.9539 43.7107 69.2345 43.7107Z" fill="#2C0A20"/>
<path d="M69.2345 54.5785C67.0517 54.5785 65.2854 52.7842 65.2854 50.5669C65.2854 48.3496 67.0517 46.5553 69.2345 46.5553C71.4173 46.5553 73.1837 48.3496 73.1837 50.5669C73.1837 52.7842 71.4173 54.5785 69.2345 54.5785ZM69.2345 48.2621C67.9852 48.2621 66.9656 49.2978 66.9656 50.5669C66.9656 51.836 67.9852 52.8717 69.2345 52.8717C70.4839 52.8717 71.5035 51.836 71.5035 50.5669C71.5035 49.2978 70.4839 48.2621 69.2345 48.2621Z" fill="#2C0A20"/>
<path d="M69.2348 51.413C68.9476 51.413 68.6604 51.2671 68.5025 50.99C68.2727 50.5815 68.4019 50.0564 68.804 49.823L81.8577 42.1207C82.2598 41.8873 82.7768 42.0186 83.0065 42.427C83.2363 42.8355 83.1071 43.3606 82.705 43.594L69.6513 51.2963C69.522 51.3693 69.3784 51.413 69.2348 51.413Z" fill="#2C0A20"/>
<path d="M79.4597 44.3381L81.1686 39.7576L84.2418 45.3446L79.4597 44.3381Z" fill="#2C0A20"/>
<path d="M84.2425 46.1906C84.2425 46.1906 84.1277 46.1906 84.0702 46.176L79.2881 45.1695C79.044 45.1111 78.843 44.9652 78.7281 44.7464C78.6132 44.5276 78.5989 44.265 78.685 44.0316L80.3796 39.4511C80.4944 39.1448 80.7817 38.926 81.0976 38.8968C81.4135 38.8822 81.7294 39.0427 81.8874 39.3344L84.9606 44.9215C85.1185 45.2132 85.1042 45.5779 84.9031 45.8405C84.7451 46.0593 84.4867 46.1906 84.2282 46.1906H84.2425ZM80.595 43.7107L82.6198 44.1338L81.3274 41.7706L80.6093 43.7107H80.595Z" fill="#2C0A20"/>
<path d="M100.165 58.0524V55.0172H93.7211V51.6586C94.5503 49.6849 95.3216 47.819 96.0348 46.0609C96.7479 44.3028 97.345 42.5116 97.826 40.6871H101.956C101.574 42.4784 101.035 44.3111 100.339 46.1853C99.6587 48.0429 98.9704 49.8673 98.2738 51.6586H100.165V48.4741H104.394V51.6586H105.787V55.0172H104.394V58.0524H100.165ZM106.326 58.0524L110.082 40.6871H113.914L110.157 58.0524H106.326ZM119.503 58.326C118.392 58.326 117.422 58.069 116.592 57.5548C115.763 57.0241 115.133 56.3109 114.701 55.4152C114.287 54.503 114.129 53.4747 114.229 52.3303L118.135 51.9074C118.118 52.803 118.243 53.5411 118.508 54.1216C118.773 54.6855 119.105 54.9674 119.503 54.9674C119.918 54.9674 120.233 54.6855 120.448 54.1216C120.681 53.5411 120.797 52.8279 120.797 51.982C120.797 51.103 120.681 50.4229 120.448 49.942C120.233 49.4444 119.943 49.1956 119.578 49.1956C119.263 49.1956 118.964 49.3697 118.682 49.718C118.417 50.0498 118.234 50.4644 118.135 50.962L114.552 50.3649L115.323 40.6871H124.305L124.528 44.0457H119.08L118.757 47.0809C119.005 46.6994 119.362 46.3926 119.826 46.1604C120.307 45.9282 120.797 45.8121 121.294 45.8121C122.024 45.8121 122.671 46.0692 123.235 46.5833C123.799 47.0975 124.238 47.8024 124.553 48.698C124.885 49.5771 125.051 50.5805 125.051 51.7083C125.051 53.0352 124.819 54.1962 124.354 55.1913C123.907 56.1865 123.268 56.9577 122.439 57.505C121.609 58.0524 120.631 58.326 119.503 58.326Z" fill="#E879C0"/>
</svg>
