<svg width="265" height="226" viewBox="0 0 265 226" fill="none" xmlns="http://www.w3.org/2000/svg">
<g filter="url(#filter0_i_13896_13058)">
<path d="M72.0459 59.9999C72.0459 26.863 98.9087 0.000244141 132.046 0.000244141C165.183 0.000244141 192.045 26.863 192.045 59.9999C192.045 93.1369 165.183 120 132.046 120C98.9087 120 72.0459 93.1369 72.0459 59.9999Z" fill="#E879C0"/>
<mask id="mask0_13896_13058" style="mask-type:alpha" maskUnits="userSpaceOnUse" x="107" y="35" width="51" height="50">
<rect x="107.046" y="35" width="50" height="50" fill="#D9D9D9"/>
</mask>
<g mask="url(#mask0_13896_13058)">
<path d="M136.213 74.5866V45.4199H144.546V74.5866H136.213ZM119.546 74.5866V45.4199H127.879V74.5866H119.546Z" fill="#F4F2FF"/>
</g>
</g>
<path d="M88.9976 150V138.12H93.3536C93.9776 138.12 94.5416 138.168 95.0456 138.264C95.5496 138.36 95.9996 138.504 96.3956 138.696C96.7916 138.888 97.1276 139.128 97.4036 139.416C97.6796 139.692 97.8836 140.016 98.0156 140.388C98.1596 140.748 98.2316 141.15 98.2316 141.594C98.2316 142.014 98.1656 142.398 98.0336 142.746C97.9136 143.082 97.7216 143.382 97.4576 143.646C97.2056 143.91 96.8876 144.126 96.5036 144.294C96.1316 144.45 95.6936 144.558 95.1896 144.618V144.852C95.6816 144.912 96.0956 145.038 96.4316 145.23C96.7676 145.422 97.0496 145.692 97.2776 146.04C97.5056 146.388 97.6976 146.844 97.8536 147.408L98.5916 150H96.4496L95.8736 147.624C95.7536 147.144 95.5736 146.76 95.3336 146.472C95.0936 146.172 94.7936 145.956 94.4336 145.824C94.0736 145.692 93.6476 145.626 93.1556 145.626H90.9596V150H88.9976ZM90.9596 144.078H93.2096C94.1936 144.078 94.9376 143.898 95.4416 143.538C95.9576 143.178 96.2156 142.626 96.2156 141.882C96.2156 141.138 95.9696 140.592 95.4776 140.244C94.9976 139.884 94.2536 139.704 93.2456 139.704H90.9596V144.078ZM105.021 150.234C104.277 150.234 103.617 150.126 103.041 149.91C102.465 149.682 101.979 149.364 101.583 148.956C101.187 148.536 100.887 148.038 100.683 147.462C100.479 146.874 100.377 146.214 100.377 145.482C100.377 144.75 100.479 144.078 100.683 143.466C100.887 142.842 101.175 142.302 101.547 141.846C101.931 141.39 102.399 141.036 102.951 140.784C103.515 140.532 104.151 140.406 104.859 140.406C105.519 140.406 106.107 140.514 106.623 140.73C107.151 140.946 107.595 141.276 107.955 141.72C108.315 142.152 108.585 142.698 108.765 143.358C108.945 144.006 109.011 144.768 108.963 145.644L101.637 145.698V144.474L107.811 144.42L107.127 145.176C107.199 144.456 107.139 143.862 106.947 143.394C106.755 142.926 106.479 142.578 106.119 142.35C105.759 142.122 105.345 142.008 104.877 142.008C104.349 142.008 103.887 142.146 103.491 142.422C103.107 142.686 102.807 143.076 102.591 143.592C102.375 144.108 102.267 144.726 102.267 145.446C102.267 146.526 102.507 147.342 102.987 147.894C103.467 148.434 104.151 148.704 105.039 148.704C105.411 148.704 105.729 148.662 105.993 148.578C106.257 148.482 106.479 148.362 106.659 148.218C106.839 148.062 106.983 147.882 107.091 147.678C107.211 147.462 107.307 147.24 107.379 147.012L109.089 147.408C108.981 147.852 108.813 148.248 108.585 148.596C108.369 148.932 108.093 149.226 107.757 149.478C107.421 149.718 107.025 149.904 106.569 150.036C106.125 150.168 105.609 150.234 105.021 150.234ZM115.502 150.234C114.698 150.234 114.002 150.108 113.414 149.856C112.838 149.604 112.364 149.256 111.992 148.812C111.62 148.368 111.344 147.858 111.164 147.282C110.984 146.706 110.894 146.088 110.894 145.428C110.894 144.72 110.99 144.066 111.182 143.466C111.374 142.854 111.656 142.32 112.028 141.864C112.412 141.396 112.886 141.036 113.45 140.784C114.014 140.532 114.668 140.406 115.412 140.406C116.144 140.406 116.78 140.532 117.32 140.784C117.872 141.024 118.322 141.372 118.67 141.828C119.018 142.272 119.246 142.794 119.354 143.394L117.518 143.952C117.482 143.604 117.38 143.28 117.212 142.98C117.044 142.68 116.804 142.446 116.492 142.278C116.18 142.098 115.802 142.008 115.358 142.008C114.938 142.008 114.572 142.092 114.26 142.26C113.948 142.416 113.69 142.65 113.486 142.962C113.282 143.262 113.126 143.616 113.018 144.024C112.922 144.432 112.874 144.882 112.874 145.374C112.874 146.046 112.964 146.634 113.144 147.138C113.336 147.63 113.63 148.014 114.026 148.29C114.422 148.554 114.92 148.686 115.52 148.686C116.024 148.686 116.438 148.596 116.762 148.416C117.086 148.236 117.338 147.996 117.518 147.696C117.698 147.384 117.818 147.024 117.878 146.616L119.624 147.03C119.552 147.522 119.408 147.972 119.192 148.38C118.976 148.776 118.694 149.112 118.346 149.388C117.998 149.664 117.584 149.874 117.104 150.018C116.636 150.162 116.102 150.234 115.502 150.234ZM125.648 150.234C124.748 150.234 123.95 150.042 123.254 149.658C122.558 149.274 122.012 148.716 121.616 147.984C121.232 147.252 121.04 146.352 121.04 145.284C121.04 144.192 121.244 143.286 121.652 142.566C122.06 141.846 122.606 141.306 123.29 140.946C123.986 140.586 124.766 140.406 125.63 140.406C126.518 140.406 127.31 140.592 128.006 140.964C128.702 141.336 129.248 141.888 129.644 142.62C130.052 143.352 130.256 144.264 130.256 145.356C130.256 146.436 130.052 147.342 129.644 148.074C129.248 148.794 128.702 149.334 128.006 149.694C127.31 150.054 126.524 150.234 125.648 150.234ZM125.72 148.686C126.26 148.686 126.722 148.56 127.106 148.308C127.49 148.056 127.784 147.684 127.988 147.192C128.192 146.7 128.294 146.112 128.294 145.428C128.294 144.72 128.186 144.114 127.97 143.61C127.754 143.094 127.442 142.698 127.034 142.422C126.638 142.146 126.152 142.008 125.576 142.008C125.06 142.008 124.604 142.134 124.208 142.386C123.824 142.626 123.53 142.992 123.326 143.484C123.122 143.964 123.02 144.552 123.02 145.248C123.02 146.34 123.26 147.186 123.74 147.786C124.22 148.386 124.88 148.686 125.72 148.686ZM132.605 150V145.122V140.64H134.297L134.207 143.88H134.513C134.621 143.148 134.789 142.524 135.017 142.008C135.245 141.492 135.557 141.102 135.953 140.838C136.349 140.562 136.841 140.424 137.429 140.424C137.549 140.424 137.681 140.43 137.825 140.442C137.969 140.454 138.131 140.49 138.311 140.55L138.221 142.602C138.041 142.53 137.855 142.482 137.663 142.458C137.471 142.422 137.297 142.404 137.141 142.404C136.661 142.404 136.253 142.542 135.917 142.818C135.581 143.082 135.299 143.454 135.071 143.934C134.855 144.402 134.687 144.948 134.567 145.572V150H132.605ZM143.41 150.234C142.618 150.234 141.934 150.03 141.358 149.622C140.782 149.202 140.344 148.626 140.044 147.894C139.744 147.15 139.594 146.292 139.594 145.32C139.594 144.372 139.732 143.532 140.008 142.8C140.296 142.056 140.716 141.474 141.268 141.054C141.832 140.634 142.522 140.424 143.338 140.424C143.986 140.424 144.52 140.556 144.94 140.82C145.36 141.072 145.696 141.42 145.948 141.864C146.212 142.308 146.41 142.8 146.542 143.34H146.902C146.842 142.992 146.782 142.632 146.722 142.26C146.662 141.876 146.614 141.51 146.578 141.162C146.542 140.802 146.524 140.484 146.524 140.208V137.31H148.504V145.392V150H146.794L146.866 147.408H146.542C146.398 147.996 146.194 148.5 145.93 148.92C145.666 149.34 145.324 149.664 144.904 149.892C144.496 150.12 143.998 150.234 143.41 150.234ZM143.95 148.578C144.37 148.578 144.742 148.482 145.066 148.29C145.39 148.098 145.66 147.846 145.876 147.534C146.092 147.222 146.254 146.886 146.362 146.526C146.482 146.154 146.542 145.806 146.542 145.482V145.23C146.542 144.99 146.506 144.732 146.434 144.456C146.374 144.168 146.272 143.886 146.128 143.61C145.996 143.322 145.828 143.064 145.624 142.836C145.42 142.608 145.174 142.428 144.886 142.296C144.61 142.152 144.298 142.08 143.95 142.08C143.446 142.08 143.02 142.224 142.672 142.512C142.336 142.788 142.078 143.172 141.898 143.664C141.718 144.156 141.628 144.72 141.628 145.356C141.628 146.004 141.718 146.574 141.898 147.066C142.09 147.546 142.36 147.918 142.708 148.182C143.056 148.446 143.47 148.578 143.95 148.578ZM151.37 150V140.64H153.314V150H151.37ZM152.342 139.074C151.922 139.074 151.604 138.99 151.388 138.822C151.172 138.642 151.064 138.378 151.064 138.03C151.064 137.694 151.172 137.436 151.388 137.256C151.604 137.076 151.922 136.986 152.342 136.986C152.774 136.986 153.098 137.076 153.314 137.256C153.53 137.436 153.638 137.694 153.638 138.03C153.638 138.378 153.53 138.642 153.314 138.822C153.098 138.99 152.774 139.074 152.342 139.074ZM156.208 150V144.24V140.64H157.9L157.792 143.556H158.098C158.266 142.836 158.488 142.248 158.764 141.792C159.052 141.324 159.412 140.976 159.844 140.748C160.288 140.52 160.804 140.406 161.392 140.406C162.436 140.406 163.228 140.778 163.768 141.522C164.32 142.266 164.596 143.4 164.596 144.924V150H162.616V145.122C162.616 144.078 162.46 143.316 162.148 142.836C161.836 142.344 161.368 142.098 160.744 142.098C160.204 142.098 159.742 142.272 159.358 142.62C158.986 142.956 158.698 143.4 158.494 143.952C158.29 144.504 158.176 145.104 158.152 145.752V150H156.208ZM170.903 153.204C169.895 153.204 169.067 153.126 168.419 152.97C167.783 152.814 167.315 152.58 167.015 152.268C166.715 151.956 166.565 151.572 166.565 151.116C166.565 150.564 166.781 150.114 167.213 149.766C167.645 149.406 168.299 149.178 169.175 149.082V148.722C168.527 148.734 168.035 148.668 167.699 148.524C167.375 148.368 167.213 148.128 167.213 147.804C167.213 147.468 167.375 147.186 167.699 146.958C168.035 146.718 168.575 146.508 169.319 146.328V145.986C168.587 145.962 168.023 145.734 167.627 145.302C167.231 144.87 167.033 144.318 167.033 143.646C167.033 143.034 167.195 142.5 167.519 142.044C167.855 141.576 168.341 141.216 168.977 140.964C169.625 140.7 170.405 140.568 171.317 140.568H175.835V142.152L172.937 141.72V142.08C173.657 142.212 174.197 142.44 174.557 142.764C174.917 143.088 175.097 143.526 175.097 144.078C175.097 144.57 174.941 145.008 174.629 145.392C174.329 145.776 173.885 146.076 173.297 146.292C172.709 146.496 171.989 146.598 171.137 146.598C170.981 146.598 170.813 146.592 170.633 146.58C170.453 146.568 170.189 146.538 169.841 146.49C169.553 146.67 169.319 146.838 169.139 146.994C168.971 147.15 168.887 147.288 168.887 147.408C168.887 147.528 168.959 147.624 169.103 147.696C169.259 147.768 169.451 147.816 169.679 147.84C169.907 147.864 170.123 147.876 170.327 147.876H172.631C172.871 147.876 173.177 147.9 173.549 147.948C173.921 147.984 174.293 148.08 174.665 148.236C175.037 148.392 175.349 148.638 175.601 148.974C175.853 149.298 175.979 149.754 175.979 150.342C175.979 151.014 175.787 151.56 175.403 151.98C175.019 152.4 174.449 152.706 173.693 152.898C172.937 153.102 172.007 153.204 170.903 153.204ZM171.029 151.602C171.797 151.602 172.415 151.554 172.883 151.458C173.351 151.374 173.693 151.23 173.909 151.026C174.125 150.822 174.233 150.564 174.233 150.252C174.233 149.964 174.161 149.742 174.017 149.586C173.873 149.418 173.693 149.304 173.477 149.244C173.273 149.172 173.063 149.13 172.847 149.118C172.631 149.106 172.445 149.1 172.289 149.1H170.147C169.511 149.208 169.067 149.394 168.815 149.658C168.563 149.91 168.437 150.192 168.437 150.504C168.437 150.804 168.545 151.032 168.761 151.188C168.977 151.356 169.277 151.464 169.661 151.512C170.057 151.572 170.513 151.602 171.029 151.602ZM171.155 145.446C171.851 145.446 172.373 145.296 172.721 144.996C173.081 144.684 173.261 144.276 173.261 143.772C173.261 143.232 173.081 142.794 172.721 142.458C172.361 142.11 171.827 141.936 171.119 141.936C170.423 141.936 169.889 142.104 169.517 142.44C169.157 142.776 168.977 143.202 168.977 143.718C168.977 144.066 169.061 144.372 169.229 144.636C169.397 144.888 169.637 145.086 169.949 145.23C170.273 145.374 170.675 145.446 171.155 145.446Z" fill="#F5F3FF" fill-opacity="0.68"/>
<g filter="url(#filter1_i_13896_13058)">
<path d="M4 201.025C4 189.98 12.9543 181.025 24 181.025C35.0457 181.025 44 189.98 44 201.025C44 212.071 35.0457 221.025 24 221.025C12.9543 221.025 4 212.071 4 201.025Z" fill="#22242F"/>
<mask id="mask1_13896_13058" style="mask-type:alpha" maskUnits="userSpaceOnUse" x="14" y="191" width="20" height="21">
<rect x="14" y="191.025" width="20" height="20" fill="#D9D9D9"/>
</mask>
<g mask="url(#mask1_13896_13058)">
<path d="M19.832 208.525C19.3737 208.525 18.9813 208.362 18.6549 208.036C18.3286 207.709 18.1654 207.317 18.1654 206.859V196.025C17.9293 196.025 17.7313 195.946 17.5716 195.786C17.4119 195.626 17.332 195.428 17.332 195.192C17.332 194.956 17.4119 194.758 17.5716 194.598C17.7313 194.439 17.9293 194.359 18.1654 194.359H21.4987C21.4987 194.123 21.5786 193.925 21.7383 193.765C21.898 193.605 22.0959 193.525 22.332 193.525H25.6654C25.9015 193.525 26.0994 193.605 26.2591 193.765C26.4188 193.925 26.4987 194.123 26.4987 194.359H29.832C30.0681 194.359 30.2661 194.439 30.4258 194.598C30.5855 194.758 30.6654 194.956 30.6654 195.192C30.6654 195.428 30.5855 195.626 30.4258 195.786C30.2661 195.946 30.0681 196.025 29.832 196.025V206.859C29.832 207.317 29.6688 207.709 29.3424 208.036C29.0161 208.362 28.6237 208.525 28.1654 208.525H19.832ZM22.9258 204.952C23.0855 204.793 23.1654 204.595 23.1654 204.359V198.525C23.1654 198.289 23.0855 198.091 22.9258 197.932C22.7661 197.772 22.5681 197.692 22.332 197.692C22.0959 197.692 21.898 197.772 21.7383 197.932C21.5786 198.091 21.4987 198.289 21.4987 198.525V204.359C21.4987 204.595 21.5786 204.793 21.7383 204.952C21.898 205.112 22.0959 205.192 22.332 205.192C22.5681 205.192 22.7661 205.112 22.9258 204.952ZM26.2591 204.952C26.4188 204.793 26.4987 204.595 26.4987 204.359V198.525C26.4987 198.289 26.4188 198.091 26.2591 197.932C26.0994 197.772 25.9015 197.692 25.6654 197.692C25.4293 197.692 25.2313 197.772 25.0716 197.932C24.9119 198.091 24.832 198.289 24.832 198.525V204.359C24.832 204.595 24.9119 204.793 25.0716 204.952C25.2313 205.112 25.4293 205.192 25.6654 205.192C25.9015 205.192 26.0994 205.112 26.2591 204.952Z" fill="#FF6B6B"/>
</g>
</g>
<rect x="66" y="183.74" width="6.23271" height="34.5704" rx="3.11635" fill="#E879C0"/>
<rect x="76.6436" y="187.222" width="6.23271" height="27.6065" rx="3.11635" fill="#E879C0"/>
<rect x="87.2871" y="179.161" width="6.23271" height="43.7285" rx="3.11635" fill="#E879C0"/>
<rect x="97.9297" y="179.161" width="6.23271" height="43.7285" rx="3.11635" fill="#E879C0"/>
<rect x="108.573" y="187.222" width="6.23271" height="27.6065" rx="3.11635" fill="#E879C0"/>
<rect x="119.217" y="179.161" width="6.23271" height="43.7285" rx="3.11635" fill="#E879C0"/>
<rect x="129.86" y="191.167" width="6.23271" height="19.7162" rx="3.11635" fill="#E879C0"/>
<path d="M162.13 208.851C161.186 208.851 160.327 208.665 159.552 208.293C158.778 207.922 158.113 207.395 157.555 206.714C157.013 206.033 156.595 205.204 156.301 204.229C156.007 203.253 155.86 202.162 155.86 200.954C155.86 199.236 156.131 197.78 156.673 196.588C157.215 195.38 157.958 194.467 158.902 193.848C159.862 193.213 160.954 192.895 162.177 192.895C163.462 192.895 164.569 193.221 165.498 193.871C166.427 194.521 167.139 195.45 167.635 196.658C168.145 197.85 168.401 199.267 168.401 200.908C168.401 202.115 168.254 203.215 167.96 204.206C167.665 205.181 167.24 206.017 166.682 206.714C166.125 207.395 165.459 207.922 164.685 208.293C163.926 208.665 163.075 208.851 162.13 208.851ZM162.154 206.737C162.665 206.737 163.144 206.621 163.593 206.389C164.042 206.157 164.437 205.808 164.778 205.344C165.119 204.864 165.382 204.26 165.568 203.532C165.769 202.789 165.869 201.914 165.869 200.908C165.869 199.669 165.715 198.609 165.405 197.726C165.095 196.844 164.662 196.17 164.104 195.706C163.547 195.226 162.897 194.986 162.154 194.986C161.519 194.986 160.907 195.187 160.319 195.589C159.746 195.977 159.282 196.604 158.925 197.471C158.569 198.322 158.391 199.452 158.391 200.861C158.391 201.852 158.484 202.719 158.67 203.462C158.856 204.19 159.119 204.802 159.46 205.297C159.8 205.777 160.195 206.141 160.644 206.389C161.108 206.621 161.612 206.737 162.154 206.737ZM172.349 208.084C171.777 208.084 171.343 207.96 171.049 207.713C170.77 207.465 170.631 207.078 170.631 206.551C170.631 206.009 170.778 205.615 171.072 205.367C171.366 205.119 171.792 204.995 172.349 204.995C172.938 204.995 173.379 205.119 173.673 205.367C173.967 205.615 174.114 206.009 174.114 206.551C174.114 207.573 173.526 208.084 172.349 208.084ZM172.349 200.35C171.777 200.35 171.343 200.227 171.049 199.979C170.77 199.731 170.631 199.344 170.631 198.818C170.631 198.276 170.778 197.881 171.072 197.633C171.366 197.385 171.792 197.262 172.349 197.262C172.938 197.262 173.379 197.385 173.673 197.633C173.967 197.881 174.114 198.276 174.114 198.818C174.114 199.84 173.526 200.35 172.349 200.35ZM182.633 208.851C181.689 208.851 180.829 208.665 180.055 208.293C179.281 207.922 178.615 207.395 178.058 206.714C177.516 206.033 177.098 205.204 176.804 204.229C176.51 203.253 176.362 202.162 176.362 200.954C176.362 199.236 176.633 197.78 177.175 196.588C177.717 195.38 178.46 194.467 179.405 193.848C180.365 193.213 181.456 192.895 182.679 192.895C183.965 192.895 185.072 193.221 186.001 193.871C186.93 194.521 187.642 195.45 188.137 196.658C188.648 197.85 188.904 199.267 188.904 200.908C188.904 202.115 188.757 203.215 188.462 204.206C188.168 205.181 187.742 206.017 187.185 206.714C186.628 207.395 185.962 207.922 185.188 208.293C184.429 208.665 183.577 208.851 182.633 208.851ZM182.656 206.737C183.167 206.737 183.647 206.621 184.096 206.389C184.545 206.157 184.94 205.808 185.281 205.344C185.621 204.864 185.884 204.26 186.07 203.532C186.272 202.789 186.372 201.914 186.372 200.908C186.372 199.669 186.217 198.609 185.908 197.726C185.598 196.844 185.164 196.17 184.607 195.706C184.05 195.226 183.399 194.986 182.656 194.986C182.021 194.986 181.41 195.187 180.822 195.589C180.249 195.977 179.784 196.604 179.428 197.471C179.072 198.322 178.894 199.452 178.894 200.861C178.894 201.852 178.987 202.719 179.173 203.462C179.358 204.19 179.622 204.802 179.962 205.297C180.303 205.777 180.698 206.141 181.147 206.389C181.611 206.621 182.114 206.737 182.656 206.737ZM193.206 208.525V197.192H190.977V194.962C191.689 194.962 192.277 194.846 192.742 194.614C193.222 194.382 193.532 193.91 193.671 193.197H195.761V208.525H193.206Z" fill="#F4F2FF"/>
<g filter="url(#filter2_i_13896_13058)">
<path d="M220.093 201.025C220.093 189.98 229.047 181.025 240.093 181.025V181.025C251.138 181.025 260.093 189.98 260.093 201.025V201.025C260.093 212.071 251.138 221.025 240.093 221.025V221.025C229.047 221.025 220.093 212.071 220.093 201.025V201.025Z" fill="#9178E6"/>
<mask id="mask2_13896_13058" style="mask-type:alpha" maskUnits="userSpaceOnUse" x="230" y="191" width="21" height="21">
<rect x="230.093" y="191.025" width="20" height="20" fill="#D9D9D9"/>
</mask>
<g mask="url(#mask2_13896_13058)">
<path d="M232.593 207.693V202.693L239.259 201.027L232.593 199.36V194.36L248.426 201.027L232.593 207.693Z" fill="#F4F2FF"/>
</g>
</g>
<defs>
<filter id="filter0_i_13896_13058" x="72.0459" y="0" width="120" height="120" filterUnits="userSpaceOnUse" color-interpolation-filters="sRGB">
<feFlood flood-opacity="0" result="BackgroundImageFix"/>
<feBlend mode="normal" in="SourceGraphic" in2="BackgroundImageFix" result="shape"/>
<feColorMatrix in="SourceAlpha" type="matrix" values="0 0 0 0 0 0 0 0 0 0 0 0 0 0 0 0 0 0 127 0" result="hardAlpha"/>
<feOffset dy="-7.79636"/>
<feComposite in2="hardAlpha" operator="arithmetic" k2="-1" k3="1"/>
<feColorMatrix type="matrix" values="0 0 0 0 0 0 0 0 0 0 0 0 0 0 0 0 0 0 0.15 0"/>
<feBlend mode="normal" in2="shape" result="effect1_innerShadow_13896_13058"/>
</filter>
<filter id="filter1_i_13896_13058" x="0" y="177.025" width="48" height="48" filterUnits="userSpaceOnUse" color-interpolation-filters="sRGB">
<feFlood flood-opacity="0" result="BackgroundImageFix"/>
<feBlend mode="normal" in="SourceGraphic" in2="BackgroundImageFix" result="shape"/>
<feColorMatrix in="SourceAlpha" type="matrix" values="0 0 0 0 0 0 0 0 0 0 0 0 0 0 0 0 0 0 127 0" result="hardAlpha"/>
<feOffset dy="-2"/>
<feComposite in2="hardAlpha" operator="arithmetic" k2="-1" k3="1"/>
<feColorMatrix type="matrix" values="0 0 0 0 0 0 0 0 0 0 0 0 0 0 0 0 0 0 0.15 0"/>
<feBlend mode="normal" in2="shape" result="effect1_innerShadow_13896_13058"/>
</filter>
<filter id="filter2_i_13896_13058" x="216.093" y="177.025" width="48" height="48" filterUnits="userSpaceOnUse" color-interpolation-filters="sRGB">
<feFlood flood-opacity="0" result="BackgroundImageFix"/>
<feBlend mode="normal" in="SourceGraphic" in2="BackgroundImageFix" result="shape"/>
<feColorMatrix in="SourceAlpha" type="matrix" values="0 0 0 0 0 0 0 0 0 0 0 0 0 0 0 0 0 0 127 0" result="hardAlpha"/>
<feOffset dy="-2"/>
<feComposite in2="hardAlpha" operator="arithmetic" k2="-1" k3="1"/>
<feColorMatrix type="matrix" values="0 0 0 0 0 0 0 0 0 0 0 0 0 0 0 0 0 0 0.15 0"/>
<feBlend mode="normal" in2="shape" result="effect1_innerShadow_13896_13058"/>
</filter>
</defs>
</svg>
