<svg width="34" height="34" viewBox="0 0 34 34" fill="none" xmlns="http://www.w3.org/2000/svg">
<path d="M21.0654 4.14648C22.1776 4.14647 23.0959 4.14598 23.8438 4.20703C24.6205 4.27048 25.3351 4.4074 26.0059 4.74902C27.046 5.27905 27.8928 6.1248 28.4229 7.16504C28.7645 7.83569 28.9004 8.55046 28.9639 9.32715C29.0249 10.0751 29.0254 10.9941 29.0254 12.1064V21.0654C29.0254 22.1776 29.0249 23.0959 28.9639 23.8438C28.9004 24.6204 28.7644 25.3352 28.4229 26.0059C27.8928 27.0461 27.0461 27.8928 26.0059 28.4229C25.3352 28.7644 24.6204 28.9004 23.8438 28.9639C23.0959 29.0249 22.1776 29.0254 21.0654 29.0254H12.1064C10.9941 29.0254 10.0751 29.0249 9.32715 28.9639C8.55046 28.9004 7.83569 28.7645 7.16504 28.4229C6.1248 27.8928 5.27905 27.046 4.74902 26.0059C4.4074 25.3351 4.27048 24.6205 4.20703 23.8438C4.14598 23.0959 4.14647 22.1776 4.14648 21.0654V12.1064C4.14647 10.9941 4.14595 10.075 4.20703 9.32715C4.27051 8.55043 4.40732 7.83571 4.74902 7.16504C5.27903 6.12494 6.12494 5.27903 7.16504 4.74902C7.83571 4.40732 8.55043 4.27051 9.32715 4.20703C10.075 4.14595 10.9941 4.14647 12.1064 4.14648H21.0654ZM15.0303 13.4756V25.915H18.1406V13.4756H15.0303ZM16.5859 7.25586C16.2297 7.25586 15.9053 7.3355 15.6133 7.49414C15.4378 7.58933 15.2735 7.71287 15.1211 7.86523C15.0196 7.9667 14.9316 8.07383 14.8555 8.18555C14.6271 8.5206 14.5128 8.90167 14.5127 9.3291C14.5127 9.54295 14.5405 9.74583 14.5977 9.93652C14.6738 10.1908 14.8009 10.4245 14.9785 10.6377C15.0229 10.691 15.0704 10.7432 15.1211 10.7939C15.1718 10.8446 15.2241 10.8922 15.2773 10.9365C15.3841 11.0255 15.4962 11.1015 15.6133 11.165C15.9053 11.3237 16.2297 11.4023 16.5859 11.4023C17.0135 11.4023 17.3953 11.2891 17.7305 11.0605C17.8421 10.9845 17.9484 10.8953 18.0498 10.7939C18.3035 10.5402 18.4781 10.2543 18.5732 9.93652C18.5923 9.87302 18.6084 9.80826 18.6211 9.74219C18.6465 9.60981 18.6592 9.47176 18.6592 9.3291C18.6592 9.18663 18.6465 9.04922 18.6211 8.91699C18.5957 8.78493 18.5576 8.65795 18.5068 8.53613C18.4053 8.292 18.2529 8.06831 18.0498 7.86523C17.9484 7.76383 17.8421 7.6747 17.7305 7.59863C17.3953 7.37007 17.0136 7.25589 16.5859 7.25586Z" fill="#9178E6"/>
</svg>
