<svg width="117" height="81" viewBox="0 0 117 81" fill="none" xmlns="http://www.w3.org/2000/svg">
<path d="M97.6963 1.03711C107.429 1.03712 115.318 8.92665 115.318 18.6592V61.4463C115.318 71.1786 107.429 79.0683 97.6963 79.0684H18.6592C8.9268 79.0684 1.03736 71.1786 1.03711 61.4463V18.6592C1.03711 8.92664 8.92664 1.03711 18.6592 1.03711H97.6963Z" fill="#FB7E5B"/>
<path d="M97.6963 1.03711C107.429 1.03712 115.318 8.92665 115.318 18.6592V61.4463C115.318 71.1786 107.429 79.0683 97.6963 79.0684H18.6592C8.9268 79.0684 1.03736 71.1786 1.03711 61.4463V18.6592C1.03711 8.92664 8.92664 1.03711 18.6592 1.03711H97.6963Z" stroke="#FB7E5B" stroke-width="2.07321"/>
<path d="M37.1532 17.2754C36.4794 17.2754 35.8782 17.208 35.3495 17.0732C34.8312 16.9281 34.3906 16.7208 34.0278 16.4513C33.6754 16.1714 33.4059 15.8293 33.2193 15.425C33.0431 15.0104 32.9601 14.5284 32.9705 13.979L34.4788 13.5902C34.458 14.1085 34.5565 14.5387 34.7742 14.8808C34.9919 15.2229 35.3132 15.4821 35.7382 15.6583C36.1632 15.8241 36.6608 15.9071 37.2309 15.9071C37.77 15.9071 38.2261 15.8397 38.5993 15.7049C38.9724 15.5702 39.2523 15.3888 39.4389 15.1607C39.6359 14.9223 39.7344 14.6528 39.7344 14.3521C39.7344 14.0101 39.6151 13.7406 39.3767 13.5436C39.1487 13.3363 38.8429 13.1756 38.4593 13.0616C38.0758 12.9372 37.6456 12.8232 37.1688 12.7195C36.6815 12.6158 36.1995 12.4966 35.7227 12.3619C35.2458 12.2271 34.8105 12.0509 34.4166 11.8332C34.033 11.6051 33.722 11.3149 33.4836 10.9624C33.2556 10.61 33.1415 10.1643 33.1415 9.62522C33.1415 9.00326 33.297 8.4694 33.608 8.02366C33.919 7.57792 34.3595 7.23066 34.9297 6.98187C35.5102 6.73309 36.1995 6.60869 36.9977 6.60869C37.7855 6.60869 38.4749 6.73309 39.0657 6.98187C39.6566 7.22029 40.1231 7.57274 40.4652 8.03921C40.8176 8.49532 40.999 9.05509 41.0094 9.71852L39.4545 10.1072C39.4545 9.7548 39.3923 9.44381 39.2679 9.1743C39.1539 8.90478 38.988 8.68191 38.7703 8.50569C38.5526 8.32946 38.2935 8.19989 37.9929 8.11696C37.6922 8.02366 37.3502 7.97702 36.9666 7.97702C36.5312 7.97702 36.1477 8.0444 35.816 8.17915C35.4843 8.30355 35.2251 8.47977 35.0385 8.70782C34.8623 8.92551 34.7742 9.18985 34.7742 9.50083C34.7742 9.86364 34.9038 10.1539 35.1629 10.3716C35.4324 10.5789 35.7797 10.7499 36.2047 10.8847C36.6401 11.0091 37.1117 11.1283 37.6197 11.2423C38.0654 11.3356 38.506 11.4496 38.9414 11.5844C39.3871 11.7088 39.7914 11.8798 40.1542 12.0975C40.5274 12.3152 40.8228 12.6003 41.0405 12.9527C41.2582 13.3052 41.367 13.7561 41.367 14.3055C41.367 14.9067 41.2115 15.4302 40.9005 15.876C40.5896 16.3217 40.1179 16.669 39.4856 16.9178C38.8636 17.1562 38.0862 17.2754 37.1532 17.2754ZM47.9706 17.2754C47.2139 17.2754 46.5349 17.1614 45.9337 16.9333C45.3428 16.7052 44.8349 16.3683 44.4099 15.9226C43.9953 15.4769 43.6791 14.9326 43.4614 14.29C43.2437 13.6369 43.1349 12.8957 43.1349 12.0664C43.1349 11.2164 43.2437 10.4545 43.4614 9.78071C43.6895 9.10692 44.0108 8.53678 44.4254 8.07031C44.8505 7.59347 45.348 7.23066 45.9182 6.98187C46.4987 6.73309 47.1465 6.60869 47.8618 6.60869C48.4216 6.60869 48.9347 6.68644 49.4012 6.84193C49.8676 6.98706 50.2719 7.20474 50.614 7.49499C50.9561 7.77488 51.2204 8.11696 51.407 8.52123C51.6039 8.92551 51.7024 9.37644 51.7024 9.87401L50.1164 10.2938C50.1268 9.7859 50.0231 9.37125 49.8054 9.0499C49.5877 8.71819 49.3027 8.4694 48.9502 8.30355C48.6082 8.13769 48.2298 8.05476 47.8152 8.05476C47.4523 8.05476 47.0947 8.12732 46.7423 8.27245C46.3898 8.41757 46.0737 8.65081 45.7938 8.97216C45.5242 9.28314 45.3066 9.68742 45.1407 10.185C44.9852 10.6826 44.9075 11.2838 44.9075 11.9887C44.9075 12.8905 45.037 13.6265 45.2962 14.1967C45.5553 14.7564 45.9182 15.1711 46.3846 15.4406C46.8615 15.6997 47.4109 15.8293 48.0328 15.8293C48.6341 15.8293 49.1161 15.7101 49.4789 15.4717C49.8417 15.2333 50.1061 14.9119 50.2719 14.5076C50.4481 14.1034 50.5466 13.6473 50.5673 13.1393L52.0912 13.4037C52.0808 13.9427 51.9979 14.4454 51.8424 14.9119C51.6869 15.3784 51.4433 15.793 51.1116 16.1558C50.7902 16.5083 50.3704 16.783 49.8521 16.9799C49.3338 17.1769 48.7066 17.2754 47.9706 17.2754ZM58.3718 17.2754C57.6254 17.2754 56.962 17.1562 56.3815 16.9178C55.8114 16.669 55.3242 16.3165 54.9199 15.8604C54.526 15.4043 54.2253 14.8497 54.018 14.1967C53.8107 13.5436 53.707 12.8076 53.707 11.9887C53.707 10.7862 53.9092 9.79108 54.3135 9.00326C54.7177 8.20507 55.2723 7.60902 55.9772 7.21511C56.6925 6.81083 57.501 6.60869 58.4029 6.60869C59.1078 6.60869 59.7453 6.7279 60.3154 6.96632C60.8855 7.19438 61.3728 7.54164 61.777 8.00811C62.1813 8.46422 62.4923 9.02917 62.71 9.70297C62.9277 10.3664 63.0365 11.1231 63.0365 11.9731C63.0365 12.8024 62.9328 13.5488 62.7255 14.2122C62.5182 14.8653 62.2124 15.4199 61.8081 15.876C61.4142 16.3321 60.927 16.6793 60.3465 16.9178C59.766 17.1562 59.1078 17.2754 58.3718 17.2754ZM58.3873 15.8604C59.0197 15.8604 59.5483 15.7101 59.9733 15.4095C60.4087 15.1089 60.7404 14.6787 60.9685 14.1189C61.1965 13.5488 61.3106 12.8543 61.3106 12.0353C61.3106 11.1957 61.1913 10.4804 60.9529 9.88956C60.7249 9.29869 60.388 8.84777 59.9422 8.53678C59.5069 8.21544 58.9782 8.05476 58.3562 8.05476C57.755 8.05476 57.2367 8.21025 56.8013 8.52123C56.3659 8.82185 56.029 9.26241 55.7906 9.84291C55.5626 10.4234 55.4485 11.1387 55.4485 11.9887C55.4485 12.6106 55.5107 13.1652 55.6351 13.6524C55.7699 14.1293 55.9617 14.5336 56.2105 14.8653C56.4592 15.1866 56.765 15.4354 57.1278 15.6116C57.501 15.7775 57.9209 15.8604 58.3873 15.8604ZM65.3509 17.0732V6.81083H69.1293C69.658 6.81083 70.14 6.8523 70.5754 6.93523C71.0211 7.01815 71.4099 7.14255 71.7416 7.3084C72.0837 7.47426 72.3739 7.68158 72.6123 7.93037C72.8507 8.16879 73.027 8.44867 73.141 8.77002C73.2654 9.081 73.3276 9.42827 73.3276 9.81181C73.3276 10.1746 73.2706 10.5063 73.1565 10.807C73.0529 11.0972 72.8922 11.3564 72.6745 11.5844C72.4568 11.8125 72.1821 11.9991 71.8504 12.1442C71.5187 12.2789 71.1352 12.3722 70.6998 12.4241V12.6262C71.1248 12.678 71.4824 12.7869 71.7727 12.9527C72.0629 13.1186 72.3065 13.357 72.5035 13.668C72.7004 13.9686 72.8663 14.3625 73.0011 14.8497L73.6541 17.0732H71.7882L71.2907 15.0363C71.187 14.6113 71.0315 14.2744 70.8242 14.0256C70.6272 13.7665 70.3733 13.5799 70.0623 13.4658C69.7513 13.3518 69.3781 13.2948 68.9427 13.2948H67.0457V17.0732H65.3509ZM67.0457 11.9576H68.9894C69.8394 11.9576 70.4821 11.8021 70.9175 11.4911C71.3632 11.1801 71.5861 10.7033 71.5861 10.0606C71.5861 9.4179 71.3736 8.94624 70.9486 8.64563C70.5339 8.33465 69.8912 8.17915 69.0205 8.17915H67.0457V11.9576ZM75.756 17.0732V6.81083H77.4664V17.0732H75.756ZM76.7667 17.0732V15.6427H83.1885V17.0732H76.7667ZM76.7667 12.5174V11.1957H82.4422V12.5174H76.7667ZM76.7667 8.2258V6.81083H83.173V8.2258H76.7667Z" fill="#0A1F18"/>
<rect x="2.07324" y="23.0732" width="112.209" height="54.9583" rx="16.5857" fill="#090C18"/>
<path d="M33.0364 65.5922C24.8796 65.5922 18.2307 58.8527 18.2307 50.5523C18.2307 42.2519 24.8653 35.5125 33.0364 35.5125C36.4255 35.5125 39.6566 36.6795 42.2415 38.7947L42.2702 38.7071C42.6579 37.6422 43.6344 36.9129 44.7402 36.8253H44.9556C46.004 36.8253 46.9661 37.3943 47.4687 38.3133L50.5418 43.9003C51.0875 44.9069 51.0158 46.1468 50.3408 47.0513C49.8095 47.7952 48.9478 48.2329 48.0288 48.2329C47.8995 48.2329 47.7846 48.2329 47.6554 48.2037C47.7703 48.9623 47.8277 49.75 47.8277 50.5377C47.8277 58.8235 41.1932 65.5776 33.0221 65.5776L33.0364 65.5922Z" fill="#FB7E5B"/>
<path d="M33.036 63.535C25.9993 63.535 20.2695 57.7145 20.2695 50.5666C20.2695 43.4186 25.9993 37.5981 33.036 37.5981C40.0726 37.5981 45.8025 43.4186 45.8025 50.5666C45.8025 57.7145 40.0726 63.535 33.036 63.535ZM33.036 39.3049C26.9184 39.3049 21.9497 44.3522 21.9497 50.5666C21.9497 56.7809 26.9184 61.8282 33.036 61.8282C39.1536 61.8282 44.1223 56.7809 44.1223 50.5666C44.1223 44.3522 39.1536 39.3049 33.036 39.3049Z" fill="#0A1F18"/>
<path d="M33.0358 59.1296C28.383 59.1296 24.6062 55.293 24.6062 50.5666C24.6062 45.8402 28.383 42.0037 33.0358 42.0037C37.6886 42.0037 41.4654 45.8402 41.4654 50.5666C41.4654 55.293 37.6886 59.1296 33.0358 59.1296ZM33.0358 43.7104C29.3164 43.7104 26.2864 46.7884 26.2864 50.5666C26.2864 54.3448 29.3164 57.4228 33.0358 57.4228C36.7552 57.4228 39.7853 54.3448 39.7853 50.5666C39.7853 46.7884 36.7552 43.7104 33.0358 43.7104Z" fill="#0A1F18"/>
<path d="M33.0361 54.5784C30.8533 54.5784 29.0869 52.7841 29.0869 50.5668C29.0869 48.3495 30.8533 46.5552 33.0361 46.5552C35.2188 46.5552 36.9852 48.3495 36.9852 50.5668C36.9852 52.7841 35.2188 54.5784 33.0361 54.5784ZM33.0361 48.2619C31.7867 48.2619 30.7671 49.2977 30.7671 50.5668C30.7671 51.8359 31.7867 52.8716 33.0361 52.8716C34.2854 52.8716 35.305 51.8359 35.305 50.5668C35.305 49.2977 34.2854 48.2619 33.0361 48.2619Z" fill="#0A1F18"/>
<path d="M33.0363 51.4128C32.7491 51.4128 32.4619 51.2669 32.304 50.9897C32.0742 50.5813 32.2034 50.0561 32.6055 49.8227L45.6592 42.1205C46.0613 41.887 46.5783 42.0183 46.808 42.4268C47.0378 42.8352 46.9086 43.3604 46.5065 43.5938L33.4528 51.2961C33.3235 51.369 33.1799 51.4128 33.0363 51.4128Z" fill="#0A1F18"/>
<path d="M43.2612 44.3381L44.9701 39.7576L48.0433 45.3446L43.2612 44.3381Z" fill="#0A1F18"/>
<path d="M48.0441 46.1905C48.0441 46.1905 47.9292 46.1905 47.8717 46.1759L43.0897 45.1694C42.8455 45.111 42.6445 44.9651 42.5296 44.7463C42.4147 44.5275 42.4004 44.2649 42.4865 44.0315L44.1811 39.451C44.296 39.1447 44.5832 38.9258 44.8991 38.8967C45.215 38.8821 45.5309 39.0425 45.6889 39.3343L48.7621 44.9214C48.92 45.2131 48.9057 45.5778 48.7046 45.8404C48.5467 46.0592 48.2882 46.1905 48.0297 46.1905H48.0441ZM44.3965 43.7106L46.4213 44.1336L45.1289 41.7704L44.4108 43.7106H44.3965Z" fill="#0A1F18"/>
<path d="M59.488 58.0525C59.4714 55.9129 59.5709 54.0968 59.7865 52.6041C60.0021 51.1114 60.3007 49.8509 60.6821 48.8225C61.0802 47.7776 61.528 46.882 62.0256 46.1357C62.5397 45.3893 63.0788 44.6927 63.6427 44.0459H57.3982V40.6873H68.2452V42.9512C67.4325 43.9961 66.7442 44.9664 66.1803 45.862C65.633 46.7576 65.1935 47.645 64.8617 48.524C64.53 49.3865 64.2812 50.2904 64.1154 51.2358C63.9495 52.1646 63.8334 53.1846 63.7671 54.2958C63.7007 55.4071 63.6593 56.6593 63.6427 58.0525H59.488ZM67.2847 58.0525L71.0413 40.6873H74.8726L71.116 58.0525H67.2847ZM79.2643 58.0525V45.862C79.0155 46.0776 78.775 46.2849 78.5428 46.484C78.3106 46.6664 78.0038 46.8654 77.6223 47.081C77.2574 47.2801 76.735 47.5206 76.055 47.8025L75.0847 44.1702C76.312 43.6063 77.3735 43.0507 78.2692 42.5034C79.1648 41.9561 79.8116 41.3507 80.2097 40.6873H83.5185V58.0525H79.2643ZM91.3673 58.3262C90.14 58.3262 89.0702 57.9613 88.158 57.2315C87.2624 56.5017 86.5658 55.4651 86.0682 54.1217C85.5706 52.7782 85.3218 51.1943 85.3218 49.3699C85.3218 47.5454 85.5706 45.9615 86.0682 44.6181C86.5658 43.2746 87.2624 42.238 88.158 41.5082C89.0702 40.7785 90.14 40.4136 91.3673 40.4136C92.5781 40.4136 93.623 40.7785 94.502 41.5082C95.3977 42.238 96.0943 43.2746 96.5918 44.6181C97.0894 45.9449 97.3382 47.5289 97.3382 49.3699C97.3382 51.2109 97.0894 52.8031 96.5918 54.1466C96.0943 55.4734 95.3977 56.5017 94.502 57.2315C93.623 57.9613 92.5781 58.3262 91.3673 58.3262ZM91.3673 54.9675C91.9312 54.9675 92.3542 54.4866 92.6361 53.5246C92.9347 52.5626 93.084 51.1777 93.084 49.3699C93.084 47.562 92.9347 46.1771 92.6361 45.2151C92.3542 44.2532 91.9312 43.7722 91.3673 43.7722C90.8034 43.7722 90.3639 44.2532 90.0488 45.2151C89.7336 46.1605 89.5761 47.5454 89.5761 49.3699C89.5761 51.1777 89.7336 52.5626 90.0488 53.5246C90.3639 54.4866 90.8034 54.9675 91.3673 54.9675Z" fill="#FB7E5B"/>
</svg>
