<svg width="181" height="80" viewBox="0 0 181 80" fill="none" xmlns="http://www.w3.org/2000/svg">
<path d="M162.094 1.03711C171.826 1.03725 179.716 8.92673 179.716 18.6592V60.9736C179.716 70.7059 171.826 78.5956 162.094 78.5957H18.6592C8.92677 78.5957 1.03731 70.706 1.03711 60.9736V18.6592C1.03711 8.92664 8.92664 1.03711 18.6592 1.03711H162.094Z" fill="#FB7E5B"/>
<path d="M162.094 1.03711C171.826 1.03725 179.716 8.92673 179.716 18.6592V60.9736C179.716 70.7059 171.826 78.5956 162.094 78.5957H18.6592C8.92677 78.5957 1.03731 70.706 1.03711 60.9736V18.6592C1.03711 8.92664 8.92664 1.03711 18.6592 1.03711H162.094Z" stroke="#FB7E5B" stroke-width="2.07321"/>
<path d="M69.3519 17.2754C68.6781 17.2754 68.0769 17.208 67.5482 17.0732C67.0299 16.9281 66.5894 16.7208 66.2266 16.4513C65.8741 16.1714 65.6046 15.8293 65.418 15.425C65.2418 15.0104 65.1589 14.5284 65.1692 13.979L66.6775 13.5902C66.6568 14.1085 66.7552 14.5387 66.9729 14.8808C67.1906 15.2229 67.512 15.4821 67.937 15.6583C68.362 15.8241 68.8595 15.9071 69.4297 15.9071C69.9687 15.9071 70.4248 15.8397 70.798 15.7049C71.1712 15.5702 71.4511 15.3888 71.6377 15.1607C71.8346 14.9223 71.9331 14.6528 71.9331 14.3521C71.9331 14.0101 71.8139 13.7406 71.5755 13.5436C71.3474 13.3363 71.0416 13.1756 70.6581 13.0616C70.2745 12.9372 69.8443 12.8232 69.3675 12.7195C68.8803 12.6158 68.3983 12.4966 67.9214 12.3619C67.4446 12.2271 67.0092 12.0509 66.6153 11.8332C66.2317 11.6051 65.9208 11.3149 65.6823 10.9624C65.4543 10.61 65.3403 10.1643 65.3403 9.62522C65.3403 9.00326 65.4958 8.4694 65.8067 8.02366C66.1177 7.57792 66.5583 7.23066 67.1284 6.98187C67.7089 6.73309 68.3983 6.60869 69.1964 6.60869C69.9843 6.60869 70.6736 6.73309 71.2645 6.98187C71.8553 7.22029 72.3218 7.57274 72.6639 8.03921C73.0163 8.49532 73.1977 9.05509 73.2081 9.71852L71.6532 10.1072C71.6532 9.7548 71.591 9.44381 71.4666 9.1743C71.3526 8.90478 71.1867 8.68191 70.969 8.50569C70.7514 8.32946 70.4922 8.19989 70.1916 8.11696C69.891 8.02366 69.5489 7.97702 69.1653 7.97702C68.73 7.97702 68.3464 8.0444 68.0147 8.17915C67.683 8.30355 67.4238 8.47977 67.2373 8.70782C67.061 8.92551 66.9729 9.18985 66.9729 9.50083C66.9729 9.86364 67.1025 10.1539 67.3616 10.3716C67.6312 10.5789 67.9784 10.7499 68.4034 10.8847C68.8388 11.0091 69.3105 11.1283 69.8184 11.2423C70.2641 11.3356 70.7047 11.4496 71.1401 11.5844C71.5858 11.7088 71.9901 11.8798 72.3529 12.0975C72.7261 12.3152 73.0215 12.6003 73.2392 12.9527C73.4569 13.3052 73.5657 13.7561 73.5657 14.3055C73.5657 14.9067 73.4103 15.4302 73.0993 15.876C72.7883 16.3217 72.3166 16.669 71.6843 16.9178C71.0623 17.1562 70.2849 17.2754 69.3519 17.2754ZM80.1694 17.2754C79.4126 17.2754 78.7337 17.1614 78.1324 16.9333C77.5416 16.7052 77.0336 16.3683 76.6086 15.9226C76.194 15.4769 75.8778 14.9326 75.6601 14.29C75.4424 13.6369 75.3336 12.8957 75.3336 12.0664C75.3336 11.2164 75.4424 10.4545 75.6601 9.78071C75.8882 9.10692 76.2095 8.53678 76.6242 8.07031C77.0492 7.59347 77.5468 7.23066 78.1169 6.98187C78.6974 6.73309 79.3453 6.60869 80.0605 6.60869C80.6203 6.60869 81.1334 6.68644 81.5999 6.84193C82.0664 6.98706 82.4706 7.20474 82.8127 7.49499C83.1548 7.77488 83.4191 8.11696 83.6057 8.52123C83.8027 8.92551 83.9012 9.37644 83.9012 9.87401L82.3151 10.2938C82.3255 9.7859 82.2219 9.37125 82.0042 9.0499C81.7865 8.71819 81.5014 8.4694 81.149 8.30355C80.8069 8.13769 80.4285 8.05476 80.0139 8.05476C79.6511 8.05476 79.2934 8.12732 78.941 8.27245C78.5885 8.41757 78.2724 8.65081 77.9925 8.97216C77.723 9.28314 77.5053 9.68742 77.3394 10.185C77.1839 10.6826 77.1062 11.2838 77.1062 11.9887C77.1062 12.8905 77.2358 13.6265 77.4949 14.1967C77.7541 14.7564 78.1169 15.1711 78.5834 15.4406C79.0602 15.6997 79.6096 15.8293 80.2316 15.8293C80.8328 15.8293 81.3148 15.7101 81.6776 15.4717C82.0404 15.2333 82.3048 14.9119 82.4706 14.5076C82.6469 14.1034 82.7453 13.6473 82.7661 13.1393L84.2899 13.4037C84.2795 13.9427 84.1966 14.4454 84.0411 14.9119C83.8856 15.3784 83.642 15.793 83.3103 16.1558C82.9889 16.5083 82.5691 16.783 82.0508 16.9799C81.5325 17.1769 80.9054 17.2754 80.1694 17.2754ZM90.5705 17.2754C89.8242 17.2754 89.1607 17.1562 88.5802 16.9178C88.0101 16.669 87.5229 16.3165 87.1186 15.8604C86.7247 15.4043 86.4241 14.8497 86.2168 14.1967C86.0094 13.5436 85.9058 12.8076 85.9058 11.9887C85.9058 10.7862 86.1079 9.79108 86.5122 9.00326C86.9165 8.20507 87.4711 7.60902 88.1759 7.21511C88.8912 6.81083 89.6998 6.60869 90.6016 6.60869C91.3065 6.60869 91.944 6.7279 92.5141 6.96632C93.0843 7.19438 93.5715 7.54164 93.9758 8.00811C94.38 8.46422 94.691 9.02917 94.9087 9.70297C95.1264 10.3664 95.2352 11.1231 95.2352 11.9731C95.2352 12.8024 95.1316 13.5488 94.9243 14.2122C94.7169 14.8653 94.4111 15.4199 94.0069 15.876C93.6129 16.3321 93.1257 16.6793 92.5452 16.9178C91.9647 17.1562 91.3065 17.2754 90.5705 17.2754ZM90.5861 15.8604C91.2184 15.8604 91.7471 15.7101 92.1721 15.4095C92.6074 15.1089 92.9392 14.6787 93.1672 14.1189C93.3953 13.5488 93.5093 12.8543 93.5093 12.0353C93.5093 11.1957 93.3901 10.4804 93.1517 9.88956C92.9236 9.29869 92.5867 8.84777 92.141 8.53678C91.7056 8.21544 91.1769 8.05476 90.555 8.05476C89.9537 8.05476 89.4354 8.21025 89 8.52123C88.5647 8.82185 88.2278 9.26241 87.9894 9.84291C87.7613 10.4234 87.6473 11.1387 87.6473 11.9887C87.6473 12.6106 87.7095 13.1652 87.8339 13.6524C87.9686 14.1293 88.1604 14.5336 88.4092 14.8653C88.658 15.1866 88.9638 15.4354 89.3266 15.6116C89.6998 15.7775 90.1196 15.8604 90.5861 15.8604ZM97.5496 17.0732V6.81083H101.328C101.857 6.81083 102.339 6.8523 102.774 6.93523C103.22 7.01815 103.609 7.14255 103.94 7.3084C104.282 7.47426 104.573 7.68158 104.811 7.93037C105.049 8.16879 105.226 8.44867 105.34 8.77002C105.464 9.081 105.526 9.42827 105.526 9.81181C105.526 10.1746 105.469 10.5063 105.355 10.807C105.252 11.0972 105.091 11.3564 104.873 11.5844C104.656 11.8125 104.381 11.9991 104.049 12.1442C103.717 12.2789 103.334 12.3722 102.899 12.4241V12.6262C103.324 12.678 103.681 12.7869 103.971 12.9527C104.262 13.1186 104.505 13.357 104.702 13.668C104.899 13.9686 105.065 14.3625 105.2 14.8497L105.853 17.0732H103.987L103.489 15.0363C103.386 14.6113 103.23 14.2744 103.023 14.0256C102.826 13.7665 102.572 13.5799 102.261 13.4658C101.95 13.3518 101.577 13.2948 101.141 13.2948H99.2445V17.0732H97.5496ZM99.2445 11.9576H101.188C102.038 11.9576 102.681 11.8021 103.116 11.4911C103.562 11.1801 103.785 10.7033 103.785 10.0606C103.785 9.4179 103.572 8.94624 103.147 8.64563C102.733 8.33465 102.09 8.17915 101.219 8.17915H99.2445V11.9576ZM107.955 17.0732V6.81083H109.665V17.0732H107.955ZM108.965 17.0732V15.6427H115.387V17.0732H108.965ZM108.965 12.5174V11.1957H114.641V12.5174H108.965ZM108.965 8.2258V6.81083H115.372V8.2258H108.965Z" fill="#0A1F18"/>
<rect x="2.07324" y="23.0732" width="176.606" height="54.9583" rx="16.5857" fill="#090C18"/>
<path d="M65.235 65.5923C57.0782 65.5923 50.4293 58.8528 50.4293 50.5524C50.4293 42.2521 57.0639 35.5126 65.235 35.5126C68.6241 35.5126 71.8552 36.6796 74.4401 38.7948L74.4688 38.7073C74.8565 37.6424 75.833 36.913 76.9388 36.8255H77.1542C78.2026 36.8255 79.1647 37.3944 79.6673 38.3134L82.7405 43.9005C83.2862 44.907 83.2144 46.147 82.5394 47.0514C82.0081 47.7954 81.1464 48.233 80.2274 48.233C80.0981 48.233 79.9832 48.233 79.854 48.2038C79.9689 48.9624 80.0263 49.7501 80.0263 50.5378C80.0263 58.8236 73.3918 65.5777 65.2207 65.5777L65.235 65.5923Z" fill="#FB7E5B"/>
<path d="M65.2345 63.5353C58.1978 63.5353 52.468 57.7149 52.468 50.5669C52.468 43.419 58.1978 37.5985 65.2345 37.5985C72.2711 37.5985 78.001 43.419 78.001 50.5669C78.001 57.7149 72.2711 63.5353 65.2345 63.5353ZM65.2345 39.3053C59.1169 39.3053 54.1482 44.3526 54.1482 50.5669C54.1482 56.7813 59.1169 61.8286 65.2345 61.8286C71.3521 61.8286 76.3208 56.7813 76.3208 50.5669C76.3208 44.3526 71.3521 39.3053 65.2345 39.3053Z" fill="#0A1F18"/>
<path d="M65.2344 59.1299C60.5816 59.1299 56.8048 55.2934 56.8048 50.567C56.8048 45.8406 60.5816 42.004 65.2344 42.004C69.8872 42.004 73.664 45.8406 73.664 50.567C73.664 55.2934 69.8872 59.1299 65.2344 59.1299ZM65.2344 43.7108C61.515 43.7108 58.485 46.7888 58.485 50.567C58.485 54.3452 61.515 57.4232 65.2344 57.4232C68.9538 57.4232 71.9839 54.3452 71.9839 50.567C71.9839 46.7888 68.9538 43.7108 65.2344 43.7108Z" fill="#0A1F18"/>
<path d="M65.2344 54.5785C63.0516 54.5785 61.2853 52.7842 61.2853 50.5669C61.2853 48.3496 63.0516 46.5553 65.2344 46.5553C67.4172 46.5553 69.1836 48.3496 69.1836 50.5669C69.1836 52.7842 67.4172 54.5785 65.2344 54.5785ZM65.2344 48.2621C63.9851 48.2621 62.9655 49.2978 62.9655 50.5669C62.9655 51.836 63.9851 52.8717 65.2344 52.8717C66.4838 52.8717 67.5034 51.836 67.5034 50.5669C67.5034 49.2978 66.4838 48.2621 65.2344 48.2621Z" fill="#0A1F18"/>
<path d="M65.2347 51.413C64.9475 51.413 64.6603 51.2671 64.5023 50.99C64.2726 50.5815 64.4018 50.0564 64.8039 49.823L77.8576 42.1207C78.2597 41.8873 78.7766 42.0186 79.0064 42.427C79.2362 42.8355 79.1069 43.3606 78.7048 43.594L65.6512 51.2963C65.5219 51.3693 65.3783 51.413 65.2347 51.413Z" fill="#0A1F18"/>
<path d="M75.4596 44.3381L77.1685 39.7576L80.2417 45.3446L75.4596 44.3381Z" fill="#0A1F18"/>
<path d="M80.2424 46.1907C80.2424 46.1907 80.1275 46.1907 80.0701 46.1761L75.288 45.1696C75.0439 45.1112 74.8429 44.9654 74.728 44.7466C74.6131 44.5277 74.5987 44.2652 74.6849 44.0318L76.3794 39.4512C76.4943 39.1449 76.7815 38.9261 77.0975 38.8969C77.4134 38.8823 77.7293 39.0428 77.8873 39.3345L80.9604 44.9216C81.1184 45.2134 81.104 45.5781 80.903 45.8406C80.745 46.0594 80.4865 46.1907 80.228 46.1907H80.2424ZM76.5948 43.7108L78.6197 44.1339L77.3272 41.7707L76.6092 43.7108H76.5948Z" fill="#0A1F18"/>
<path d="M91.6866 58.0524C91.67 55.9128 91.7695 54.0967 91.9851 52.604C92.2007 51.1112 92.4993 49.8507 92.8808 48.8224C93.2788 47.7775 93.7266 46.8819 94.2242 46.1355C94.7384 45.3892 95.2774 44.6926 95.8413 44.0457H89.5968V40.6871H100.444V42.9511C99.6311 43.996 98.9428 44.9662 98.3789 45.8619C97.8316 46.7575 97.3921 47.6448 97.0604 48.5239C96.7286 49.3863 96.4799 50.2903 96.314 51.2356C96.1481 52.1644 96.032 53.1845 95.9657 54.2957C95.8994 55.4069 95.8579 56.6592 95.8413 58.0524H91.6866ZM99.4833 58.0524L103.24 40.6871H107.071L103.315 58.0524H99.4833ZM111.463 58.0524V45.8619C111.214 46.0775 110.974 46.2848 110.741 46.4838C110.509 46.6663 110.202 46.8653 109.821 47.0809C109.456 47.2799 108.934 47.5204 108.254 47.8024L107.283 44.1701C108.511 43.6062 109.572 43.0506 110.468 42.5033C111.363 41.9559 112.01 41.3506 112.408 40.6871H115.717V58.0524H111.463ZM123.566 58.326C122.339 58.326 121.269 57.9611 120.357 57.2314C119.461 56.5016 118.764 55.465 118.267 54.1216C117.769 52.7781 117.52 51.1942 117.52 49.3697C117.52 47.5453 117.769 45.9614 118.267 44.6179C118.764 43.2745 119.461 42.2379 120.357 41.5081C121.269 40.7783 122.339 40.4135 123.566 40.4135C124.777 40.4135 125.822 40.7783 126.701 41.5081C127.596 42.2379 128.293 43.2745 128.79 44.6179C129.288 45.9448 129.537 47.5287 129.537 49.3697C129.537 51.2108 129.288 52.803 128.79 54.1464C128.293 55.4733 127.596 56.5016 126.701 57.2314C125.822 57.9611 124.777 58.326 123.566 58.326ZM123.566 54.9674C124.13 54.9674 124.553 54.4864 124.835 53.5245C125.133 52.5625 125.283 51.1776 125.283 49.3697C125.283 47.5619 125.133 46.177 124.835 45.215C124.553 44.2531 124.13 43.7721 123.566 43.7721C123.002 43.7721 122.563 44.2531 122.247 45.215C121.932 46.1604 121.775 47.5453 121.775 49.3697C121.775 51.1776 121.932 52.5625 122.247 53.5245C122.563 54.4864 123.002 54.9674 123.566 54.9674Z" fill="#FB7E5B"/>
</svg>
