<svg width="133" height="180" viewBox="0 0 133 180" fill="none" xmlns="http://www.w3.org/2000/svg">
<g filter="url(#filter0_i_13896_13057)">
<path d="M6.5 59.9999C6.5 26.863 33.3628 0.000244141 66.4997 0.000244141C99.6366 0.000244141 126.499 26.863 126.499 59.9999C126.499 93.1369 99.6366 120 66.4997 120C33.3628 120 6.5 93.1369 6.5 59.9999Z" fill="#15103A"/>
<path d="M64.1235 78.0793V69.8528C64.1235 68.7169 65.0443 67.7961 66.1802 67.7961C67.316 67.7961 68.2368 68.7169 68.2368 69.8528V78.0793C68.2368 79.2152 67.316 80.136 66.1802 80.136C65.0443 80.136 64.1235 79.2152 64.1235 78.0793ZM55.9853 64.7996C56.7885 63.9964 58.0904 63.9964 58.8936 64.7996C59.6967 65.6027 59.6967 66.9046 58.8936 67.7078L53.0771 73.5242C52.274 74.3274 50.9721 74.3274 50.1689 73.5242C49.3657 72.721 49.3657 71.4192 50.1689 70.616L55.9853 64.7996ZM76.5518 67.8845C77.3549 67.0813 78.6568 67.0813 79.46 67.8845L80.9141 69.3386C81.7172 70.1418 81.7172 71.4437 80.9141 72.2468C80.1109 73.05 78.809 73.05 78.0059 72.2468L76.5518 70.7927C75.7486 69.9896 75.7486 68.6877 76.5518 67.8845ZM53.3262 55.4563C54.462 55.4563 55.3828 56.3771 55.3828 57.5129C55.3828 58.6488 54.462 59.5696 53.3262 59.5696H46.1279C44.9921 59.5696 44.0713 58.6488 44.0713 57.5129C44.0713 56.3771 44.9921 55.4563 46.1279 55.4563H53.3262ZM85.2041 55.4563C86.34 55.4563 87.2607 56.3771 87.2607 57.5129C87.2607 58.6488 86.34 59.5696 85.2041 59.5696H82.1191C80.9833 59.5696 80.0625 58.6488 80.0625 57.5129C80.0625 56.3771 80.9833 55.4563 82.1191 55.4563H85.2041ZM50.5947 42.0922C51.3979 41.289 52.6997 41.289 53.5029 42.0922L57.8652 46.4545C58.6683 47.2577 58.6684 48.5596 57.8652 49.3627C57.0621 50.1658 55.7602 50.1658 54.957 49.3627L50.5947 45.0004C49.7916 44.1972 49.7916 42.8953 50.5947 42.0922ZM78.4316 42.5179C79.2348 41.7148 80.5367 41.7148 81.3399 42.5179C82.143 43.3211 82.143 44.623 81.3399 45.4262L78.4316 48.3344C77.6285 49.1374 76.3266 49.1374 75.5234 48.3344C74.7203 47.5312 74.7203 46.2293 75.5234 45.4262L78.4316 42.5179ZM64.1235 42.6023V37.4607C64.1235 36.3248 65.0443 35.4041 66.1802 35.4041C67.316 35.4041 68.2368 36.3248 68.2368 37.4607V42.6023C68.2368 43.7381 67.316 44.6589 66.1802 44.6589C65.0443 44.6589 64.1235 43.7381 64.1235 42.6023Z" fill="#F4F2FF"/>
</g>
<path d="M36.6868 150.234C35.9068 150.234 35.2108 150.156 34.5988 150C33.9988 149.832 33.4888 149.592 33.0688 149.28C32.6608 148.956 32.3488 148.56 32.1328 148.092C31.9288 147.612 31.8328 147.06 31.8448 146.436L33.5908 145.968C33.5668 146.568 33.6808 147.066 33.9328 147.462C34.1848 147.858 34.5568 148.158 35.0488 148.362C35.5528 148.554 36.1288 148.65 36.7768 148.65C37.4128 148.65 37.9468 148.572 38.3788 148.416C38.8108 148.26 39.1348 148.05 39.3508 147.786C39.5788 147.51 39.6928 147.198 39.6928 146.85C39.6928 146.454 39.5548 146.142 39.2788 145.914C39.0148 145.674 38.6608 145.488 38.2168 145.356C37.7728 145.212 37.2748 145.08 36.7228 144.96C36.1588 144.84 35.6008 144.702 35.0488 144.546C34.4968 144.39 33.9928 144.186 33.5368 143.934C33.0928 143.67 32.7328 143.334 32.4568 142.926C32.1928 142.518 32.0608 142.002 32.0608 141.378C32.0608 140.658 32.2408 140.04 32.6008 139.524C32.9608 139.008 33.4708 138.606 34.1308 138.318C34.8028 138.03 35.5948 137.886 36.5068 137.886C37.4188 137.886 38.2168 138.03 38.9008 138.318C39.5968 138.594 40.1428 139.002 40.5388 139.542C40.9468 140.07 41.1568 140.712 41.1688 141.468L39.3688 141.936C39.3688 141.528 39.2968 141.168 39.1528 140.856C39.0208 140.544 38.8288 140.286 38.5768 140.082C38.3248 139.878 38.0248 139.728 37.6768 139.632C37.3288 139.524 36.9328 139.47 36.4888 139.47C35.9728 139.47 35.5228 139.548 35.1388 139.704C34.7548 139.848 34.4548 140.052 34.2388 140.316C34.0348 140.568 33.9328 140.868 33.9328 141.216C33.9328 141.648 34.0828 141.99 34.3828 142.242C34.6948 142.482 35.1028 142.68 35.6068 142.836C36.1108 142.98 36.6508 143.118 37.2268 143.25C37.7428 143.358 38.2528 143.49 38.7568 143.646C39.2728 143.79 39.7408 143.988 40.1608 144.24C40.5928 144.492 40.9348 144.822 41.1868 145.23C41.4508 145.638 41.5828 146.16 41.5828 146.796C41.5828 147.492 41.3968 148.098 41.0248 148.614C40.6648 149.13 40.1248 149.532 39.4048 149.82C38.6848 150.096 37.7788 150.234 36.6868 150.234ZM48.11 150.234C47.366 150.234 46.706 150.126 46.13 149.91C45.554 149.682 45.068 149.364 44.672 148.956C44.276 148.536 43.976 148.038 43.772 147.462C43.568 146.874 43.466 146.214 43.466 145.482C43.466 144.75 43.568 144.078 43.772 143.466C43.976 142.842 44.264 142.302 44.636 141.846C45.02 141.39 45.488 141.036 46.04 140.784C46.604 140.532 47.24 140.406 47.948 140.406C48.608 140.406 49.196 140.514 49.712 140.73C50.24 140.946 50.684 141.276 51.044 141.72C51.404 142.152 51.674 142.698 51.854 143.358C52.034 144.006 52.1 144.768 52.052 145.644L44.726 145.698V144.474L50.9 144.42L50.216 145.176C50.288 144.456 50.228 143.862 50.036 143.394C49.844 142.926 49.568 142.578 49.208 142.35C48.848 142.122 48.434 142.008 47.966 142.008C47.438 142.008 46.976 142.146 46.58 142.422C46.196 142.686 45.896 143.076 45.68 143.592C45.464 144.108 45.356 144.726 45.356 145.446C45.356 146.526 45.596 147.342 46.076 147.894C46.556 148.434 47.24 148.704 48.128 148.704C48.5 148.704 48.818 148.662 49.082 148.578C49.346 148.482 49.568 148.362 49.748 148.218C49.928 148.062 50.072 147.882 50.18 147.678C50.3 147.462 50.396 147.24 50.468 147.012L52.178 147.408C52.07 147.852 51.902 148.248 51.674 148.596C51.458 148.932 51.182 149.226 50.846 149.478C50.51 149.718 50.114 149.904 49.658 150.036C49.214 150.168 48.698 150.234 48.11 150.234ZM54.4337 150V144.24V140.64H56.1257L56.0177 143.556H56.3237C56.4917 142.836 56.7137 142.248 56.9897 141.792C57.2777 141.324 57.6377 140.976 58.0697 140.748C58.5137 140.52 59.0297 140.406 59.6177 140.406C60.6617 140.406 61.4537 140.778 61.9937 141.522C62.5457 142.266 62.8217 143.4 62.8217 144.924V150H60.8417V145.122C60.8417 144.078 60.6857 143.316 60.3737 142.836C60.0617 142.344 59.5937 142.098 58.9697 142.098C58.4297 142.098 57.9677 142.272 57.5837 142.62C57.2117 142.956 56.9237 143.4 56.7197 143.952C56.5157 144.504 56.4017 145.104 56.3777 145.752V150H54.4337ZM68.9124 150.234C68.1204 150.234 67.4364 150.03 66.8604 149.622C66.2844 149.202 65.8464 148.626 65.5464 147.894C65.2464 147.15 65.0964 146.292 65.0964 145.32C65.0964 144.372 65.2344 143.532 65.5104 142.8C65.7984 142.056 66.2184 141.474 66.7704 141.054C67.3344 140.634 68.0244 140.424 68.8404 140.424C69.4884 140.424 70.0224 140.556 70.4424 140.82C70.8624 141.072 71.1984 141.42 71.4504 141.864C71.7144 142.308 71.9124 142.8 72.0444 143.34H72.4044C72.3444 142.992 72.2844 142.632 72.2244 142.26C72.1644 141.876 72.1164 141.51 72.0804 141.162C72.0444 140.802 72.0264 140.484 72.0264 140.208V137.31H74.0064V145.392V150H72.2964L72.3684 147.408H72.0444C71.9004 147.996 71.6964 148.5 71.4324 148.92C71.1684 149.34 70.8264 149.664 70.4064 149.892C69.9984 150.12 69.5004 150.234 68.9124 150.234ZM69.4524 148.578C69.8724 148.578 70.2444 148.482 70.5684 148.29C70.8924 148.098 71.1624 147.846 71.3784 147.534C71.5944 147.222 71.7564 146.886 71.8644 146.526C71.9844 146.154 72.0444 145.806 72.0444 145.482V145.23C72.0444 144.99 72.0084 144.732 71.9364 144.456C71.8764 144.168 71.7744 143.886 71.6304 143.61C71.4984 143.322 71.3304 143.064 71.1264 142.836C70.9224 142.608 70.6764 142.428 70.3884 142.296C70.1124 142.152 69.8004 142.08 69.4524 142.08C68.9484 142.08 68.5224 142.224 68.1744 142.512C67.8384 142.788 67.5804 143.172 67.4004 143.664C67.2204 144.156 67.1304 144.72 67.1304 145.356C67.1304 146.004 67.2204 146.574 67.4004 147.066C67.5924 147.546 67.8624 147.918 68.2104 148.182C68.5584 148.446 68.9724 148.578 69.4524 148.578ZM76.8718 150V140.64H78.8158V150H76.8718ZM77.8438 139.074C77.4238 139.074 77.1058 138.99 76.8898 138.822C76.6738 138.642 76.5658 138.378 76.5658 138.03C76.5658 137.694 76.6738 137.436 76.8898 137.256C77.1058 137.076 77.4238 136.986 77.8438 136.986C78.2758 136.986 78.5998 137.076 78.8158 137.256C79.0318 137.436 79.1398 137.694 79.1398 138.03C79.1398 138.378 79.0318 138.642 78.8158 138.822C78.5998 138.99 78.2758 139.074 77.8438 139.074ZM81.71 150V144.24V140.64H83.402L83.294 143.556H83.6C83.768 142.836 83.99 142.248 84.266 141.792C84.554 141.324 84.914 140.976 85.346 140.748C85.79 140.52 86.306 140.406 86.894 140.406C87.938 140.406 88.73 140.778 89.27 141.522C89.822 142.266 90.098 143.4 90.098 144.924V150H88.118V145.122C88.118 144.078 87.962 143.316 87.65 142.836C87.338 142.344 86.87 142.098 86.246 142.098C85.706 142.098 85.244 142.272 84.86 142.62C84.488 142.956 84.2 143.4 83.996 143.952C83.792 144.504 83.678 145.104 83.654 145.752V150H81.71ZM96.4052 153.204C95.3972 153.204 94.5692 153.126 93.9212 152.97C93.2852 152.814 92.8172 152.58 92.5172 152.268C92.2172 151.956 92.0672 151.572 92.0672 151.116C92.0672 150.564 92.2832 150.114 92.7152 149.766C93.1472 149.406 93.8012 149.178 94.6772 149.082V148.722C94.0292 148.734 93.5372 148.668 93.2012 148.524C92.8772 148.368 92.7152 148.128 92.7152 147.804C92.7152 147.468 92.8772 147.186 93.2012 146.958C93.5372 146.718 94.0772 146.508 94.8212 146.328V145.986C94.0892 145.962 93.5252 145.734 93.1292 145.302C92.7332 144.87 92.5352 144.318 92.5352 143.646C92.5352 143.034 92.6972 142.5 93.0212 142.044C93.3572 141.576 93.8432 141.216 94.4792 140.964C95.1272 140.7 95.9072 140.568 96.8192 140.568H101.337V142.152L98.4392 141.72V142.08C99.1592 142.212 99.6992 142.44 100.059 142.764C100.419 143.088 100.599 143.526 100.599 144.078C100.599 144.57 100.443 145.008 100.131 145.392C99.8312 145.776 99.3872 146.076 98.7992 146.292C98.2112 146.496 97.4912 146.598 96.6392 146.598C96.4832 146.598 96.3152 146.592 96.1352 146.58C95.9552 146.568 95.6912 146.538 95.3432 146.49C95.0552 146.67 94.8212 146.838 94.6412 146.994C94.4732 147.15 94.3892 147.288 94.3892 147.408C94.3892 147.528 94.4612 147.624 94.6052 147.696C94.7612 147.768 94.9532 147.816 95.1812 147.84C95.4092 147.864 95.6252 147.876 95.8292 147.876H98.1332C98.3732 147.876 98.6792 147.9 99.0512 147.948C99.4232 147.984 99.7952 148.08 100.167 148.236C100.539 148.392 100.851 148.638 101.103 148.974C101.355 149.298 101.481 149.754 101.481 150.342C101.481 151.014 101.289 151.56 100.905 151.98C100.521 152.4 99.9512 152.706 99.1952 152.898C98.4392 153.102 97.5092 153.204 96.4052 153.204ZM96.5312 151.602C97.2992 151.602 97.9172 151.554 98.3852 151.458C98.8532 151.374 99.1952 151.23 99.4112 151.026C99.6272 150.822 99.7352 150.564 99.7352 150.252C99.7352 149.964 99.6632 149.742 99.5192 149.586C99.3752 149.418 99.1952 149.304 98.9792 149.244C98.7752 149.172 98.5652 149.13 98.3492 149.118C98.1332 149.106 97.9472 149.1 97.7912 149.1H95.6492C95.0132 149.208 94.5692 149.394 94.3172 149.658C94.0652 149.91 93.9392 150.192 93.9392 150.504C93.9392 150.804 94.0472 151.032 94.2632 151.188C94.4792 151.356 94.7792 151.464 95.1632 151.512C95.5592 151.572 96.0152 151.602 96.5312 151.602ZM96.6572 145.446C97.3532 145.446 97.8752 145.296 98.2232 144.996C98.5832 144.684 98.7632 144.276 98.7632 143.772C98.7632 143.232 98.5832 142.794 98.2232 142.458C97.8632 142.11 97.3292 141.936 96.6212 141.936C95.9252 141.936 95.3912 142.104 95.0192 142.44C94.6592 142.776 94.4792 143.202 94.4792 143.718C94.4792 144.066 94.5632 144.372 94.7312 144.636C94.8992 144.888 95.1392 145.086 95.4512 145.23C95.7752 145.374 96.1772 145.446 96.6572 145.446Z" fill="#F5F3FF" fill-opacity="0.68"/>
<path d="M32.9585 168.584H30.2225V167.504H36.8465V168.584H34.1105V176H32.9585V168.584ZM36.6052 171.008C36.9092 170.728 37.2612 170.52 37.6612 170.384C38.0612 170.24 38.4612 170.168 38.8612 170.168C39.2772 170.168 39.6332 170.22 39.9292 170.324C40.2332 170.428 40.4812 170.568 40.6732 170.744C40.8652 170.92 41.0052 171.124 41.0932 171.356C41.1892 171.58 41.2372 171.816 41.2372 172.064V174.968C41.2372 175.168 41.2412 175.352 41.2492 175.52C41.2572 175.688 41.2692 175.848 41.2852 176H40.3252C40.3012 175.712 40.2892 175.424 40.2892 175.136H40.2652C40.0252 175.504 39.7412 175.764 39.4132 175.916C39.0852 176.068 38.7052 176.144 38.2732 176.144C38.0092 176.144 37.7572 176.108 37.5172 176.036C37.2772 175.964 37.0652 175.856 36.8812 175.712C36.7052 175.568 36.5652 175.392 36.4612 175.184C36.3572 174.968 36.3052 174.72 36.3052 174.44C36.3052 174.072 36.3852 173.764 36.5452 173.516C36.7132 173.268 36.9372 173.068 37.2172 172.916C37.5052 172.756 37.8372 172.644 38.2132 172.58C38.5972 172.508 39.0052 172.472 39.4372 172.472H40.2292V172.232C40.2292 172.088 40.2012 171.944 40.1452 171.8C40.0892 171.656 40.0052 171.528 39.8932 171.416C39.7812 171.296 39.6412 171.204 39.4732 171.14C39.3052 171.068 39.1052 171.032 38.8732 171.032C38.6652 171.032 38.4812 171.052 38.3212 171.092C38.1692 171.132 38.0292 171.184 37.9012 171.248C37.7732 171.304 37.6572 171.372 37.5532 171.452C37.4492 171.532 37.3492 171.608 37.2532 171.68L36.6052 171.008ZM39.6532 173.264C39.3972 173.264 39.1332 173.28 38.8612 173.312C38.5972 173.336 38.3532 173.388 38.1292 173.468C37.9132 173.548 37.7332 173.66 37.5892 173.804C37.4532 173.948 37.3852 174.132 37.3852 174.356C37.3852 174.684 37.4932 174.92 37.7092 175.064C37.9332 175.208 38.2332 175.28 38.6092 175.28C38.9052 175.28 39.1572 175.232 39.3652 175.136C39.5732 175.032 39.7412 174.9 39.8692 174.74C39.9972 174.58 40.0892 174.404 40.1452 174.212C40.2012 174.012 40.2292 173.816 40.2292 173.624V173.264H39.6532ZM42.9239 170.312H44.0039V171.128H44.0279C44.2359 170.824 44.5199 170.588 44.8799 170.42C45.2479 170.252 45.6239 170.168 46.0079 170.168C46.4479 170.168 46.8439 170.244 47.1959 170.396C47.5559 170.548 47.8599 170.76 48.1079 171.032C48.3639 171.304 48.5599 171.624 48.6959 171.992C48.8319 172.352 48.8999 172.74 48.8999 173.156C48.8999 173.58 48.8319 173.976 48.6959 174.344C48.5599 174.704 48.3639 175.02 48.1079 175.292C47.8599 175.556 47.5559 175.764 47.1959 175.916C46.8439 176.068 46.4479 176.144 46.0079 176.144C45.5999 176.144 45.2159 176.06 44.8559 175.892C44.4959 175.716 44.2199 175.48 44.0279 175.184H44.0039V179.384H42.9239V170.312ZM45.8759 171.176C45.5879 171.176 45.3279 171.228 45.0959 171.332C44.8639 171.428 44.6679 171.564 44.5079 171.74C44.3479 171.908 44.2239 172.116 44.1359 172.364C44.0479 172.604 44.0039 172.868 44.0039 173.156C44.0039 173.444 44.0479 173.712 44.1359 173.96C44.2239 174.2 44.3479 174.408 44.5079 174.584C44.6679 174.752 44.8639 174.888 45.0959 174.992C45.3279 175.088 45.5879 175.136 45.8759 175.136C46.1639 175.136 46.4239 175.088 46.6559 174.992C46.8879 174.888 47.0839 174.752 47.2439 174.584C47.4039 174.408 47.5279 174.2 47.6159 173.96C47.7039 173.712 47.7479 173.444 47.7479 173.156C47.7479 172.868 47.7039 172.604 47.6159 172.364C47.5279 172.116 47.4039 171.908 47.2439 171.74C47.0839 171.564 46.8879 171.428 46.6559 171.332C46.4239 171.228 46.1639 171.176 45.8759 171.176ZM56.8877 171.248H55.3397V173.828C55.3397 173.988 55.3437 174.148 55.3517 174.308C55.3597 174.46 55.3877 174.6 55.4357 174.728C55.4917 174.848 55.5717 174.948 55.6757 175.028C55.7877 175.1 55.9477 175.136 56.1557 175.136C56.2837 175.136 56.4157 175.124 56.5517 175.1C56.6877 175.076 56.8117 175.032 56.9237 174.968V175.952C56.7957 176.024 56.6277 176.072 56.4197 176.096C56.2197 176.128 56.0637 176.144 55.9517 176.144C55.5357 176.144 55.2117 176.088 54.9797 175.976C54.7557 175.856 54.5877 175.704 54.4757 175.52C54.3717 175.336 54.3077 175.132 54.2837 174.908C54.2677 174.676 54.2597 174.444 54.2597 174.212V171.248H53.0117V170.312H54.2597V168.716H55.3397V170.312H56.8877V171.248ZM59.2771 173.156C59.2771 173.444 59.3211 173.712 59.4091 173.96C59.4971 174.2 59.6211 174.408 59.7811 174.584C59.9411 174.752 60.1371 174.888 60.3691 174.992C60.6011 175.088 60.8611 175.136 61.1491 175.136C61.4371 175.136 61.6971 175.088 61.9291 174.992C62.1611 174.888 62.3571 174.752 62.5171 174.584C62.6771 174.408 62.8011 174.2 62.8891 173.96C62.9771 173.712 63.0211 173.444 63.0211 173.156C63.0211 172.868 62.9771 172.604 62.8891 172.364C62.8011 172.116 62.6771 171.908 62.5171 171.74C62.3571 171.564 62.1611 171.428 61.9291 171.332C61.6971 171.228 61.4371 171.176 61.1491 171.176C60.8611 171.176 60.6011 171.228 60.3691 171.332C60.1371 171.428 59.9411 171.564 59.7811 171.74C59.6211 171.908 59.4971 172.116 59.4091 172.364C59.3211 172.604 59.2771 172.868 59.2771 173.156ZM58.1251 173.156C58.1251 172.74 58.2011 172.352 58.3531 171.992C58.5131 171.632 58.7291 171.316 59.0011 171.044C59.2731 170.772 59.5931 170.56 59.9611 170.408C60.3291 170.248 60.7251 170.168 61.1491 170.168C61.5731 170.168 61.9691 170.248 62.3371 170.408C62.7051 170.56 63.0251 170.772 63.2971 171.044C63.5691 171.316 63.7811 171.632 63.9331 171.992C64.0931 172.352 64.1731 172.74 64.1731 173.156C64.1731 173.572 64.0931 173.964 63.9331 174.332C63.7811 174.692 63.5691 175.008 63.2971 175.28C63.0251 175.544 62.7051 175.756 62.3371 175.916C61.9691 176.068 61.5731 176.144 61.1491 176.144C60.7251 176.144 60.3291 176.068 59.9611 175.916C59.5931 175.756 59.2731 175.544 59.0011 175.28C58.7291 175.008 58.5131 174.692 58.3531 174.332C58.2011 173.964 58.1251 173.572 58.1251 173.156ZM73.1739 171.824C72.9739 171.616 72.7619 171.46 72.5379 171.356C72.3219 171.244 72.0619 171.188 71.7579 171.188C71.4619 171.188 71.2019 171.244 70.9779 171.356C70.7619 171.46 70.5779 171.608 70.4259 171.8C70.2819 171.984 70.1699 172.2 70.0899 172.448C70.0179 172.688 69.9819 172.94 69.9819 173.204C69.9819 173.468 70.0259 173.72 70.1139 173.96C70.2019 174.192 70.3259 174.396 70.4859 174.572C70.6459 174.748 70.8379 174.888 71.0619 174.992C71.2859 175.088 71.5379 175.136 71.8179 175.136C72.1219 175.136 72.3819 175.084 72.5979 174.98C72.8139 174.868 73.0139 174.708 73.1979 174.5L73.9659 175.268C73.6859 175.58 73.3579 175.804 72.9819 175.94C72.6139 176.076 72.2219 176.144 71.8059 176.144C71.3659 176.144 70.9619 176.072 70.5939 175.928C70.2339 175.784 69.9219 175.584 69.6579 175.328C69.3939 175.064 69.1899 174.752 69.0459 174.392C68.9019 174.024 68.8299 173.62 68.8299 173.18C68.8299 172.74 68.9019 172.336 69.0459 171.968C69.1899 171.6 69.3899 171.284 69.6459 171.02C69.9099 170.756 70.2219 170.552 70.5819 170.408C70.9499 170.256 71.3579 170.18 71.8059 170.18C72.2219 170.18 72.6179 170.256 72.9939 170.408C73.3779 170.552 73.7099 170.776 73.9899 171.08L73.1739 171.824ZM75.039 171.008C75.343 170.728 75.695 170.52 76.095 170.384C76.495 170.24 76.895 170.168 77.295 170.168C77.711 170.168 78.067 170.22 78.363 170.324C78.667 170.428 78.915 170.568 79.107 170.744C79.299 170.92 79.439 171.124 79.527 171.356C79.623 171.58 79.671 171.816 79.671 172.064V174.968C79.671 175.168 79.675 175.352 79.683 175.52C79.691 175.688 79.703 175.848 79.719 176H78.759C78.735 175.712 78.723 175.424 78.723 175.136H78.699C78.459 175.504 78.175 175.764 77.847 175.916C77.519 176.068 77.139 176.144 76.707 176.144C76.443 176.144 76.191 176.108 75.951 176.036C75.711 175.964 75.499 175.856 75.315 175.712C75.139 175.568 74.999 175.392 74.895 175.184C74.791 174.968 74.739 174.72 74.739 174.44C74.739 174.072 74.819 173.764 74.979 173.516C75.147 173.268 75.371 173.068 75.651 172.916C75.939 172.756 76.271 172.644 76.647 172.58C77.031 172.508 77.439 172.472 77.871 172.472H78.663V172.232C78.663 172.088 78.635 171.944 78.579 171.8C78.523 171.656 78.439 171.528 78.327 171.416C78.215 171.296 78.075 171.204 77.907 171.14C77.739 171.068 77.539 171.032 77.307 171.032C77.099 171.032 76.915 171.052 76.755 171.092C76.603 171.132 76.463 171.184 76.335 171.248C76.207 171.304 76.091 171.372 75.987 171.452C75.883 171.532 75.783 171.608 75.687 171.68L75.039 171.008ZM78.087 173.264C77.831 173.264 77.567 173.28 77.295 173.312C77.031 173.336 76.787 173.388 76.563 173.468C76.347 173.548 76.167 173.66 76.023 173.804C75.887 173.948 75.819 174.132 75.819 174.356C75.819 174.684 75.927 174.92 76.143 175.064C76.367 175.208 76.667 175.28 77.043 175.28C77.339 175.28 77.591 175.232 77.799 175.136C78.007 175.032 78.175 174.9 78.303 174.74C78.431 174.58 78.523 174.404 78.579 174.212C78.635 174.012 78.663 173.816 78.663 173.624V173.264H78.087ZM81.3576 170.312H82.4376V171.188H82.4616C82.5976 170.884 82.8336 170.64 83.1696 170.456C83.5056 170.264 83.8936 170.168 84.3336 170.168C84.6056 170.168 84.8656 170.212 85.1136 170.3C85.3696 170.38 85.5896 170.508 85.7736 170.684C85.9656 170.86 86.1176 171.088 86.2296 171.368C86.3416 171.64 86.3976 171.964 86.3976 172.34V176H85.3176V172.64C85.3176 172.376 85.2816 172.152 85.2096 171.968C85.1376 171.776 85.0416 171.624 84.9216 171.512C84.8016 171.392 84.6616 171.308 84.5016 171.26C84.3496 171.204 84.1896 171.176 84.0216 171.176C83.7976 171.176 83.5896 171.212 83.3976 171.284C83.2056 171.356 83.0376 171.472 82.8936 171.632C82.7496 171.784 82.6376 171.98 82.5576 172.22C82.4776 172.46 82.4376 172.744 82.4376 173.072V176H81.3576V170.312ZM92.2136 171.824C92.0136 171.616 91.8016 171.46 91.5776 171.356C91.3616 171.244 91.1016 171.188 90.7976 171.188C90.5016 171.188 90.2416 171.244 90.0176 171.356C89.8016 171.46 89.6176 171.608 89.4656 171.8C89.3216 171.984 89.2096 172.2 89.1296 172.448C89.0576 172.688 89.0216 172.94 89.0216 173.204C89.0216 173.468 89.0656 173.72 89.1536 173.96C89.2416 174.192 89.3656 174.396 89.5256 174.572C89.6856 174.748 89.8776 174.888 90.1016 174.992C90.3256 175.088 90.5776 175.136 90.8576 175.136C91.1616 175.136 91.4216 175.084 91.6376 174.98C91.8536 174.868 92.0536 174.708 92.2376 174.5L93.0056 175.268C92.7256 175.58 92.3976 175.804 92.0216 175.94C91.6536 176.076 91.2616 176.144 90.8456 176.144C90.4056 176.144 90.0016 176.072 89.6336 175.928C89.2736 175.784 88.9616 175.584 88.6976 175.328C88.4336 175.064 88.2296 174.752 88.0856 174.392C87.9416 174.024 87.8696 173.62 87.8696 173.18C87.8696 172.74 87.9416 172.336 88.0856 171.968C88.2296 171.6 88.4296 171.284 88.6856 171.02C88.9496 170.756 89.2616 170.552 89.6216 170.408C89.9896 170.256 90.3976 170.18 90.8456 170.18C91.2616 170.18 91.6576 170.256 92.0336 170.408C92.4176 170.552 92.7496 170.776 93.0296 171.08L92.2136 171.824ZM94.8707 173.552C94.8707 173.8 94.9227 174.028 95.0267 174.236C95.1387 174.436 95.2827 174.608 95.4587 174.752C95.6347 174.896 95.8387 175.008 96.0707 175.088C96.3027 175.168 96.5427 175.208 96.7907 175.208C97.1267 175.208 97.4187 175.132 97.6667 174.98C97.9147 174.82 98.1427 174.612 98.3507 174.356L99.1667 174.98C98.5667 175.756 97.7267 176.144 96.6467 176.144C96.1987 176.144 95.7907 176.068 95.4227 175.916C95.0627 175.764 94.7547 175.556 94.4987 175.292C94.2507 175.02 94.0587 174.704 93.9227 174.344C93.7867 173.976 93.7187 173.58 93.7187 173.156C93.7187 172.732 93.7907 172.34 93.9347 171.98C94.0867 171.612 94.2907 171.296 94.5467 171.032C94.8107 170.76 95.1227 170.548 95.4827 170.396C95.8427 170.244 96.2347 170.168 96.6587 170.168C97.1627 170.168 97.5867 170.256 97.9307 170.432C98.2827 170.608 98.5707 170.84 98.7947 171.128C99.0187 171.408 99.1787 171.728 99.2747 172.088C99.3787 172.44 99.4307 172.8 99.4307 173.168V173.552H94.8707ZM98.2787 172.688C98.2707 172.448 98.2307 172.228 98.1587 172.028C98.0947 171.828 97.9947 171.656 97.8587 171.512C97.7227 171.36 97.5507 171.244 97.3427 171.164C97.1427 171.076 96.9067 171.032 96.6347 171.032C96.3707 171.032 96.1267 171.084 95.9027 171.188C95.6867 171.284 95.5027 171.412 95.3507 171.572C95.1987 171.732 95.0787 171.912 94.9907 172.112C94.9107 172.304 94.8707 172.496 94.8707 172.688H98.2787ZM100.927 166.928H102.007V176H100.927V166.928Z" fill="#F5F3FF" fill-opacity="0.68"/>
<path d="M30.0905 179H102.907V179.6H30.0905V179Z" fill="#F5F3FF" fill-opacity="0.68"/>
<defs>
<filter id="filter0_i_13896_13057" x="6.5" y="0" width="120" height="120" filterUnits="userSpaceOnUse" color-interpolation-filters="sRGB">
<feFlood flood-opacity="0" result="BackgroundImageFix"/>
<feBlend mode="normal" in="SourceGraphic" in2="BackgroundImageFix" result="shape"/>
<feColorMatrix in="SourceAlpha" type="matrix" values="0 0 0 0 0 0 0 0 0 0 0 0 0 0 0 0 0 0 127 0" result="hardAlpha"/>
<feOffset dy="-7.79636"/>
<feComposite in2="hardAlpha" operator="arithmetic" k2="-1" k3="1"/>
<feColorMatrix type="matrix" values="0 0 0 0 0 0 0 0 0 0 0 0 0 0 0 0 0 0 0.15 0"/>
<feBlend mode="normal" in2="shape" result="effect1_innerShadow_13896_13057"/>
</filter>
</defs>
</svg>
