<svg width="118" height="118" viewBox="0 0 118 118" fill="none" xmlns="http://www.w3.org/2000/svg">
<rect x="4" y="4" width="110" height="110" rx="55" stroke="white" stroke-opacity="0.1" stroke-width="8"/>
<g opacity="0.15" filter="url(#filter0_i_14030_17165)">
<path d="M15 59C15 34.6995 34.6995 15 59 15C83.3005 15 103 34.6995 103 59C103 83.3005 83.3005 103 59 103C34.6995 103 15 83.3005 15 59Z" fill="#3D3D3D" fill-opacity="0.6"/>
<path d="M70.1003 72.3333C71.0205 72.3335 71.7669 73.0796 71.7669 74C71.7669 74.9203 71.0205 75.6664 70.1003 75.6666H70.084C69.1635 75.6666 68.4173 74.9204 68.4173 74C68.4173 73.0795 69.1635 72.3333 70.084 72.3333H70.1003ZM69.5029 67.4196C69.5048 67.4189 69.511 67.4176 69.5192 67.4147C69.5357 67.4088 69.5639 67.3983 69.6022 67.3837C69.6803 67.354 69.7994 67.3064 69.944 67.2421C70.2379 67.1115 70.617 66.9205 70.9841 66.6757C71.8196 66.1186 72.115 65.6174 72.1152 65.2532V65.25C72.1159 64.7588 71.9432 64.283 71.627 63.9072C71.3105 63.5313 70.871 63.279 70.3867 63.1959C69.9025 63.1129 69.4041 63.2041 68.9805 63.4531C68.5569 63.702 68.2353 64.0932 68.0723 64.5566C67.7668 65.4249 66.8149 65.8809 65.9466 65.5755C65.0786 65.2699 64.6223 64.318 64.9277 63.4498C65.352 62.2443 66.1894 61.2281 67.291 60.5804C68.3932 59.9326 69.6898 59.6953 70.9499 59.9114C72.21 60.1276 73.354 60.7823 74.1774 61.7604C75.0002 62.7379 75.45 63.9755 75.4486 65.2532L75.4307 65.6438C75.2535 67.5551 73.8056 68.8007 72.833 69.4492C72.2636 69.8288 71.7052 70.1074 71.2966 70.289C71.0902 70.3807 70.9154 70.4507 70.7887 70.499C70.7256 70.523 70.6741 70.5423 70.6357 70.5559C70.6168 70.5627 70.6008 70.568 70.5885 70.5722C70.5825 70.5743 70.5765 70.5757 70.5723 70.5771C70.5701 70.5778 70.5675 70.5798 70.5658 70.5804H70.5625C69.6893 70.8714 68.7442 70.4005 68.4531 69.5273C68.1803 68.7089 68.5784 67.8284 69.3483 67.4814L69.5029 67.4196ZM55.6667 62.3333C56.5871 62.3333 57.3333 63.0795 57.3333 64C57.3333 64.9204 56.5871 65.6666 55.6667 65.6666H52.3333C51.4129 65.6666 50.6667 64.9204 50.6667 64C50.6667 63.0795 51.4129 62.3333 52.3333 62.3333H55.6667ZM62.3333 55.6666C63.2538 55.6666 64 56.4128 64 57.3333C64 58.2538 63.2538 59 62.3333 59H52.3333C51.4129 59 50.6667 58.2538 50.6667 57.3333C50.6667 56.4128 51.4129 55.6666 52.3333 55.6666H62.3333ZM70.6667 54.8333V50.333C70.6667 48.9057 70.6661 47.9352 70.6048 47.1852C70.5451 46.4545 70.4365 46.0803 70.3037 45.8196C69.9842 45.1925 69.4741 44.6825 68.847 44.3629C68.5863 44.2301 68.2121 44.1215 67.4814 44.0618C66.7314 44.0005 65.761 44 64.3337 44H53.6663C52.239 44 51.2686 44.0005 50.5186 44.0618C49.7879 44.1215 49.4137 44.2301 49.153 44.3629C48.5259 44.6825 48.0158 45.1925 47.6963 45.8196C47.5635 46.0803 47.4549 46.4545 47.3952 47.1852C47.3339 47.9352 47.3333 48.9057 47.3333 50.333V67.667C47.3333 69.0943 47.3339 70.0647 47.3952 70.8147C47.4549 71.5454 47.5635 71.9196 47.6963 72.1803C48.0158 72.8074 48.5259 73.3174 49.153 73.637C49.4137 73.7698 49.7879 73.8784 50.5186 73.9381C51.2686 73.9994 52.239 74 53.6663 74H62.3333C63.2538 74 64 74.7462 64 75.6666C64 76.5871 63.2538 77.3333 62.3333 77.3333H53.6663C52.2939 77.3333 51.164 77.335 50.2467 77.26C49.31 77.1835 48.4482 77.0195 47.6393 76.6074C46.3852 75.9683 45.365 74.9481 44.7259 73.694C44.3138 72.8851 44.1498 72.0233 44.0732 71.0865C43.9983 70.1692 44 69.0394 44 67.667V50.333C44 48.9605 43.9983 47.8307 44.0732 46.9134C44.1498 45.9766 44.3138 45.1148 44.7259 44.306C45.365 43.0518 46.3851 42.0317 47.6393 41.3925C48.4482 40.9804 49.31 40.8164 50.2467 40.7399C51.164 40.6649 52.2939 40.6666 53.6663 40.6666H64.3337C65.7061 40.6666 66.836 40.6649 67.7533 40.7399C68.69 40.8164 69.5518 40.9804 70.3607 41.3925C71.6149 42.0317 72.635 43.0518 73.2741 44.306C73.6862 45.1148 73.8502 45.9766 73.9268 46.9134C74.0017 47.8307 74 48.9605 74 50.333V54.8333C74 55.7538 73.2538 56.5 72.3333 56.5C71.4129 56.5 70.6667 55.7538 70.6667 54.8333ZM65.6667 49C66.5871 49 67.3333 49.7462 67.3333 50.6666C67.3333 51.5871 66.5871 52.3333 65.6667 52.3333H52.3333C51.4129 52.3333 50.6667 51.5871 50.6667 50.6666C50.6667 49.7462 51.4129 49 52.3333 49H65.6667Z" fill="white"/>
</g>
<mask id="mask0_14030_17165" style="mask-type:alpha" maskUnits="userSpaceOnUse" x="47" y="47" width="24" height="24">
<rect x="47" y="47" width="24" height="24" fill="#D9D9D9"/>
</mask>
<g mask="url(#mask0_14030_17165)">
<path d="M53 69C52.45 69 51.9792 68.8042 51.5875 68.4125C51.1958 68.0208 51 67.55 51 67V57C51 56.45 51.1958 55.9792 51.5875 55.5875C51.9792 55.1958 52.45 55 53 55H54V53C54 51.6167 54.4875 50.4375 55.4625 49.4625C56.4375 48.4875 57.6167 48 59 48C60.3833 48 61.5625 48.4875 62.5375 49.4625C63.5125 50.4375 64 51.6167 64 53V55H65C65.55 55 66.0208 55.1958 66.4125 55.5875C66.8042 55.9792 67 56.45 67 57V67C67 67.55 66.8042 68.0208 66.4125 68.4125C66.0208 68.8042 65.55 69 65 69H53ZM60.4125 63.4125C60.8042 63.0208 61 62.55 61 62C61 61.45 60.8042 60.9792 60.4125 60.5875C60.0208 60.1958 59.55 60 59 60C58.45 60 57.9792 60.1958 57.5875 60.5875C57.1958 60.9792 57 61.45 57 62C57 62.55 57.1958 63.0208 57.5875 63.4125C57.9792 63.8042 58.45 64 59 64C59.55 64 60.0208 63.8042 60.4125 63.4125ZM56 55H62V53C62 52.1667 61.7083 51.4583 61.125 50.875C60.5417 50.2917 59.8333 50 59 50C58.1667 50 57.4583 50.2917 56.875 50.875C56.2917 51.4583 56 52.1667 56 53V55Z" fill="#F5B53D"/>
</g>
<defs>
<filter id="filter0_i_14030_17165" x="15" y="15" width="88" height="88" filterUnits="userSpaceOnUse" color-interpolation-filters="sRGB">
<feFlood flood-opacity="0" result="BackgroundImageFix"/>
<feBlend mode="normal" in="SourceGraphic" in2="BackgroundImageFix" result="shape"/>
<feColorMatrix in="SourceAlpha" type="matrix" values="0 0 0 0 0 0 0 0 0 0 0 0 0 0 0 0 0 0 127 0" result="hardAlpha"/>
<feOffset dy="-7"/>
<feComposite in2="hardAlpha" operator="arithmetic" k2="-1" k3="1"/>
<feColorMatrix type="matrix" values="0 0 0 0 0 0 0 0 0 0 0 0 0 0 0 0 0 0 0.15 0"/>
<feBlend mode="normal" in2="shape" result="effect1_innerShadow_14030_17165"/>
</filter>
</defs>
</svg>
