<svg width="117" height="81" viewBox="0 0 117 81" fill="none" xmlns="http://www.w3.org/2000/svg">
<path d="M97.6963 1.03711C107.429 1.03712 115.318 8.92665 115.318 18.6592V61.4463C115.318 71.1786 107.429 79.0684 97.6963 79.0684H18.6592C8.9268 79.0684 1.03736 71.1786 1.03711 61.4463V18.6592C1.03711 8.92664 8.92664 1.03711 18.6592 1.03711H97.6963Z" fill="#5FA0FC"/>
<path d="M97.6963 1.03711C107.429 1.03712 115.318 8.92665 115.318 18.6592V61.4463C115.318 71.1786 107.429 79.0684 97.6963 79.0684H18.6592C8.9268 79.0684 1.03736 71.1786 1.03711 61.4463V18.6592C1.03711 8.92664 8.92664 1.03711 18.6592 1.03711H97.6963Z" stroke="#5FA0FC" stroke-width="2.07321"/>
<path d="M48.1287 17.0732L51.5806 11.942L48.1442 6.81083H50.1345L52.669 10.9624H52.7467L55.2968 6.81083H57.3026L53.8663 11.9109L57.3959 17.0732H55.3901L52.7467 12.8594H52.669L50.1189 17.0732H48.1287ZM60.2471 14.0101V12.6106H62.7194C63.6213 12.6106 64.2951 12.4396 64.7408 12.0975C65.1969 11.7451 65.425 11.1646 65.425 10.356C65.425 9.6304 65.2125 9.08619 64.7875 8.72337C64.3728 8.36056 63.7301 8.17915 62.8594 8.17915H60.2471V6.81083H62.906C63.5694 6.81083 64.1603 6.88858 64.6786 7.04407C65.2073 7.19956 65.653 7.42761 66.0158 7.72823C66.389 8.02885 66.6689 8.40721 66.8555 8.86332C67.0524 9.30906 67.1509 9.82736 67.1509 10.4182C67.1509 11.1957 66.9747 11.8539 66.6223 12.393C66.2698 12.9216 65.7463 13.3259 65.0518 13.6058C64.3676 13.8753 63.5176 14.0101 62.5017 14.0101H60.2471ZM59.2209 17.0732V6.81083H60.9157V17.0732H59.2209Z" fill="#06173B"/>
<rect x="2.07324" y="23.0732" width="112.209" height="54.9291" rx="16.5857" fill="#090C18"/>
<path d="M36.8291 65.563C35.551 65.563 34.3447 64.8774 33.6698 63.7687C32.9949 62.6601 32.9374 61.3034 33.5262 60.1218C34.6032 57.9337 35.4505 56.2415 36.0967 54.9286C35.4792 54.9286 34.7899 54.9286 34.0145 54.9286C32.4492 54.9286 31.0849 53.9658 30.5536 52.4779C30.0079 50.9899 30.4387 49.3561 31.6162 48.335C34.7325 45.6363 42.1999 39.6553 46.3788 36.3148C47.0394 35.7896 47.8293 35.5125 48.6478 35.5125C49.9833 35.5125 51.2183 36.2564 51.8789 37.438C52.5251 38.605 52.4964 40.0638 51.8071 41.2162L49.2653 45.4612H51.1178C52.6687 45.4612 54.033 46.424 54.5787 47.8974C55.1244 49.3707 54.7079 51.0045 53.5447 52.0403L39.256 64.6294C38.5811 65.2275 37.7195 65.5484 36.8435 65.5484L36.8291 65.563Z" fill="#5FA0FC"/>
<path d="M36.8146 63.404C36.4843 63.404 36.1396 63.2873 35.8524 63.0685C35.2493 62.6017 35.077 61.7848 35.4216 61.0992C37.6188 56.6645 38.8538 54.1554 39.6149 52.7404C38.466 52.7842 36.6997 52.7842 33.9999 52.7842C33.3393 52.7842 32.7649 52.3758 32.5352 51.7485C32.3054 51.1212 32.4777 50.421 32.9947 49.9834C36.0822 47.3138 43.5353 41.3475 47.6999 38.0215C48.303 37.5401 49.1215 37.5693 49.696 38.0799C50.2704 38.605 50.3996 39.4365 49.9975 40.1075L45.4883 47.6348H51.132C51.7926 47.6348 52.367 48.0432 52.5968 48.6705C52.8266 49.2978 52.6542 49.9834 52.1516 50.4356L37.8629 63.0247C37.5613 63.2873 37.2023 63.4186 36.8433 63.4186L36.8146 63.404ZM41.5823 52.4633C41.2951 53.0322 40.2324 55.1474 37.1592 61.3617L50.8017 49.3415H45.2586C44.6985 49.3415 44.1672 49.0352 43.8943 48.5246C43.6215 48.0286 43.6358 47.416 43.923 46.92L48.2168 39.7574C44.0523 43.0688 37.231 48.5538 34.201 51.1504C38.5522 51.0775 40.4478 51.0483 40.7781 51.0337C40.893 50.9899 40.9935 51.0045 41.1227 51.0337C41.4961 51.1212 41.769 51.4713 41.769 51.8652C41.769 52.1424 41.769 52.332 41.5679 52.4633H41.5823Z" fill="#06173B"/>
<path d="M66.9319 58.3364C65.8538 58.3364 64.8835 58.071 64.0211 57.5403C63.1752 57.0095 62.5118 56.2798 62.0308 55.351C61.5664 54.4222 61.3508 53.369 61.3839 52.1914L65.5138 51.7933C65.4806 52.7221 65.5801 53.4851 65.8123 54.0821C66.0445 54.6792 66.4011 54.9778 66.8821 54.9778C67.2968 54.9778 67.6119 54.787 67.8275 54.4056C68.0431 54.0075 68.1509 53.5265 68.1509 52.9626C68.1509 52.2992 67.9851 51.7519 67.6533 51.3206C67.3382 50.8728 66.8406 50.6655 66.1606 50.6987L65.1406 50.7484L64.8918 47.3898L65.9118 47.4396C66.4592 47.4562 66.8738 47.2737 67.1558 46.8922C67.4543 46.5108 67.6036 46.0132 67.6036 45.3995C67.6036 44.9185 67.529 44.5205 67.3797 44.2054C67.2304 43.8902 67.0148 43.7327 66.7328 43.7327C66.368 43.7327 66.1109 43.9897 65.9616 44.5039C65.8123 45.0181 65.7957 45.6649 65.9118 46.4444L61.782 46.121C61.7488 45.0264 61.9396 44.0478 62.3542 43.1853C62.7854 42.3229 63.3825 41.6429 64.1455 41.1453C64.925 40.6311 65.8123 40.3741 66.8075 40.3741C67.7363 40.3741 68.5739 40.5897 69.3202 41.0209C70.0666 41.4521 70.6554 42.0409 71.0866 42.7873C71.5344 43.5171 71.7583 44.338 71.7583 45.2503C71.7583 45.8142 71.6754 46.3449 71.5095 46.8425C71.3603 47.3401 71.1612 47.763 70.9124 48.1113C70.6637 48.4596 70.4149 48.6918 70.1661 48.8079C70.7963 48.9572 71.3271 49.405 71.7583 50.1513C72.2061 50.8811 72.43 51.7602 72.43 52.7885C72.43 53.8334 72.1895 54.7787 71.7086 55.6246C71.2276 56.4539 70.5724 57.1173 69.7431 57.6149C68.9139 58.0959 67.9768 58.3364 66.9319 58.3364ZM79.1601 40.3741C80.3542 40.3741 81.3908 40.7141 82.2699 41.3941C83.1655 42.0741 83.8538 43.0444 84.3348 44.3049C84.8158 45.5654 85.0563 47.0581 85.0563 48.783C85.0563 50.624 84.7909 52.2577 84.2602 53.6841C83.7294 55.1105 82.9748 56.2383 81.9962 57.0676C81.0343 57.8803 79.9147 58.2866 78.6376 58.2866C77.7254 58.2866 76.8878 58.0876 76.1249 57.6895C75.3785 57.2749 74.7649 56.6944 74.2839 55.948C73.8195 55.2017 73.5624 54.3309 73.5126 53.3358L77.3439 52.6889C77.3605 53.4187 77.5098 53.9743 77.7917 54.3558C78.0903 54.7373 78.4137 54.928 78.762 54.928C79.2928 54.928 79.7406 54.5217 80.1055 53.709C80.4869 52.8963 80.7191 51.7767 80.8021 50.3504C80.5201 50.8479 80.0972 51.2543 79.5332 51.5694C78.9693 51.868 78.3971 52.0172 77.8166 52.0172C77.1698 52.0172 76.5146 51.8182 75.8512 51.4201C75.2044 51.0221 74.657 50.425 74.2092 49.6289C73.778 48.8328 73.5624 47.8293 73.5624 46.6186C73.5624 45.4078 73.8029 44.338 74.2839 43.4092C74.7649 42.4639 75.42 41.7258 76.2493 41.1951C77.0951 40.6477 78.0654 40.3741 79.1601 40.3741ZM79.1849 43.7327C78.8035 43.7327 78.4801 43.9732 78.2147 44.4541C77.9493 44.9351 77.8166 45.5322 77.8166 46.2454C77.8166 47.0249 77.9493 47.6635 78.2147 48.1611C78.4801 48.6586 78.8118 48.9074 79.2098 48.9074C79.6079 48.9074 79.9313 48.6669 80.1801 48.1859C80.4289 47.7049 80.5533 47.0996 80.5533 46.3698C80.5533 45.6069 80.4206 44.9766 80.1552 44.479C79.8898 43.9815 79.5664 43.7327 79.1849 43.7327Z" fill="#5FA0FC"/>
</svg>
