<svg width="181" height="80" viewBox="0 0 181 80" fill="none" xmlns="http://www.w3.org/2000/svg">
<path d="M162.094 1.03711C171.826 1.03725 179.716 8.92673 179.716 18.6592V60.9736C179.716 70.7059 171.826 78.5956 162.094 78.5957H18.6592C8.92677 78.5957 1.03731 70.706 1.03711 60.9736V18.6592C1.03711 8.92664 8.92664 1.03711 18.6592 1.03711H162.094Z" fill="#5FA0FC"/>
<path d="M162.094 1.03711C171.826 1.03725 179.716 8.92673 179.716 18.6592V60.9736C179.716 70.7059 171.826 78.5956 162.094 78.5957H18.6592C8.92677 78.5957 1.03731 70.706 1.03711 60.9736V18.6592C1.03711 8.92664 8.92664 1.03711 18.6592 1.03711H162.094Z" stroke="#5FA0FC" stroke-width="2.07321"/>
<path d="M80.3269 17.0732L83.7788 11.942L80.3424 6.81083H82.3327L84.8672 10.9624H84.945L87.495 6.81083H89.5009L86.0645 11.9109L89.5942 17.0732H87.5883L84.945 12.8594H84.8672L82.3172 17.0732H80.3269ZM92.4454 14.0101V12.6106H94.9177C95.8195 12.6106 96.4933 12.4396 96.9391 12.0975C97.3952 11.7451 97.6232 11.1646 97.6232 10.356C97.6232 9.6304 97.4107 9.08619 96.9857 8.72337C96.5711 8.36056 95.9284 8.17915 95.0576 8.17915H92.4454V6.81083H95.1043C95.7677 6.81083 96.3586 6.88858 96.8769 7.04407C97.4055 7.19956 97.8513 7.42761 98.2141 7.72823C98.5873 8.02885 98.8671 8.40721 99.0537 8.86332C99.2507 9.30906 99.3492 9.82736 99.3492 10.4182C99.3492 11.1957 99.1729 11.8539 98.8205 12.393C98.468 12.9216 97.9446 13.3259 97.25 13.6058C96.5659 13.8753 95.7159 14.0101 94.7 14.0101H92.4454ZM91.4191 17.0732V6.81083H93.114V17.0732H91.4191Z" fill="#06173B"/>
<rect x="2.07324" y="23.0732" width="176.606" height="54.9291" rx="16.5857" fill="#090C18"/>
<path d="M64.0278 65.5631C62.7498 65.5631 61.5435 64.8775 60.8685 63.7688C60.1936 62.6602 60.1361 61.3035 60.7249 60.1219C61.802 57.9338 62.6492 56.2416 63.2955 54.9287C62.678 54.9287 61.9886 54.9287 61.2132 54.9287C59.6479 54.9287 58.2836 53.9659 57.7523 52.478C57.2066 50.9901 57.6374 49.3562 58.815 48.3351C61.9312 45.6364 69.3987 39.6555 73.5776 36.3149C74.2382 35.7897 75.028 35.5126 75.8465 35.5126C77.1821 35.5126 78.4171 36.2565 79.0776 37.4381C79.7239 38.6052 79.6951 40.0639 79.0058 41.2163L76.464 45.4613H78.3165C79.8675 45.4613 81.2317 46.4241 81.7774 47.8975C82.3231 49.3708 81.9067 51.0047 80.7435 52.0404L66.4548 64.6295C65.7798 65.2276 64.9182 65.5485 64.0422 65.5485L64.0278 65.5631Z" fill="#5FA0FC"/>
<path d="M64.0133 63.4041C63.683 63.4041 63.3384 63.2874 63.0512 63.0686C62.448 62.6018 62.2757 61.7849 62.6203 61.0993C64.8175 56.6646 66.0525 54.1556 66.8136 52.7406C65.6648 52.7843 63.8984 52.7843 61.1987 52.7843C60.5381 52.7843 59.9637 52.3759 59.7339 51.7486C59.5041 51.1213 59.6764 50.4211 60.1934 49.9835C63.2809 47.314 70.734 41.3476 74.8986 38.0216C75.5017 37.5402 76.3203 37.5694 76.8947 38.08C77.4691 38.6051 77.5984 39.4366 77.1963 40.1077L72.6871 47.6349H78.3307C78.9913 47.6349 79.5657 48.0433 79.7955 48.6706C80.0253 49.2979 79.853 49.9835 79.3503 50.4357L65.0616 63.0249C64.7601 63.2874 64.4011 63.4187 64.042 63.4187L64.0133 63.4041ZM68.781 52.4634C68.4938 53.0323 67.4311 55.1475 64.358 61.3619L78.0005 49.3416H72.4573C71.8972 49.3416 71.3659 49.0353 71.093 48.5247C70.8202 48.0288 70.8346 47.4161 71.1218 46.9201L75.4156 39.7576C71.251 43.069 64.4298 48.5539 61.3997 51.1505C65.7509 51.0776 67.6465 51.0484 67.9768 51.0338C68.0917 50.9901 68.1922 51.0046 68.3215 51.0338C68.6948 51.1213 68.9677 51.4714 68.9677 51.8653C68.9677 52.1425 68.9677 52.3321 68.7666 52.4634H68.781Z" fill="#06173B"/>
<path d="M92.6625 58.0378V45.8473C92.4137 46.063 92.1732 46.2703 91.941 46.4693C91.7088 46.6518 91.402 46.8508 91.0205 47.0664C90.6556 47.2654 90.1332 47.5059 89.4532 47.7879L88.4829 44.1556C89.7103 43.5917 90.7717 43.0361 91.6674 42.4887C92.563 41.9414 93.2098 41.336 93.6079 40.6726H96.9168V58.0378H92.6625ZM103.87 58.3115C102.759 58.3115 101.788 58.0544 100.959 57.5403C100.13 57.0095 99.4996 56.2963 99.0684 55.4007C98.6537 54.4885 98.4962 53.4602 98.5957 52.3158L102.502 51.8928C102.485 52.7885 102.609 53.5265 102.875 54.107C103.14 54.6709 103.472 54.9529 103.87 54.9529C104.285 54.9529 104.6 54.6709 104.815 54.107C105.048 53.5265 105.164 52.8133 105.164 51.9675C105.164 51.0884 105.048 50.4084 104.815 49.9274C104.6 49.4299 104.309 49.1811 103.945 49.1811C103.629 49.1811 103.331 49.3552 103.049 49.7035C102.784 50.0352 102.601 50.4499 102.502 50.9474L98.9191 50.3504L99.6903 40.6726H108.671L108.895 44.0312H103.447L103.124 47.0664C103.372 46.6849 103.729 46.3781 104.193 46.1459C104.674 45.9137 105.164 45.7976 105.661 45.7976C106.391 45.7976 107.038 46.0547 107.602 46.5688C108.166 47.083 108.605 47.7879 108.92 48.6835C109.252 49.5625 109.418 50.566 109.418 51.6938C109.418 53.0207 109.186 54.1817 108.721 55.1768C108.273 56.1719 107.635 56.9432 106.806 57.4905C105.976 58.0378 104.998 58.3115 103.87 58.3115ZM116.573 58.3115C115.346 58.3115 114.276 57.9466 113.364 57.2168C112.468 56.4871 111.772 55.4505 111.274 54.107C110.776 52.7636 110.528 51.1797 110.528 49.3552C110.528 47.5308 110.776 45.9469 111.274 44.6034C111.772 43.26 112.468 42.2234 113.364 41.4936C114.276 40.7638 115.346 40.3989 116.573 40.3989C117.784 40.3989 118.829 40.7638 119.708 41.4936C120.603 42.2234 121.3 43.26 121.798 44.6034C122.295 45.9303 122.544 47.5142 122.544 49.3552C122.544 51.1962 122.295 52.7885 121.798 54.1319C121.3 55.4588 120.603 56.4871 119.708 57.2168C118.829 57.9466 117.784 58.3115 116.573 58.3115ZM116.573 54.9529C117.137 54.9529 117.56 54.4719 117.842 53.5099C118.141 52.548 118.29 51.1631 118.29 49.3552C118.29 47.5474 118.141 46.1625 117.842 45.2005C117.56 44.2385 117.137 43.7575 116.573 43.7575C116.009 43.7575 115.57 44.2385 115.255 45.2005C114.939 46.1459 114.782 47.5308 114.782 49.3552C114.782 51.1631 114.939 52.548 115.255 53.5099C115.57 54.4719 116.009 54.9529 116.573 54.9529Z" fill="#5FA0FC"/>
</svg>
